<svg xmlns="http://www.w3.org/2000/svg" xmlns:xlink="http://www.w3.org/1999/xlink" width="160" zoomAndPan="magnify" viewBox="0 0 120 32.999998" height="44" preserveAspectRatio="xMidYMid meet" version="1.0"><rect x="-12" width="144" fill="#ffffff" y="-3.3" height="39.599998" fill-opacity="1"/><path fill="#4d4d4d" d="M 20.390625 18.683594 L 14.226562 18.683594 L 17.308594 13.105469 Z M 23.285156 23.917969 L 26.070312 23.917969 L 17.453125 8.835938 L 17.167969 8.835938 L 8.546875 23.917969 L 11.332031 23.917969 L 12.878906 21.125 L 21.742188 21.125 Z M 32.238281 23.898438 L 44.171875 23.898438 L 44.171875 21.457031 L 34.679688 21.457031 L 34.679688 9.214844 L 32.238281 9.214844 Z M 63.941406 16.519531 L 63.941406 9.222656 L 61.492188 9.222656 L 61.492188 15.574219 C 61.492188 18.832031 60.433594 21.671875 56.664062 21.671875 C 52.890625 21.671875 51.832031 18.839844 51.832031 15.574219 L 51.832031 9.222656 L 49.382812 9.222656 L 49.382812 16.519531 C 49.382812 20.917969 52.15625 24.195312 56.664062 24.195312 C 61.167969 24.195312 63.941406 20.925781 63.941406 16.519531 M 88.339844 23.917969 L 90.800781 23.917969 L 85.667969 8.835938 L 85.304688 8.835938 L 80.15625 19.804688 L 80.15625 19.886719 C 80.15625 19.886719 75.011719 8.835938 75.011719 8.835938 L 74.644531 8.835938 L 69.511719 23.917969 L 71.976562 23.917969 L 75.140625 14.523438 L 79.886719 24.285156 C 79.886719 24.285156 80.050781 24.285156 80.050781 24.285156 L 80.433594 24.285156 C 80.433594 24.285156 85.183594 14.515625 85.183594 14.515625 L 88.347656 23.914062 Z M 109 16.492188 C 109 19.441406 106.492188 21.828125 103.394531 21.828125 C 100.300781 21.828125 97.789062 19.441406 97.789062 16.492188 C 97.789062 13.542969 100.300781 11.15625 103.394531 11.15625 C 106.492188 11.15625 109 13.542969 109 16.492188 M 111.464844 16.492188 C 111.464844 12.1875 107.855469 8.703125 103.394531 8.703125 C 98.9375 8.703125 95.328125 12.1875 95.328125 16.492188 C 95.328125 20.796875 98.9375 24.285156 103.394531 24.285156 C 107.855469 24.285156 111.464844 20.796875 111.464844 16.492188 " fill-opacity="1" fill-rule="nonzero"/></svg>