<svg width="32" height="32" viewBox="0 0 32 32" fill="none" xmlns="http://www.w3.org/2000/svg">
<rect width="32" height="32" rx="2.5" fill="#040404"/>
<path d="M8.24 17.9999C7.91519 17.9999 7.63149 17.9203 7.38889 17.7611C7.14629 17.6018 6.95782 17.3826 6.82349 17.1034C6.69116 16.822 6.625 16.4992 6.625 16.1349C6.625 15.7641 6.69317 15.4391 6.82951 15.1599C6.96584 14.8806 7.15531 14.6625 7.39791 14.5055C7.64051 14.3484 7.92121 14.2699 8.24 14.2699C8.56681 14.2699 8.85151 14.3495 9.09411 14.5087C9.33671 14.668 9.52518 14.8883 9.65951 15.1697C9.79385 15.4489 9.86101 15.7706 9.86101 16.1349C9.86101 16.5014 9.79284 16.8253 9.65651 17.1067C9.52217 17.3859 9.33371 17.6051 9.09111 17.7644C8.84851 17.9214 8.5648 17.9999 8.24 17.9999ZM8.24 17.2605C8.52871 17.2605 8.74324 17.1558 8.88359 16.9464C9.02394 16.7369 9.09411 16.4665 9.09411 16.1349C9.09411 15.7924 9.02294 15.5198 8.88058 15.3169C8.73823 15.1119 8.5247 15.0093 8.24 15.0093C8.04552 15.0093 7.88512 15.0573 7.75881 15.1533C7.6345 15.2471 7.54227 15.3791 7.48212 15.5492C7.42197 15.7172 7.3919 15.9124 7.3919 16.1349C7.3919 16.4774 7.46308 16.7511 7.60543 16.9562C7.74978 17.159 7.96131 17.2605 8.24 17.2605Z" fill="white"/>
<path d="M10.2229 17.9018V14.368H10.8635V15.2286L10.7853 15.1173C10.8254 14.9995 10.8785 14.8926 10.9447 14.7967C11.0128 14.6985 11.094 14.6178 11.1883 14.5545C11.2685 14.4956 11.3567 14.4498 11.4529 14.4171C11.5512 14.3822 11.6514 14.3615 11.7537 14.3549C11.8559 14.3462 11.9552 14.3506 12.0514 14.368V15.1042C11.9552 15.0737 11.8439 15.0639 11.7176 15.0748C11.5933 15.0857 11.481 15.1239 11.3808 15.1893C11.2805 15.2482 11.1983 15.3235 11.1341 15.4151C11.072 15.5067 11.0259 15.6114 10.9958 15.7292C10.9657 15.8448 10.9507 15.9702 10.9507 16.1055V17.9018H10.2229Z" fill="white"/>
<path d="M13.4612 17.9999C13.0602 17.9999 12.7344 17.9018 12.4838 17.7055C12.2332 17.5091 12.0808 17.2332 12.0267 16.8776L12.7665 16.7533C12.8046 16.9278 12.8888 17.0652 13.0191 17.1656C13.1494 17.2659 13.3138 17.3161 13.5123 17.3161C13.6868 17.3161 13.8211 17.279 13.9153 17.2048C14.0116 17.1285 14.0597 17.0249 14.0597 16.894C14.0597 16.8133 14.0416 16.7489 14.0056 16.701C13.9715 16.6508 13.8953 16.6028 13.777 16.557C13.6587 16.5112 13.4772 16.4534 13.2326 16.3836C12.96 16.305 12.7434 16.2211 12.583 16.1316C12.4226 16.04 12.3074 15.932 12.2372 15.8077C12.167 15.6834 12.1319 15.5329 12.1319 15.3562C12.1319 15.1359 12.185 14.9439 12.2913 14.7803C12.3976 14.6167 12.5459 14.4913 12.7364 14.404C12.9269 14.3146 13.1514 14.2699 13.4101 14.2699C13.6627 14.2699 13.8863 14.3124 14.0807 14.3975C14.2772 14.4826 14.4356 14.6036 14.5559 14.7607C14.6762 14.9177 14.7504 15.102 14.7785 15.3136L14.0386 15.4576C14.0206 15.3071 13.9574 15.1882 13.8492 15.101C13.7429 15.0137 13.6006 14.9646 13.4221 14.9537C13.2517 14.9428 13.1143 14.9712 13.0101 15.0388C12.9058 15.1042 12.8537 15.1969 12.8537 15.3169C12.8537 15.3845 12.8748 15.4423 12.9169 15.4903C12.959 15.5383 13.0432 15.5863 13.1695 15.6343C13.2978 15.6823 13.4883 15.7412 13.7409 15.811C13.9995 15.883 14.2061 15.9659 14.3604 16.0596C14.5168 16.1513 14.6291 16.2614 14.6973 16.3901C14.7674 16.5188 14.8025 16.6748 14.8025 16.858C14.8025 17.2136 14.6832 17.4928 14.4446 17.6956C14.2081 17.8985 13.8802 17.9999 13.4612 17.9999Z" fill="white"/>
<path d="M16.5951 17.9999C16.2703 17.9999 15.9866 17.9203 15.744 17.7611C15.5014 17.6018 15.3129 17.3826 15.1786 17.1034C15.0462 16.822 14.9801 16.4992 14.9801 16.1349C14.9801 15.7641 15.0482 15.4391 15.1846 15.1599C15.3209 14.8806 15.5104 14.6625 15.753 14.5055C15.9956 14.3484 16.2763 14.2699 16.5951 14.2699C16.9219 14.2699 17.2066 14.3495 17.4492 14.5087C17.6918 14.668 17.8802 14.8883 18.0146 15.1697C18.1489 15.4489 18.2161 15.7706 18.2161 16.1349C18.2161 16.5014 18.1479 16.8253 18.0116 17.1067C17.8772 17.3859 17.6888 17.6051 17.4462 17.7644C17.2036 17.9214 16.9199 17.9999 16.5951 17.9999ZM16.5951 17.2605C16.8838 17.2605 17.0983 17.1558 17.2387 16.9464C17.379 16.7369 17.4492 16.4665 17.4492 16.1349C17.4492 15.7924 17.378 15.5198 17.2356 15.3169C17.0933 15.1119 16.8798 15.0093 16.5951 15.0093C16.4006 15.0093 16.2402 15.0573 16.1139 15.1533C15.9896 15.2471 15.8973 15.3791 15.8372 15.5492C15.777 15.7172 15.747 15.9124 15.747 16.1349C15.747 16.4774 15.8181 16.7511 15.9605 16.9562C16.1048 17.159 16.3164 17.2605 16.5951 17.2605Z" fill="white"/>
<path d="M20.8245 17.9018V16.2003C20.8245 16.0891 20.8175 15.9659 20.8035 15.8306C20.7894 15.6954 20.7563 15.5656 20.7042 15.4412C20.6541 15.3147 20.5779 15.2111 20.4757 15.1304C20.3754 15.0497 20.2391 15.0093 20.0666 15.0093C19.9744 15.0093 19.8832 15.0257 19.793 15.0584C19.7027 15.0911 19.6205 15.1479 19.5464 15.2286C19.4742 15.3071 19.416 15.4162 19.3719 15.5558C19.3278 15.6932 19.3058 15.8699 19.3058 16.0858L18.8757 15.8862C18.8757 15.5852 18.9288 15.3125 19.0351 15.0682C19.1434 14.8239 19.3017 14.6298 19.5103 14.4858C19.7188 14.3397 19.9754 14.2666 20.2802 14.2666C20.5208 14.2666 20.7193 14.3102 20.8756 14.3975C21.032 14.4847 21.1563 14.596 21.2486 14.7312C21.3408 14.8665 21.409 15.0104 21.4531 15.1631C21.4972 15.3158 21.5253 15.4609 21.5373 15.5983C21.5513 15.7335 21.5583 15.8437 21.5583 15.9288V17.9018H20.8245ZM18.5719 17.9018V14.368H19.2185V15.4641H19.3058V17.9018H18.5719Z" fill="white"/>
<circle cx="24.3584" cy="16" r="2" fill="#7F45EE"/>
</svg>
