<svg xmlns="http://www.w3.org/2000/svg" xmlns:xlink="http://www.w3.org/1999/xlink" width="148" zoomAndPan="magnify" viewBox="0 0 110.88 30.000001" height="40" preserveAspectRatio="xMidYMid meet" version="1.0"><defs><g/><clipPath id="c117b4d002"><path d="M 4 1.234375 L 24.675781 1.234375 L 24.675781 27.910156 L 4 27.910156 Z M 4 1.234375 " clip-rule="nonzero"/></clipPath><clipPath id="8d79add16d"><path d="M 4 2 L 24.675781 2 L 24.675781 27.910156 L 4 27.910156 Z M 4 2 " clip-rule="nonzero"/></clipPath><clipPath id="522716663b"><path d="M 8.59375 6.890625 L 20.597656 6.890625 L 20.597656 22.226562 L 8.59375 22.226562 Z M 8.59375 6.890625 " clip-rule="nonzero"/></clipPath></defs><g fill="#ffffff" fill-opacity="1"><g transform="translate(30.335546, 13.380365)"><g><path d="M 0 -8.34375 L 5.015625 -8.34375 L 5.015625 -6.6875 L 1.671875 -6.6875 L 1.671875 -5.015625 L 4.171875 -5.015625 L 4.171875 -3.34375 L 1.671875 -3.34375 L 1.671875 0 L 0 0 Z M 0 -8.34375 "/></g></g></g><g fill="#ffffff" fill-opacity="1"><g transform="translate(36.656345, 13.380365)"><g><path d="M 0 0 L 0 -8.34375 L 1.671875 -8.34375 L 1.671875 0 Z M 0 0 "/></g></g></g><g fill="#ffffff" fill-opacity="1"><g transform="translate(39.771545, 13.380365)"><g><path d="M 0 -8.34375 L 5.015625 -3.78125 L 5.015625 -8.34375 L 6.6875 -8.34375 L 6.6875 0 L 1.671875 -4.5625 L 1.671875 0 L 0 0 Z M 0 -8.34375 "/></g></g></g><g fill="#ffffff" fill-opacity="1"><g transform="translate(47.925593, 13.380365)"><g><path d="M 0 -8.34375 L 5.015625 -8.34375 L 5.015625 -6.6875 L 1.671875 -6.6875 L 1.671875 -5.015625 L 4.171875 -5.015625 L 4.171875 -3.34375 L 1.671875 -3.34375 L 1.671875 -1.671875 L 5.015625 -1.671875 L 5.015625 0 L 0 0 Z M 0 -8.34375 "/></g></g></g><g fill="#ffffff" fill-opacity="1"><g transform="translate(54.246392, 13.380365)"><g/></g></g><g fill="#ffffff" fill-opacity="1"><g transform="translate(57.397844, 13.380365)"><g><path d="M 2.09375 -8.34375 L 5.84375 -8.34375 L 5.84375 -6.6875 L 3.765625 -6.6875 L 3.765625 0 L 2.09375 0 L 2.09375 -6.6875 L 0 -6.6875 L 0 -8.34375 Z M 2.09375 -8.34375 "/></g></g></g><g fill="#ffffff" fill-opacity="1"><g transform="translate(64.635268, 13.380365)"><g><path d="M 0 -8.34375 L 1.671875 -8.34375 L 1.671875 -5.015625 L 4.171875 -5.015625 L 4.171875 -8.34375 L 5.84375 -8.34375 L 5.84375 0 L 4.171875 0 L 4.171875 -3.34375 L 1.671875 -3.34375 L 1.671875 0 L 0 0 Z M 0 -8.34375 "/></g></g></g><g fill="#ffffff" fill-opacity="1"><g transform="translate(71.80537, 13.380365)"><g><path d="M 0 0 L 0 -8.34375 L 2.921875 -8.34375 C 3.722656 -8.34375 4.410156 -8.054688 4.984375 -7.484375 C 5.554688 -6.910156 5.84375 -6.222656 5.84375 -5.421875 C 5.84375 -4.804688 5.664062 -4.25 5.3125 -3.75 C 4.957031 -3.257812 4.507812 -2.910156 3.96875 -2.703125 L 5.84375 0 L 3.8125 0 L 1.671875 -3.0625 L 1.671875 0 Z M 1.671875 -4.171875 L 2.921875 -4.171875 C 3.265625 -4.171875 3.5625 -4.296875 3.8125 -4.546875 C 4.050781 -4.785156 4.171875 -5.078125 4.171875 -5.421875 C 4.171875 -5.765625 4.050781 -6.0625 3.8125 -6.3125 C 3.5625 -6.5625 3.265625 -6.6875 2.921875 -6.6875 L 1.671875 -6.6875 Z M 1.671875 -4.171875 "/></g></g></g><g fill="#ffffff" fill-opacity="1"><g transform="translate(78.975469, 13.380365)"><g><path d="M 0 -8.34375 L 5.015625 -8.34375 L 5.015625 -6.6875 L 1.671875 -6.6875 L 1.671875 -5.015625 L 4.171875 -5.015625 L 4.171875 -3.34375 L 1.671875 -3.34375 L 1.671875 -1.671875 L 5.015625 -1.671875 L 5.015625 0 L 0 0 Z M 0 -8.34375 "/></g></g></g><g fill="#ffffff" fill-opacity="1"><g transform="translate(85.296265, 13.380365)"><g><path d="M 2.984375 -2.921875 L 4.296875 -2.921875 L 3.640625 -4.375 Z M 2.234375 -1.25 L 2.203125 -1.1875 L 1.65625 0 L -0.125 0 L 3.453125 -7.96875 L 3.625 -8.34375 L 3.8125 -7.953125 L 7.390625 0 L 5.609375 0 L 5.078125 -1.203125 L 5.046875 -1.25 Z M 2.234375 -1.25 "/></g></g></g><g fill="#ffffff" fill-opacity="1"><g transform="translate(93.579779, 13.380365)"><g><path d="M 1.671875 -8.34375 C 2.816406 -8.34375 3.800781 -7.9375 4.625 -7.125 C 5.4375 -6.300781 5.84375 -5.316406 5.84375 -4.171875 C 5.84375 -3.023438 5.4375 -2.046875 4.625 -1.234375 C 3.800781 -0.410156 2.816406 0 1.671875 0 L 0 0 L 0 -8.34375 Z M 1.671875 -1.671875 C 2.359375 -1.671875 2.945312 -1.914062 3.4375 -2.40625 C 3.925781 -2.894531 4.171875 -3.484375 4.171875 -4.171875 C 4.171875 -4.859375 3.925781 -5.453125 3.4375 -5.953125 C 2.945312 -6.441406 2.359375 -6.6875 1.671875 -6.6875 Z M 1.671875 -1.671875 "/></g></g></g><g fill="#ffffff" fill-opacity="1"><g transform="translate(100.555401, 13.380365)"><g/></g></g><g fill="#ffffff" fill-opacity="1"><g transform="translate(37.878654, 23.986289)"><g><path d="M 4.171875 -8.34375 C 5.316406 -8.34375 6.300781 -7.9375 7.125 -7.125 C 7.9375 -6.300781 8.34375 -5.316406 8.34375 -4.171875 C 8.34375 -3.023438 7.9375 -2.046875 7.125 -1.234375 C 6.300781 -0.410156 5.316406 0 4.171875 0 C 3.023438 0 2.046875 -0.410156 1.234375 -1.234375 C 0.410156 -2.046875 0 -3.023438 0 -4.171875 C 0 -5.316406 0.410156 -6.300781 1.234375 -7.125 C 2.046875 -7.9375 3.023438 -8.34375 4.171875 -8.34375 Z M 4.171875 -6.6875 C 3.484375 -6.6875 2.894531 -6.441406 2.40625 -5.953125 C 1.914062 -5.453125 1.671875 -4.859375 1.671875 -4.171875 C 1.671875 -3.484375 1.914062 -2.894531 2.40625 -2.40625 C 2.894531 -1.914062 3.484375 -1.671875 4.171875 -1.671875 C 4.859375 -1.671875 5.453125 -1.914062 5.953125 -2.40625 C 6.441406 -2.894531 6.6875 -3.484375 6.6875 -4.171875 C 6.6875 -4.859375 6.441406 -5.453125 5.953125 -5.953125 C 5.453125 -6.441406 4.859375 -6.6875 4.171875 -6.6875 Z M 4.171875 -6.6875 "/></g></g></g><g fill="#ffffff" fill-opacity="1"><g transform="translate(47.275585, 23.986289)"><g><path d="M 7.390625 -8.34375 L 3.625 0 L 3.453125 -0.390625 L -0.125 -8.34375 L 1.640625 -8.34375 L 3.625 -3.953125 L 5.609375 -8.34375 Z M 7.390625 -8.34375 "/></g></g></g><g fill="#ffffff" fill-opacity="1"><g transform="translate(55.559101, 23.986289)"><g><path d="M 0 -8.34375 L 5.015625 -8.34375 L 5.015625 -6.6875 L 1.671875 -6.6875 L 1.671875 -5.015625 L 4.171875 -5.015625 L 4.171875 -3.34375 L 1.671875 -3.34375 L 1.671875 -1.671875 L 5.015625 -1.671875 L 5.015625 0 L 0 0 Z M 0 -8.34375 "/></g></g></g><g fill="#ffffff" fill-opacity="1"><g transform="translate(61.879899, 23.986289)"><g><path d="M 0 0 L 0 -8.34375 L 2.921875 -8.34375 C 3.722656 -8.34375 4.410156 -8.054688 4.984375 -7.484375 C 5.554688 -6.910156 5.84375 -6.222656 5.84375 -5.421875 C 5.84375 -4.804688 5.664062 -4.25 5.3125 -3.75 C 4.957031 -3.257812 4.507812 -2.910156 3.96875 -2.703125 L 5.84375 0 L 3.8125 0 L 1.671875 -3.0625 L 1.671875 0 Z M 1.671875 -4.171875 L 2.921875 -4.171875 C 3.265625 -4.171875 3.5625 -4.296875 3.8125 -4.546875 C 4.050781 -4.785156 4.171875 -5.078125 4.171875 -5.421875 C 4.171875 -5.765625 4.050781 -6.0625 3.8125 -6.3125 C 3.5625 -6.5625 3.265625 -6.6875 2.921875 -6.6875 L 1.671875 -6.6875 Z M 1.671875 -4.171875 "/></g></g></g><g fill="#ffffff" fill-opacity="1"><g transform="translate(69.050001, 23.986289)"><g><path d="M 2.34375 -3.40625 C 2.289062 -3.414062 2.140625 -3.46875 1.890625 -3.5625 C 1.640625 -3.644531 1.375 -3.78125 1.09375 -3.96875 C 0.8125 -4.15625 0.5625 -4.398438 0.34375 -4.703125 C 0.113281 -5.015625 0 -5.394531 0 -5.84375 C 0 -6.53125 0.242188 -7.117188 0.734375 -7.609375 C 1.222656 -8.097656 1.8125 -8.34375 2.5 -8.34375 C 3.1875 -8.34375 3.78125 -8.097656 4.28125 -7.609375 C 4.769531 -7.117188 5.015625 -6.53125 5.015625 -5.84375 L 3.34375 -5.84375 C 3.34375 -6.070312 3.257812 -6.269531 3.09375 -6.4375 C 2.925781 -6.601562 2.726562 -6.6875 2.5 -6.6875 C 2.269531 -6.6875 2.078125 -6.601562 1.921875 -6.4375 C 1.753906 -6.269531 1.671875 -6.070312 1.671875 -5.84375 C 1.671875 -5.550781 1.789062 -5.328125 2.03125 -5.171875 C 2.269531 -5.015625 2.453125 -4.921875 2.578125 -4.890625 C 2.640625 -4.867188 2.800781 -4.820312 3.0625 -4.75 C 3.320312 -4.664062 3.597656 -4.535156 3.890625 -4.359375 C 4.171875 -4.191406 4.425781 -3.957031 4.65625 -3.65625 C 4.894531 -3.351562 5.015625 -2.96875 5.015625 -2.5 C 5.015625 -1.8125 4.769531 -1.222656 4.28125 -0.734375 C 3.78125 -0.242188 3.1875 0 2.5 0 C 1.8125 0 1.222656 -0.242188 0.734375 -0.734375 C 0.242188 -1.222656 0 -1.8125 0 -2.5 L 1.671875 -2.5 C 1.671875 -2.269531 1.753906 -2.078125 1.921875 -1.921875 C 2.078125 -1.753906 2.269531 -1.671875 2.5 -1.671875 C 2.726562 -1.671875 2.925781 -1.753906 3.09375 -1.921875 C 3.257812 -2.078125 3.34375 -2.269531 3.34375 -2.5 C 3.34375 -2.851562 3.203125 -3.082031 2.921875 -3.1875 C 2.640625 -3.289062 2.445312 -3.363281 2.34375 -3.40625 Z M 2.34375 -3.40625 "/></g></g></g><g fill="#ffffff" fill-opacity="1"><g transform="translate(75.303477, 23.986289)"><g><path d="M 0 -8.34375 L 5.015625 -8.34375 L 5.015625 -6.6875 L 1.671875 -6.6875 L 1.671875 -5.015625 L 4.171875 -5.015625 L 4.171875 -3.34375 L 1.671875 -3.34375 L 1.671875 -1.671875 L 5.015625 -1.671875 L 5.015625 0 L 0 0 Z M 0 -8.34375 "/></g></g></g><g fill="#ffffff" fill-opacity="1"><g transform="translate(81.624277, 23.986289)"><g><path d="M 2.984375 -2.921875 L 4.296875 -2.921875 L 3.640625 -4.375 Z M 2.234375 -1.25 L 2.203125 -1.1875 L 1.65625 0 L -0.125 0 L 3.453125 -7.96875 L 3.625 -8.34375 L 3.8125 -7.953125 L 7.390625 0 L 5.609375 0 L 5.078125 -1.203125 L 5.046875 -1.25 Z M 2.234375 -1.25 "/></g></g></g><g fill="#ffffff" fill-opacity="1"><g transform="translate(89.907794, 23.986289)"><g><path d="M 2.34375 -3.40625 C 2.289062 -3.414062 2.140625 -3.46875 1.890625 -3.5625 C 1.640625 -3.644531 1.375 -3.78125 1.09375 -3.96875 C 0.8125 -4.15625 0.5625 -4.398438 0.34375 -4.703125 C 0.113281 -5.015625 0 -5.394531 0 -5.84375 C 0 -6.53125 0.242188 -7.117188 0.734375 -7.609375 C 1.222656 -8.097656 1.8125 -8.34375 2.5 -8.34375 C 3.1875 -8.34375 3.78125 -8.097656 4.28125 -7.609375 C 4.769531 -7.117188 5.015625 -6.53125 5.015625 -5.84375 L 3.34375 -5.84375 C 3.34375 -6.070312 3.257812 -6.269531 3.09375 -6.4375 C 2.925781 -6.601562 2.726562 -6.6875 2.5 -6.6875 C 2.269531 -6.6875 2.078125 -6.601562 1.921875 -6.4375 C 1.753906 -6.269531 1.671875 -6.070312 1.671875 -5.84375 C 1.671875 -5.550781 1.789062 -5.328125 2.03125 -5.171875 C 2.269531 -5.015625 2.453125 -4.921875 2.578125 -4.890625 C 2.640625 -4.867188 2.800781 -4.820312 3.0625 -4.75 C 3.320312 -4.664062 3.597656 -4.535156 3.890625 -4.359375 C 4.171875 -4.191406 4.425781 -3.957031 4.65625 -3.65625 C 4.894531 -3.351562 5.015625 -2.96875 5.015625 -2.5 C 5.015625 -1.8125 4.769531 -1.222656 4.28125 -0.734375 C 3.78125 -0.242188 3.1875 0 2.5 0 C 1.8125 0 1.222656 -0.242188 0.734375 -0.734375 C 0.242188 -1.222656 0 -1.8125 0 -2.5 L 1.671875 -2.5 C 1.671875 -2.269531 1.753906 -2.078125 1.921875 -1.921875 C 2.078125 -1.753906 2.269531 -1.671875 2.5 -1.671875 C 2.726562 -1.671875 2.925781 -1.753906 3.09375 -1.921875 C 3.257812 -2.078125 3.34375 -2.269531 3.34375 -2.5 C 3.34375 -2.851562 3.203125 -3.082031 2.921875 -3.1875 C 2.640625 -3.289062 2.445312 -3.363281 2.34375 -3.40625 Z M 2.34375 -3.40625 "/></g></g></g><g clip-path="url(#c117b4d002)"><path fill="#ffffff" d="M 24.464844 27.851562 L 4.390625 27.851562 C 4.296875 27.851562 4.21875 27.820312 4.15625 27.753906 C 4.089844 27.691406 4.058594 27.613281 4.058594 27.519531 L 4.058594 11.929688 C 4.058594 6.226562 8.726562 1.5625 14.425781 1.5625 C 20.128906 1.5625 24.796875 6.226562 24.796875 11.929688 L 24.796875 27.519531 C 24.796875 27.613281 24.761719 27.691406 24.699219 27.753906 C 24.632812 27.820312 24.554688 27.851562 24.464844 27.851562 Z M 24.464844 27.851562 " fill-opacity="1" fill-rule="nonzero"/><path fill="#ffffff" d="M 24.464844 27.90625 L 4.390625 27.90625 C 4.285156 27.90625 4.191406 27.871094 4.117188 27.792969 C 4.042969 27.71875 4.003906 27.628906 4.003906 27.519531 L 4.003906 11.929688 C 4 10.523438 4.277344 9.175781 4.828125 7.882812 C 5.359375 6.632812 6.105469 5.527344 7.066406 4.570312 C 8.027344 3.609375 9.128906 2.863281 10.378906 2.328125 C 11.671875 1.78125 13.023438 1.507812 14.425781 1.507812 C 15.832031 1.507812 17.179688 1.78125 18.472656 2.328125 C 19.722656 2.863281 20.828125 3.609375 21.789062 4.570312 C 22.75 5.527344 23.496094 6.632812 24.027344 7.882812 C 24.578125 9.175781 24.851562 10.523438 24.851562 11.929688 L 24.851562 27.519531 C 24.851562 27.628906 24.8125 27.71875 24.738281 27.792969 C 24.660156 27.871094 24.570312 27.90625 24.464844 27.90625 Z M 14.425781 1.617188 C 13.035156 1.613281 11.703125 1.886719 10.421875 2.429688 C 9.1875 2.957031 8.09375 3.695312 7.144531 4.644531 C 6.191406 5.597656 5.453125 6.6875 4.925781 7.925781 C 4.382812 9.203125 4.113281 10.539062 4.113281 11.929688 L 4.113281 27.519531 C 4.113281 27.597656 4.140625 27.664062 4.195312 27.714844 C 4.25 27.769531 4.3125 27.796875 4.390625 27.796875 L 24.464844 27.796875 C 24.539062 27.796875 24.605469 27.769531 24.660156 27.714844 C 24.714844 27.664062 24.738281 27.597656 24.738281 27.519531 L 24.738281 11.929688 C 24.742188 10.539062 24.472656 9.203125 23.925781 7.925781 C 23.398438 6.691406 22.660156 5.597656 21.710938 4.644531 C 20.761719 3.695312 19.667969 2.957031 18.433594 2.429688 C 17.152344 1.886719 15.816406 1.613281 14.425781 1.617188 Z M 14.425781 1.617188 " fill-opacity="1" fill-rule="nonzero"/></g><g clip-path="url(#8d79add16d)"><path fill="#ffffff" d="M 23.960938 27.328125 L 4.890625 27.328125 C 4.804688 27.324219 4.730469 27.296875 4.667969 27.234375 C 4.609375 27.171875 4.578125 27.097656 4.578125 27.011719 L 4.578125 11.9375 C 4.578125 6.519531 9.011719 2.085938 14.425781 2.085938 C 19.84375 2.085938 24.277344 6.519531 24.277344 11.9375 L 24.277344 27.011719 C 24.273438 27.101562 24.246094 27.171875 24.183594 27.234375 C 24.121094 27.296875 24.046875 27.324219 23.960938 27.328125 Z M 23.960938 27.328125 " fill-opacity="1" fill-rule="nonzero"/><path fill="#ffffff" d="M 23.960938 27.382812 L 4.890625 27.382812 C 4.789062 27.382812 4.703125 27.34375 4.628906 27.273438 C 4.558594 27.199219 4.523438 27.113281 4.523438 27.011719 L 4.523438 11.9375 C 4.519531 10.601562 4.78125 9.320312 5.304688 8.089844 C 5.808594 6.902344 6.519531 5.855469 7.433594 4.941406 C 8.34375 4.03125 9.394531 3.320312 10.582031 2.8125 C 11.808594 2.292969 13.09375 2.03125 14.425781 2.03125 C 15.761719 2.03125 17.042969 2.292969 18.273438 2.8125 C 19.460938 3.320312 20.511719 4.03125 21.421875 4.941406 C 22.335938 5.855469 23.042969 6.902344 23.550781 8.089844 C 24.074219 9.320312 24.332031 10.601562 24.332031 11.9375 L 24.332031 27.011719 C 24.332031 27.113281 24.292969 27.203125 24.222656 27.273438 C 24.152344 27.34375 24.0625 27.382812 23.960938 27.382812 Z M 14.425781 2.144531 C 13.105469 2.140625 11.835938 2.398438 10.621094 2.914062 C 9.449219 3.414062 8.410156 4.117188 7.507812 5.019531 C 6.605469 5.921875 5.90625 6.960938 5.40625 8.136719 C 4.886719 9.351562 4.632812 10.617188 4.632812 11.9375 L 4.632812 27.015625 C 4.632812 27.085938 4.660156 27.148438 4.710938 27.199219 C 4.761719 27.25 4.820312 27.273438 4.894531 27.273438 L 23.960938 27.273438 C 24.035156 27.273438 24.09375 27.25 24.144531 27.199219 C 24.195312 27.148438 24.222656 27.085938 24.222656 27.015625 L 24.222656 11.9375 C 24.222656 10.617188 23.964844 9.347656 23.449219 8.132812 C 22.949219 6.960938 22.246094 5.921875 21.34375 5.019531 C 20.441406 4.117188 19.402344 3.417969 18.230469 2.914062 C 17.015625 2.398438 15.746094 2.140625 14.425781 2.144531 Z M 14.425781 2.144531 " fill-opacity="1" fill-rule="nonzero"/></g><g fill="#ffffff" fill-opacity="1"><g transform="translate(6.202728, 13.389638)"><g><path d="M -0.078125 -0.625 L -0.0625 -0.5 L -0.453125 -0.359375 L -0.03125 -0.296875 L -0.03125 -0.1875 L -0.625 0.078125 L -0.640625 -0.0625 L -0.25 -0.21875 L -0.671875 -0.25 L -0.6875 -0.390625 L -0.296875 -0.53125 L -0.703125 -0.59375 L -0.71875 -0.71875 Z M -0.078125 -0.625 "/></g></g></g><g fill="#ffffff" fill-opacity="1"><g transform="translate(6.084389, 12.124405)"><g><path d="M 0 -0.53125 L 0 -0.390625 L -0.28125 -0.390625 L -0.28125 -0.15625 L 0 -0.15625 L 0 -0.015625 L -0.625 -0.015625 L -0.625 -0.15625 L -0.390625 -0.15625 L -0.390625 -0.390625 L -0.625 -0.390625 L -0.625 -0.53125 Z M 0 -0.53125 "/></g></g></g><g fill="#ffffff" fill-opacity="1"><g transform="translate(6.12604, 11.104996)"><g><path d="M -0.453125 -0.546875 L -0.5 -0.203125 L -0.359375 -0.1875 L -0.3125 -0.5 L -0.203125 -0.484375 L -0.25 -0.171875 L -0.09375 -0.15625 L -0.046875 -0.515625 L 0.0625 -0.5 L 0 -0.015625 L -0.625 -0.09375 L -0.5625 -0.5625 Z M -0.453125 -0.546875 "/></g></g></g><g fill="#ffffff" fill-opacity="1"><g transform="translate(6.278797, 10.148436)"><g><path d="M -0.46875 -0.265625 L -0.296875 -0.21875 L -0.25 -0.375 C -0.238281 -0.40625 -0.238281 -0.429688 -0.25 -0.453125 C -0.269531 -0.472656 -0.296875 -0.488281 -0.328125 -0.5 C -0.347656 -0.5 -0.363281 -0.492188 -0.375 -0.484375 C -0.394531 -0.472656 -0.410156 -0.453125 -0.421875 -0.421875 Z M 0.125 -0.5 L 0.09375 -0.375 L -0.0625 -0.40625 C -0.09375 -0.414062 -0.117188 -0.414062 -0.140625 -0.40625 C -0.160156 -0.394531 -0.175781 -0.367188 -0.1875 -0.328125 L -0.21875 -0.203125 L 0.03125 -0.140625 L 0 -0.015625 L -0.609375 -0.171875 L -0.53125 -0.484375 C -0.519531 -0.503906 -0.503906 -0.523438 -0.484375 -0.546875 C -0.472656 -0.566406 -0.457031 -0.582031 -0.4375 -0.59375 C -0.414062 -0.613281 -0.394531 -0.625 -0.375 -0.625 C -0.351562 -0.632812 -0.328125 -0.632812 -0.296875 -0.625 C -0.265625 -0.613281 -0.234375 -0.597656 -0.203125 -0.578125 C -0.179688 -0.554688 -0.171875 -0.53125 -0.171875 -0.5 C -0.148438 -0.519531 -0.132812 -0.535156 -0.125 -0.546875 C -0.113281 -0.554688 -0.0859375 -0.554688 -0.046875 -0.546875 Z M 0.125 -0.5 "/></g></g></g><g fill="#ffffff" fill-opacity="1"><g transform="translate(6.557021, 9.175097)"><g><path d="M -0.3125 -0.640625 L -0.4375 -0.3125 L -0.296875 -0.265625 L -0.1875 -0.5625 L -0.09375 -0.515625 L -0.203125 -0.21875 L -0.0625 -0.171875 L 0.078125 -0.515625 L 0.1875 -0.46875 L 0 -0.015625 L -0.578125 -0.234375 L -0.40625 -0.671875 Z M -0.3125 -0.640625 "/></g></g></g><g fill="#ffffff" fill-opacity="1"><g transform="translate(6.935229, 8.279383)"><g/></g></g><g fill="#ffffff" fill-opacity="1"><g transform="translate(7.268271, 7.655105)"><g><path d="M -0.359375 -0.609375 C -0.304688 -0.679688 -0.242188 -0.722656 -0.171875 -0.734375 C -0.0976562 -0.753906 -0.015625 -0.734375 0.078125 -0.671875 C 0.109375 -0.660156 0.132812 -0.640625 0.15625 -0.609375 C 0.175781 -0.578125 0.191406 -0.546875 0.203125 -0.515625 C 0.222656 -0.484375 0.234375 -0.445312 0.234375 -0.40625 C 0.234375 -0.375 0.222656 -0.34375 0.203125 -0.3125 C 0.234375 -0.289062 0.257812 -0.28125 0.28125 -0.28125 C 0.3125 -0.289062 0.332031 -0.300781 0.34375 -0.3125 C 0.34375 -0.320312 0.335938 -0.335938 0.328125 -0.359375 C 0.328125 -0.390625 0.316406 -0.410156 0.296875 -0.421875 L 0.359375 -0.515625 C 0.378906 -0.503906 0.398438 -0.484375 0.421875 -0.453125 C 0.441406 -0.429688 0.453125 -0.40625 0.453125 -0.375 C 0.453125 -0.351562 0.445312 -0.328125 0.4375 -0.296875 C 0.4375 -0.273438 0.429688 -0.253906 0.421875 -0.234375 C 0.410156 -0.210938 0.390625 -0.195312 0.359375 -0.1875 C 0.335938 -0.175781 0.316406 -0.164062 0.296875 -0.15625 C 0.285156 -0.15625 0.265625 -0.15625 0.234375 -0.15625 C 0.210938 -0.15625 0.191406 -0.164062 0.171875 -0.1875 L 0.15625 -0.1875 C 0.101562 -0.144531 0.046875 -0.117188 -0.015625 -0.109375 C -0.078125 -0.0976562 -0.15625 -0.125 -0.25 -0.1875 C -0.289062 -0.21875 -0.328125 -0.25 -0.359375 -0.28125 C -0.390625 -0.3125 -0.410156 -0.34375 -0.421875 -0.375 C -0.429688 -0.414062 -0.429688 -0.453125 -0.421875 -0.484375 C -0.410156 -0.523438 -0.390625 -0.566406 -0.359375 -0.609375 Z M -0.171875 -0.28125 C -0.109375 -0.25 -0.0546875 -0.234375 -0.015625 -0.234375 C 0.0234375 -0.242188 0.0625 -0.269531 0.09375 -0.3125 C 0.101562 -0.320312 0.109375 -0.335938 0.109375 -0.359375 C 0.117188 -0.390625 0.117188 -0.414062 0.109375 -0.4375 C 0.109375 -0.457031 0.0976562 -0.476562 0.078125 -0.5 C 0.0664062 -0.53125 0.046875 -0.550781 0.015625 -0.5625 C -0.0546875 -0.613281 -0.113281 -0.632812 -0.15625 -0.625 C -0.195312 -0.625 -0.234375 -0.601562 -0.265625 -0.5625 C -0.296875 -0.519531 -0.304688 -0.472656 -0.296875 -0.421875 C -0.285156 -0.378906 -0.242188 -0.332031 -0.171875 -0.28125 Z M -0.171875 -0.28125 "/></g></g></g><g fill="#ffffff" fill-opacity="1"><g transform="translate(7.89434, 6.752922)"><g><path d="M 0.171875 -0.546875 C 0.234375 -0.492188 0.265625 -0.4375 0.265625 -0.375 C 0.265625 -0.3125 0.238281 -0.25 0.1875 -0.1875 C 0.132812 -0.132812 0.078125 -0.101562 0.015625 -0.09375 C -0.0351562 -0.0820312 -0.0859375 -0.0976562 -0.140625 -0.140625 L -0.453125 -0.421875 L -0.375 -0.53125 L -0.078125 -0.265625 C -0.046875 -0.234375 -0.015625 -0.21875 0.015625 -0.21875 C 0.046875 -0.226562 0.0703125 -0.242188 0.09375 -0.265625 C 0.144531 -0.328125 0.140625 -0.382812 0.078125 -0.4375 L -0.21875 -0.703125 L -0.125 -0.8125 Z M 0.171875 -0.546875 "/></g></g></g><g fill="#ffffff" fill-opacity="1"><g transform="translate(8.574312, 5.995062)"><g><path d="M -0.109375 -0.5625 L 0 -0.3125 L 0.125 -0.421875 Z M 0.4375 -0.40625 L 0.328125 -0.3125 L 0.234375 -0.375 L 0.0625 -0.21875 L 0.109375 -0.09375 L 0 0 L -0.265625 -0.59375 L -0.140625 -0.703125 Z M 0.4375 -0.40625 "/></g></g></g><g fill="#ffffff" fill-opacity="1"><g transform="translate(9.387019, 5.294635)"><g><path d="M 0.0625 -0.1875 L 0.3125 -0.359375 L 0.375 -0.265625 L 0.015625 -0.015625 L -0.34375 -0.53125 L -0.234375 -0.609375 Z M 0.0625 -0.1875 "/></g></g></g><g fill="#ffffff" fill-opacity="1"><g transform="translate(10.171537, 4.769819)"><g><path d="M 0.140625 -0.078125 L 0.015625 -0.015625 L -0.296875 -0.5625 L -0.171875 -0.625 Z M 0.140625 -0.078125 "/></g></g></g><g fill="#ffffff" fill-opacity="1"><g transform="translate(10.740754, 4.45692)"><g><path d="M 0.25 -0.6875 L 0.078125 -0.609375 L 0.296875 -0.140625 L 0.171875 -0.078125 L -0.046875 -0.546875 L -0.21875 -0.46875 L -0.265625 -0.5625 L 0.203125 -0.78125 Z M 0.25 -0.6875 "/></g></g></g><g fill="#ffffff" fill-opacity="1"><g transform="translate(11.651323, 4.072208)"><g><path d="M 0.25 -0.328125 L 0.328125 -0.109375 L 0.203125 -0.0625 L 0.125 -0.28125 L -0.1875 -0.59375 L -0.03125 -0.640625 L 0.15625 -0.4375 L 0.203125 -0.71875 L 0.34375 -0.765625 Z M 0.25 -0.328125 "/></g></g></g><g fill="#ffffff" fill-opacity="1"><g transform="translate(12.650177, 3.791649)"><g/></g></g><g fill="#ffffff" fill-opacity="1"><g transform="translate(13.345955, 3.664397)"><g><path d="M 0.625 -0.0625 L 0.5 -0.046875 L 0.46875 -0.46875 L 0.390625 -0.03125 L 0.265625 -0.03125 L 0.109375 -0.4375 L 0.140625 -0.015625 L 0.015625 0 L -0.046875 -0.625 L 0.15625 -0.640625 L 0.3125 -0.203125 L 0.375 -0.671875 L 0.5625 -0.6875 Z M 0.625 -0.0625 "/></g></g></g><g fill="#ffffff" fill-opacity="1"><g transform="translate(14.464615, 3.59577)"><g><path d="M 0.5 -0.5 L 0.15625 -0.515625 L 0.15625 -0.375 L 0.46875 -0.359375 L 0.46875 -0.25 L 0.15625 -0.265625 L 0.140625 -0.109375 L 0.5 -0.09375 L 0.5 0.015625 L 0.015625 0 L 0.03125 -0.625 L 0.5 -0.609375 Z M 0.5 -0.5 "/></g></g></g><g fill="#ffffff" fill-opacity="1"><g transform="translate(15.431937, 3.655406)"><g><path d="M 0.5625 -0.4375 L 0.21875 -0.5 L 0.203125 -0.359375 L 0.515625 -0.3125 L 0.5 -0.203125 L 0.1875 -0.25 L 0.15625 -0.09375 L 0.515625 -0.03125 L 0.5 0.078125 L 0.015625 0 L 0.109375 -0.625 L 0.578125 -0.546875 Z M 0.5625 -0.4375 "/></g></g></g><g fill="#ffffff" fill-opacity="1"><g transform="translate(16.385664, 3.826361)"><g><path d="M 0.640625 -0.359375 L 0.453125 -0.40625 L 0.3125 0.09375 L 0.1875 0.046875 L 0.328125 -0.453125 L 0.140625 -0.5 L 0.171875 -0.609375 L 0.671875 -0.46875 Z M 0.640625 -0.359375 "/></g></g></g><g fill="#ffffff" fill-opacity="1"><g transform="translate(17.331914, 4.113667)"><g><path d="M 0.515625 -0.265625 C 0.523438 -0.296875 0.519531 -0.320312 0.5 -0.34375 C 0.488281 -0.375 0.46875 -0.394531 0.4375 -0.40625 C 0.40625 -0.414062 0.375 -0.421875 0.34375 -0.421875 C 0.320312 -0.421875 0.304688 -0.40625 0.296875 -0.375 C 0.296875 -0.363281 0.296875 -0.34375 0.296875 -0.3125 C 0.304688 -0.289062 0.328125 -0.273438 0.359375 -0.265625 C 0.390625 -0.242188 0.410156 -0.226562 0.421875 -0.21875 C 0.441406 -0.207031 0.457031 -0.195312 0.46875 -0.1875 C 0.476562 -0.175781 0.488281 -0.164062 0.5 -0.15625 C 0.507812 -0.144531 0.519531 -0.132812 0.53125 -0.125 C 0.550781 -0.101562 0.5625 -0.0820312 0.5625 -0.0625 C 0.570312 -0.0390625 0.570312 -0.015625 0.5625 0.015625 C 0.539062 0.046875 0.519531 0.0703125 0.5 0.09375 C 0.488281 0.113281 0.46875 0.125 0.4375 0.125 C 0.40625 0.132812 0.375 0.140625 0.34375 0.140625 C 0.3125 0.140625 0.285156 0.132812 0.265625 0.125 C 0.0976562 0.0507812 0.0351562 -0.046875 0.078125 -0.171875 L 0.1875 -0.125 C 0.175781 -0.09375 0.175781 -0.0664062 0.1875 -0.046875 C 0.207031 -0.0234375 0.238281 -0.0078125 0.28125 0 C 0.300781 0.0078125 0.316406 0.015625 0.328125 0.015625 C 0.335938 0.0234375 0.347656 0.03125 0.359375 0.03125 C 0.378906 0.03125 0.394531 0.0234375 0.40625 0.015625 C 0.414062 0.00390625 0.421875 -0.00390625 0.421875 -0.015625 C 0.429688 -0.046875 0.414062 -0.0820312 0.375 -0.125 C 0.320312 -0.15625 0.28125 -0.179688 0.25 -0.203125 C 0.226562 -0.222656 0.210938 -0.234375 0.203125 -0.234375 C 0.191406 -0.253906 0.179688 -0.28125 0.171875 -0.3125 C 0.160156 -0.34375 0.164062 -0.378906 0.1875 -0.421875 C 0.195312 -0.441406 0.210938 -0.457031 0.234375 -0.46875 C 0.253906 -0.488281 0.273438 -0.5 0.296875 -0.5 C 0.316406 -0.507812 0.335938 -0.515625 0.359375 -0.515625 C 0.390625 -0.515625 0.425781 -0.507812 0.46875 -0.5 C 0.5 -0.488281 0.523438 -0.472656 0.546875 -0.453125 C 0.578125 -0.429688 0.597656 -0.40625 0.609375 -0.375 C 0.628906 -0.351562 0.640625 -0.328125 0.640625 -0.296875 C 0.648438 -0.273438 0.648438 -0.25 0.640625 -0.21875 Z M 0.515625 -0.265625 "/></g></g></g><g fill="#ffffff" fill-opacity="1"><g transform="translate(18.247269, 4.519712)"><g/></g></g><g fill="#ffffff" fill-opacity="1"><g transform="translate(18.865197, 4.867411)"><g><path d="M 0.6875 -0.15625 L 0.390625 -0.34375 L 0.3125 -0.234375 L 0.578125 -0.0625 L 0.515625 0.03125 L 0.25 -0.140625 L 0.171875 -0.015625 L 0.484375 0.1875 L 0.421875 0.28125 L 0.015625 0.015625 L 0.359375 -0.5 L 0.75 -0.25 Z M 0.6875 -0.15625 "/></g></g></g><g fill="#ffffff" fill-opacity="1"><g transform="translate(19.655612, 5.42688)"><g><path d="M 0.484375 -0.015625 L 0.421875 0.359375 L 0.3125 0.265625 L 0.359375 0.015625 L 0.125 0.109375 L 0 0 L 0.359375 -0.109375 L 0.421875 -0.453125 L 0.53125 -0.359375 L 0.5 -0.125 L 0.703125 -0.21875 L 0.828125 -0.109375 Z M 0.484375 -0.015625 "/></g></g></g><g fill="#ffffff" fill-opacity="1"><g transform="translate(20.423115, 6.123656)"><g><path d="M 0.609375 0.046875 C 0.617188 0.015625 0.625 -0.015625 0.625 -0.046875 C 0.625 -0.078125 0.613281 -0.101562 0.59375 -0.125 C 0.570312 -0.144531 0.550781 -0.160156 0.53125 -0.171875 C 0.519531 -0.179688 0.5 -0.179688 0.46875 -0.171875 C 0.445312 -0.171875 0.421875 -0.160156 0.390625 -0.140625 C 0.367188 -0.128906 0.347656 -0.113281 0.328125 -0.09375 C 0.304688 -0.0703125 0.285156 -0.0507812 0.265625 -0.03125 C 0.253906 -0.0078125 0.242188 0.0078125 0.234375 0.03125 C 0.234375 0.0625 0.234375 0.0859375 0.234375 0.109375 C 0.234375 0.128906 0.242188 0.144531 0.265625 0.15625 C 0.285156 0.1875 0.3125 0.203125 0.34375 0.203125 C 0.375 0.203125 0.410156 0.195312 0.453125 0.1875 L 0.546875 0.28125 C 0.503906 0.300781 0.46875 0.3125 0.4375 0.3125 C 0.414062 0.320312 0.390625 0.320312 0.359375 0.3125 C 0.328125 0.3125 0.296875 0.304688 0.265625 0.296875 C 0.234375 0.285156 0.207031 0.265625 0.1875 0.234375 C 0.15625 0.203125 0.132812 0.171875 0.125 0.140625 C 0.113281 0.109375 0.109375 0.0703125 0.109375 0.03125 C 0.117188 -0.0078125 0.128906 -0.046875 0.140625 -0.078125 C 0.160156 -0.109375 0.195312 -0.144531 0.25 -0.1875 C 0.289062 -0.226562 0.328125 -0.253906 0.359375 -0.265625 C 0.398438 -0.285156 0.4375 -0.296875 0.46875 -0.296875 C 0.5 -0.304688 0.53125 -0.300781 0.5625 -0.28125 C 0.601562 -0.269531 0.640625 -0.242188 0.671875 -0.203125 C 0.691406 -0.179688 0.707031 -0.15625 0.71875 -0.125 C 0.738281 -0.09375 0.75 -0.0625 0.75 -0.03125 C 0.757812 0 0.753906 0.03125 0.734375 0.0625 C 0.722656 0.09375 0.710938 0.117188 0.703125 0.140625 Z M 0.609375 0.046875 "/></g></g></g><g fill="#ffffff" fill-opacity="1"><g transform="translate(21.102077, 6.91773)"><g><path d="M 0.1875 0.0625 L 0.359375 0.3125 L 0.265625 0.375 L 0.015625 0.015625 L 0.53125 -0.34375 L 0.609375 -0.234375 Z M 0.1875 0.0625 "/></g></g></g><g fill="#ffffff" fill-opacity="1"><g transform="translate(21.625767, 7.697754)"><g><path d="M 0.4375 0.359375 C 0.363281 0.398438 0.300781 0.40625 0.25 0.375 C 0.195312 0.351562 0.148438 0.304688 0.109375 0.234375 C 0.078125 0.171875 0.0625 0.109375 0.0625 0.046875 C 0.0703125 -0.00390625 0.109375 -0.046875 0.171875 -0.078125 L 0.546875 -0.28125 L 0.625 -0.15625 L 0.265625 0.03125 C 0.234375 0.0507812 0.210938 0.0703125 0.203125 0.09375 C 0.191406 0.125 0.191406 0.15625 0.203125 0.1875 C 0.242188 0.257812 0.300781 0.273438 0.375 0.234375 L 0.734375 0.046875 L 0.796875 0.171875 Z M 0.4375 0.359375 "/></g></g></g><g fill="#ffffff" fill-opacity="1"><g transform="translate(22.089513, 8.605096)"><g><path d="M 0.546875 0.1875 C 0.578125 0.164062 0.59375 0.140625 0.59375 0.109375 C 0.601562 0.0859375 0.601562 0.0625 0.59375 0.03125 C 0.582031 0 0.566406 -0.0195312 0.546875 -0.03125 C 0.523438 -0.0507812 0.5 -0.0546875 0.46875 -0.046875 C 0.457031 -0.0351562 0.445312 -0.0195312 0.4375 0 C 0.425781 0.0195312 0.429688 0.046875 0.453125 0.078125 C 0.453125 0.109375 0.453125 0.128906 0.453125 0.140625 C 0.453125 0.160156 0.453125 0.179688 0.453125 0.203125 C 0.453125 0.222656 0.453125 0.238281 0.453125 0.25 C 0.460938 0.257812 0.46875 0.269531 0.46875 0.28125 C 0.46875 0.320312 0.457031 0.347656 0.4375 0.359375 C 0.414062 0.378906 0.390625 0.398438 0.359375 0.421875 C 0.328125 0.429688 0.300781 0.4375 0.28125 0.4375 C 0.257812 0.4375 0.234375 0.425781 0.203125 0.40625 C 0.179688 0.394531 0.160156 0.375 0.140625 0.34375 C 0.117188 0.320312 0.101562 0.296875 0.09375 0.265625 C 0.0195312 0.0976562 0.046875 -0.0078125 0.171875 -0.0625 L 0.21875 0.046875 C 0.1875 0.0664062 0.171875 0.0859375 0.171875 0.109375 C 0.171875 0.140625 0.175781 0.175781 0.1875 0.21875 C 0.195312 0.238281 0.203125 0.253906 0.203125 0.265625 C 0.210938 0.273438 0.222656 0.28125 0.234375 0.28125 C 0.242188 0.289062 0.253906 0.296875 0.265625 0.296875 C 0.273438 0.296875 0.285156 0.296875 0.296875 0.296875 C 0.328125 0.285156 0.34375 0.25 0.34375 0.1875 C 0.332031 0.132812 0.328125 0.0859375 0.328125 0.046875 C 0.328125 0.015625 0.328125 0 0.328125 0 C 0.328125 -0.0390625 0.332031 -0.0703125 0.34375 -0.09375 C 0.351562 -0.113281 0.378906 -0.132812 0.421875 -0.15625 C 0.441406 -0.164062 0.460938 -0.164062 0.484375 -0.15625 C 0.515625 -0.15625 0.539062 -0.144531 0.5625 -0.125 C 0.59375 -0.113281 0.613281 -0.0976562 0.625 -0.078125 C 0.644531 -0.0664062 0.664062 -0.0390625 0.6875 0 C 0.695312 0.03125 0.703125 0.0625 0.703125 0.09375 C 0.703125 0.125 0.695312 0.148438 0.6875 0.171875 C 0.6875 0.203125 0.675781 0.226562 0.65625 0.25 C 0.644531 0.269531 0.625 0.289062 0.59375 0.3125 Z M 0.546875 0.1875 "/></g></g></g><g fill="#ffffff" fill-opacity="1"><g transform="translate(22.431238, 9.547133)"><g><path d="M 0.046875 0.15625 L 0 0.015625 L 0.59375 -0.15625 L 0.640625 -0.015625 Z M 0.046875 0.15625 "/></g></g></g><g fill="#ffffff" fill-opacity="1"><g transform="translate(22.597585, 10.174573)"><g><path d="M 0.0625 0.34375 L 0.046875 0.21875 L 0.609375 -0.109375 L 0.640625 0.03125 L 0.234375 0.25 L 0.6875 0.296875 L 0.703125 0.421875 Z M 0.0625 0.34375 "/></g></g></g><g fill="#ffffff" fill-opacity="1"><g transform="translate(22.749551, 11.192507)"><g><path d="M 0.015625 0.15625 L 0 0.015625 L 0.625 -0.03125 L 0.640625 0.109375 Z M 0.015625 0.15625 "/></g></g></g><g fill="#ffffff" fill-opacity="1"><g transform="translate(22.78658, 11.841045)"><g><path d="M 0.5 0.53125 L 0.515625 0.34375 L 0 0.328125 L 0 0.1875 L 0.515625 0.203125 L 0.515625 0.015625 L 0.625 0.015625 L 0.609375 0.53125 Z M 0.5 0.53125 "/></g></g></g><g fill="#ffffff" fill-opacity="1"><g transform="translate(22.741363, 12.828553)"><g><path d="M 0.1875 0.375 L -0.046875 0.34375 L -0.03125 0.21875 L 0.203125 0.25 L 0.625 0.09375 L 0.609375 0.25 L 0.328125 0.328125 L 0.5625 0.5 L 0.546875 0.65625 Z M 0.1875 0.375 "/></g></g></g><g clip-path="url(#522716663b)"><path fill="#ffffff" d="M 15.421875 9.203125 L 18.367188 9.203125 C 18.5 9.203125 18.605469 9.097656 18.605469 8.964844 L 18.605469 7.222656 C 18.605469 7.09375 18.5 6.984375 18.367188 6.984375 L 15.421875 6.984375 C 15.289062 6.984375 15.183594 7.09375 15.183594 7.222656 L 15.183594 8.964844 C 15.183594 9.097656 15.289062 9.203125 15.421875 9.203125 Z M 15.65625 7.460938 L 18.128906 7.460938 L 18.128906 8.730469 L 15.65625 8.730469 Z M 13.96875 16.925781 L 15.820312 14.917969 C 15.824219 14.917969 15.824219 14.914062 15.824219 14.914062 L 16.972656 13.671875 L 18.261719 12.277344 C 18.261719 12.277344 18.261719 12.273438 18.265625 12.273438 L 20.175781 10.207031 C 20.175781 10.203125 20.175781 10.203125 20.179688 10.199219 C 20.183594 10.199219 20.183594 10.195312 20.1875 10.191406 C 20.191406 10.1875 20.191406 10.183594 20.195312 10.183594 C 20.195312 10.179688 20.199219 10.175781 20.199219 10.171875 C 20.203125 10.167969 20.203125 10.164062 20.207031 10.164062 C 20.207031 10.160156 20.210938 10.15625 20.210938 10.152344 C 20.214844 10.148438 20.214844 10.144531 20.21875 10.140625 C 20.21875 10.136719 20.21875 10.132812 20.222656 10.128906 C 20.222656 10.128906 20.222656 10.125 20.226562 10.121094 C 20.226562 10.117188 20.226562 10.113281 20.230469 10.109375 C 20.230469 10.105469 20.230469 10.101562 20.230469 10.097656 C 20.234375 10.09375 20.234375 10.089844 20.234375 10.085938 C 20.234375 10.082031 20.234375 10.078125 20.234375 10.074219 C 20.238281 10.070312 20.238281 10.066406 20.238281 10.0625 C 20.238281 10.058594 20.238281 10.054688 20.238281 10.050781 C 20.238281 10.046875 20.238281 10.046875 20.238281 10.042969 C 20.238281 10.042969 20.238281 10.042969 20.238281 10.039062 C 20.238281 10.035156 20.238281 10.03125 20.238281 10.027344 C 20.238281 10.023438 20.238281 10.019531 20.234375 10.015625 C 20.234375 10.011719 20.234375 10.007812 20.234375 10.003906 C 20.234375 10 20.234375 9.996094 20.230469 9.992188 C 20.230469 9.988281 20.230469 9.984375 20.230469 9.980469 C 20.230469 9.976562 20.226562 9.972656 20.226562 9.96875 C 20.226562 9.96875 20.222656 9.964844 20.222656 9.960938 C 20.222656 9.957031 20.21875 9.953125 20.21875 9.949219 C 20.214844 9.945312 20.214844 9.941406 20.214844 9.9375 C 20.210938 9.933594 20.210938 9.933594 20.207031 9.929688 C 20.207031 9.925781 20.203125 9.921875 20.203125 9.917969 C 20.199219 9.914062 20.199219 9.910156 20.195312 9.910156 C 20.195312 9.90625 20.191406 9.902344 20.1875 9.898438 C 20.1875 9.894531 20.183594 9.894531 20.179688 9.890625 C 20.179688 9.886719 20.175781 9.886719 20.175781 9.882812 C 20.171875 9.878906 20.167969 9.875 20.164062 9.871094 C 20.164062 9.871094 20.164062 9.871094 20.160156 9.871094 C 20.160156 9.867188 20.160156 9.867188 20.15625 9.867188 C 20.152344 9.863281 20.152344 9.859375 20.148438 9.855469 C 20.144531 9.855469 20.140625 9.851562 20.136719 9.851562 C 20.136719 9.847656 20.132812 9.847656 20.128906 9.84375 C 20.125 9.84375 20.121094 9.839844 20.117188 9.839844 C 20.113281 9.835938 20.113281 9.835938 20.109375 9.832031 C 20.105469 9.832031 20.101562 9.828125 20.097656 9.828125 C 20.09375 9.824219 20.089844 9.824219 20.085938 9.824219 C 20.082031 9.820312 20.078125 9.820312 20.074219 9.820312 C 20.074219 9.816406 20.070312 9.816406 20.066406 9.816406 C 20.0625 9.816406 20.058594 9.8125 20.054688 9.8125 C 20.050781 9.8125 20.046875 9.8125 20.042969 9.808594 C 20.039062 9.808594 20.035156 9.808594 20.03125 9.808594 C 20.027344 9.808594 20.023438 9.808594 20.019531 9.808594 C 20.015625 9.808594 20.011719 9.808594 20.007812 9.808594 C 20.003906 9.808594 20.003906 9.804688 20 9.804688 L 13.789062 9.804688 C 13.785156 9.804688 13.785156 9.808594 13.785156 9.808594 C 13.78125 9.808594 13.777344 9.808594 13.769531 9.808594 C 13.769531 9.808594 13.765625 9.808594 13.761719 9.808594 C 13.757812 9.808594 13.753906 9.808594 13.75 9.808594 C 13.746094 9.8125 13.742188 9.8125 13.738281 9.8125 C 13.734375 9.8125 13.730469 9.8125 13.726562 9.816406 C 13.722656 9.816406 13.71875 9.816406 13.714844 9.816406 C 13.710938 9.820312 13.707031 9.820312 13.703125 9.820312 C 13.699219 9.824219 13.699219 9.824219 13.695312 9.824219 C 13.691406 9.828125 13.6875 9.828125 13.683594 9.832031 C 13.679688 9.832031 13.675781 9.835938 13.671875 9.835938 C 13.671875 9.835938 13.667969 9.839844 13.664062 9.839844 C 13.660156 9.84375 13.65625 9.847656 13.652344 9.847656 C 13.652344 9.851562 13.648438 9.851562 13.644531 9.855469 C 13.640625 9.855469 13.636719 9.859375 13.632812 9.863281 C 13.628906 9.867188 13.628906 9.867188 13.625 9.871094 C 13.625 9.871094 13.621094 9.875 13.617188 9.878906 C 13.613281 9.882812 13.613281 9.882812 13.609375 9.886719 C 13.605469 9.890625 13.605469 9.894531 13.601562 9.894531 C 13.597656 9.898438 13.597656 9.902344 13.59375 9.90625 C 13.59375 9.910156 13.589844 9.910156 13.589844 9.914062 C 13.585938 9.917969 13.585938 9.921875 13.582031 9.925781 C 13.582031 9.929688 13.578125 9.933594 13.578125 9.933594 C 13.574219 9.9375 13.574219 9.941406 13.570312 9.945312 C 13.570312 9.949219 13.570312 9.953125 13.566406 9.957031 C 13.566406 9.960938 13.566406 9.964844 13.5625 9.964844 C 13.5625 9.96875 13.5625 9.972656 13.558594 9.980469 C 13.558594 9.980469 13.558594 9.984375 13.558594 9.988281 C 13.554688 9.992188 13.554688 9.996094 13.554688 10 C 13.554688 10.003906 13.554688 10.007812 13.554688 10.011719 C 13.550781 10.015625 13.550781 10.019531 13.550781 10.023438 C 13.550781 10.027344 13.550781 10.03125 13.550781 10.035156 C 13.550781 10.039062 13.550781 10.042969 13.550781 10.042969 C 13.550781 10.046875 13.550781 10.046875 13.550781 10.046875 C 13.550781 10.050781 13.550781 10.054688 13.550781 10.0625 C 13.550781 10.0625 13.550781 10.066406 13.550781 10.070312 C 13.550781 10.074219 13.554688 10.078125 13.554688 10.082031 C 13.554688 10.085938 13.554688 10.089844 13.554688 10.09375 C 13.554688 10.097656 13.558594 10.101562 13.558594 10.105469 C 13.558594 10.109375 13.558594 10.113281 13.5625 10.117188 C 13.5625 10.121094 13.5625 10.125 13.566406 10.128906 C 13.566406 10.128906 13.566406 10.132812 13.570312 10.136719 C 13.570312 10.140625 13.574219 10.144531 13.574219 10.148438 C 13.578125 10.152344 13.578125 10.15625 13.578125 10.160156 C 13.582031 10.164062 13.582031 10.164062 13.585938 10.167969 C 13.585938 10.171875 13.589844 10.175781 13.59375 10.179688 C 13.59375 10.183594 13.597656 10.183594 13.597656 10.1875 C 13.601562 10.191406 13.605469 10.195312 13.605469 10.199219 C 13.609375 10.199219 13.609375 10.199219 13.609375 10.199219 L 16.480469 13.503906 L 15.65625 14.398438 L 13.96875 12.457031 C 13.882812 12.355469 13.730469 12.347656 13.632812 12.433594 C 13.53125 12.519531 13.523438 12.667969 13.609375 12.769531 L 15.332031 14.75 L 14.519531 15.625 L 13.96875 14.992188 C 13.882812 14.890625 13.730469 14.882812 13.632812 14.96875 C 13.53125 15.054688 13.523438 15.203125 13.609375 15.304688 L 14.195312 15.976562 L 13.613281 16.609375 C 13.609375 16.609375 13.609375 16.613281 13.605469 16.617188 C 13.144531 17.175781 12.289062 17.992188 11.726562 18.109375 L 12.09375 12.882812 C 12.796875 12.773438 13.34375 12.039062 13.34375 11.152344 C 13.34375 10.226562 12.945312 9.566406 12.332031 9.433594 L 12.34375 9.308594 C 12.347656 9.261719 12.382812 8.925781 12.355469 8.523438 C 12.320312 7.921875 12.175781 7.480469 11.921875 7.210938 C 11.734375 7.007812 11.480469 6.90625 11.191406 6.917969 C 11.191406 6.917969 11.1875 6.917969 11.183594 6.917969 C 10.773438 6.917969 10.457031 7.023438 10.246094 7.234375 C 10 7.480469 9.996094 7.765625 9.996094 7.796875 C 9.996094 7.929688 10.101562 8.03125 10.234375 8.03125 C 10.367188 8.03125 10.472656 7.925781 10.472656 7.796875 C 10.472656 7.792969 10.480469 7.675781 10.582031 7.574219 C 10.699219 7.453125 10.90625 7.390625 11.183594 7.390625 C 11.183594 7.390625 11.1875 7.390625 11.1875 7.390625 C 11.191406 7.390625 11.191406 7.390625 11.195312 7.390625 C 11.355469 7.382812 11.476562 7.429688 11.574219 7.535156 C 11.933594 7.917969 11.910156 8.910156 11.867188 9.261719 C 11.867188 9.265625 11.867188 9.269531 11.867188 9.273438 L 11.199219 18.859375 L 10.535156 9.589844 C 10.523438 9.457031 10.410156 9.359375 10.28125 9.367188 C 10.148438 9.378906 10.050781 9.492188 10.058594 9.621094 L 10.359375 13.800781 C 9.316406 13.949219 8.59375 14.945312 8.660156 16.195312 C 8.726562 17.425781 9.605469 18.359375 10.6875 18.382812 L 10.945312 22.011719 C 10.957031 22.136719 11.058594 22.230469 11.183594 22.230469 C 11.191406 22.230469 11.195312 22.230469 11.199219 22.230469 C 11.207031 22.230469 11.210938 22.230469 11.21875 22.230469 C 11.339844 22.230469 11.445312 22.136719 11.453125 22.011719 L 11.695312 18.59375 C 12.636719 18.492188 13.804688 17.121094 13.96875 16.925781 Z M 18.09375 11.757812 L 16.8125 10.28125 L 19.457031 10.28125 Z M 14.308594 10.28125 L 16.183594 10.28125 L 17.769531 12.109375 L 16.804688 13.152344 Z M 12.867188 11.152344 C 12.867188 11.753906 12.550781 12.257812 12.125 12.386719 L 12.300781 9.917969 C 12.714844 10.058594 12.867188 10.644531 12.867188 11.152344 Z M 9.136719 16.171875 C 9.109375 15.664062 9.238281 15.191406 9.5 14.835938 C 9.726562 14.527344 10.035156 14.335938 10.394531 14.277344 L 10.652344 17.90625 C 9.839844 17.859375 9.1875 17.128906 9.136719 16.171875 Z M 20.238281 18.984375 C 20.238281 19.113281 20.132812 19.21875 20 19.21875 L 13.789062 19.21875 C 13.65625 19.21875 13.550781 19.113281 13.550781 18.984375 C 13.550781 18.972656 13.550781 18.964844 13.550781 18.953125 C 13.542969 18.886719 13.5625 18.816406 13.613281 18.761719 L 19.824219 12.039062 C 19.914062 11.941406 20.066406 11.9375 20.160156 12.023438 C 20.257812 12.113281 20.265625 12.265625 20.175781 12.359375 L 14.277344 18.746094 L 15.828125 18.746094 L 19.824219 14.414062 C 19.914062 14.320312 20.066406 14.3125 20.160156 14.402344 C 20.257812 14.492188 20.265625 14.640625 20.175781 14.738281 L 16.472656 18.746094 L 18.140625 18.746094 L 19.824219 16.917969 C 19.914062 16.824219 20.066406 16.816406 20.160156 16.90625 C 20.257812 16.996094 20.265625 17.144531 20.175781 17.242188 L 18.785156 18.746094 L 20 18.746094 C 20.132812 18.746094 20.238281 18.851562 20.238281 18.984375 Z M 18.367188 20.011719 L 15.421875 20.011719 C 15.289062 20.011719 15.183594 20.117188 15.183594 20.25 L 15.183594 21.992188 C 15.183594 22.125 15.289062 22.230469 15.421875 22.230469 L 18.367188 22.230469 C 18.5 22.230469 18.605469 22.125 18.605469 21.992188 L 18.605469 20.25 C 18.605469 20.117188 18.5 20.011719 18.367188 20.011719 Z M 18.128906 21.757812 L 15.65625 21.757812 L 15.65625 20.488281 L 18.128906 20.488281 Z M 9.140625 8.855469 C 9.097656 8.730469 9.164062 8.597656 9.289062 8.550781 C 9.328125 8.539062 10.179688 8.242188 10.933594 8.433594 L 10.933594 8.347656 C 10.933594 8.21875 11.042969 8.109375 11.171875 8.109375 C 11.304688 8.109375 11.410156 8.21875 11.410156 8.347656 L 11.410156 9.203125 C 11.410156 9.335938 11.304688 9.441406 11.171875 9.441406 C 11.042969 9.441406 10.933594 9.335938 10.933594 9.203125 L 10.933594 8.929688 C 10.636719 8.824219 10.285156 8.835938 10.027344 8.871094 C 9.695312 8.914062 9.449219 9 9.445312 9 C 9.417969 9.011719 9.390625 9.015625 9.367188 9.015625 C 9.269531 9.015625 9.175781 8.953125 9.140625 8.855469 Z M 9.140625 8.855469 " fill-opacity="1" fill-rule="nonzero"/></g><g fill="#ffffff" fill-opacity="1"><g transform="translate(5.455117, 25.030236)"><g><path d="M 0.40625 -0.375 C 0.40625 -0.394531 0.398438 -0.410156 0.390625 -0.421875 C 0.378906 -0.429688 0.367188 -0.441406 0.359375 -0.453125 C 0.359375 -0.460938 0.347656 -0.46875 0.328125 -0.46875 C 0.316406 -0.476562 0.300781 -0.484375 0.28125 -0.484375 C 0.257812 -0.484375 0.238281 -0.476562 0.21875 -0.46875 C 0.207031 -0.457031 0.191406 -0.441406 0.171875 -0.421875 C 0.160156 -0.398438 0.148438 -0.378906 0.140625 -0.359375 C 0.128906 -0.335938 0.125 -0.304688 0.125 -0.265625 C 0.125 -0.234375 0.128906 -0.207031 0.140625 -0.1875 C 0.148438 -0.164062 0.160156 -0.144531 0.171875 -0.125 C 0.191406 -0.113281 0.207031 -0.101562 0.21875 -0.09375 C 0.238281 -0.0820312 0.257812 -0.078125 0.28125 -0.078125 C 0.300781 -0.078125 0.320312 -0.078125 0.34375 -0.078125 C 0.363281 -0.0859375 0.375 -0.0976562 0.375 -0.109375 C 0.382812 -0.117188 0.394531 -0.132812 0.40625 -0.15625 C 0.414062 -0.175781 0.421875 -0.195312 0.421875 -0.21875 L 0.296875 -0.21875 L 0.296875 -0.296875 L 0.53125 -0.296875 L 0.53125 0.03125 C 0.53125 0.0625 0.535156 0.078125 0.546875 0.078125 C 0.554688 0.0859375 0.570312 0.09375 0.59375 0.09375 C 0.613281 0.09375 0.628906 0.0859375 0.640625 0.078125 C 0.648438 0.0664062 0.65625 0.046875 0.65625 0.015625 L 0.75 0.015625 C 0.75 0.046875 0.742188 0.0703125 0.734375 0.09375 C 0.722656 0.113281 0.707031 0.128906 0.6875 0.140625 C 0.675781 0.160156 0.660156 0.175781 0.640625 0.1875 C 0.628906 0.195312 0.609375 0.203125 0.578125 0.203125 C 0.554688 0.203125 0.535156 0.195312 0.515625 0.1875 C 0.503906 0.175781 0.488281 0.160156 0.46875 0.140625 C 0.445312 0.128906 0.429688 0.113281 0.421875 0.09375 C 0.421875 0.0820312 0.421875 0.0625 0.421875 0.03125 L 0.421875 -0.046875 C 0.398438 -0.0234375 0.378906 -0.0078125 0.359375 0 C 0.335938 0.0078125 0.304688 0.015625 0.265625 0.015625 C 0.234375 0.015625 0.195312 0.0078125 0.15625 0 C 0.125 -0.0195312 0.0976562 -0.0390625 0.078125 -0.0625 C 0.0546875 -0.09375 0.0390625 -0.125 0.03125 -0.15625 C 0.0195312 -0.195312 0.015625 -0.238281 0.015625 -0.28125 C 0.015625 -0.320312 0.0195312 -0.359375 0.03125 -0.390625 C 0.0390625 -0.429688 0.0546875 -0.460938 0.078125 -0.484375 C 0.0976562 -0.515625 0.125 -0.535156 0.15625 -0.546875 C 0.195312 -0.566406 0.238281 -0.578125 0.28125 -0.578125 C 0.320312 -0.578125 0.351562 -0.570312 0.375 -0.5625 C 0.40625 -0.550781 0.429688 -0.535156 0.453125 -0.515625 C 0.472656 -0.503906 0.488281 -0.484375 0.5 -0.453125 C 0.519531 -0.429688 0.53125 -0.40625 0.53125 -0.375 Z M 0.40625 -0.375 "/></g></g></g><g fill="#ffffff" fill-opacity="1"><g transform="translate(6.39162, 25.030236)"><g><path d="M 0.125 -0.46875 L 0.125 -0.3125 L 0.28125 -0.3125 C 0.300781 -0.3125 0.320312 -0.316406 0.34375 -0.328125 C 0.363281 -0.347656 0.375 -0.363281 0.375 -0.375 C 0.375 -0.40625 0.363281 -0.425781 0.34375 -0.4375 C 0.320312 -0.457031 0.300781 -0.46875 0.28125 -0.46875 Z M 0.453125 0 L 0.34375 0 L 0.34375 -0.140625 C 0.34375 -0.171875 0.332031 -0.191406 0.3125 -0.203125 C 0.300781 -0.210938 0.28125 -0.21875 0.25 -0.21875 L 0.125 -0.21875 L 0.125 0 L 0.015625 0 L 0.015625 -0.546875 L 0.296875 -0.546875 C 0.328125 -0.546875 0.351562 -0.539062 0.375 -0.53125 C 0.394531 -0.53125 0.410156 -0.523438 0.421875 -0.515625 C 0.441406 -0.503906 0.457031 -0.484375 0.46875 -0.453125 C 0.476562 -0.429688 0.484375 -0.410156 0.484375 -0.390625 C 0.484375 -0.367188 0.472656 -0.34375 0.453125 -0.3125 C 0.429688 -0.289062 0.410156 -0.273438 0.390625 -0.265625 C 0.410156 -0.253906 0.425781 -0.242188 0.4375 -0.234375 C 0.445312 -0.222656 0.453125 -0.195312 0.453125 -0.15625 Z M 0.453125 0 "/></g></g></g><g fill="#ffffff" fill-opacity="1"><g transform="translate(7.256572, 25.030236)"><g><path d="M 0.125 -0.265625 C 0.125 -0.203125 0.140625 -0.15625 0.171875 -0.125 C 0.203125 -0.09375 0.238281 -0.078125 0.28125 -0.078125 C 0.300781 -0.078125 0.320312 -0.078125 0.34375 -0.078125 C 0.363281 -0.0859375 0.378906 -0.101562 0.390625 -0.125 C 0.398438 -0.144531 0.40625 -0.164062 0.40625 -0.1875 C 0.414062 -0.207031 0.421875 -0.234375 0.421875 -0.265625 C 0.421875 -0.335938 0.410156 -0.390625 0.390625 -0.421875 C 0.367188 -0.453125 0.332031 -0.46875 0.28125 -0.46875 C 0.238281 -0.46875 0.203125 -0.453125 0.171875 -0.421875 C 0.140625 -0.390625 0.125 -0.335938 0.125 -0.265625 Z M 0.28125 -0.578125 C 0.363281 -0.578125 0.425781 -0.546875 0.46875 -0.484375 C 0.519531 -0.429688 0.546875 -0.359375 0.546875 -0.265625 C 0.546875 -0.171875 0.519531 -0.0976562 0.46875 -0.046875 C 0.425781 -0.00390625 0.363281 0.015625 0.28125 0.015625 C 0.1875 0.015625 0.117188 -0.00390625 0.078125 -0.046875 C 0.0351562 -0.0976562 0.015625 -0.171875 0.015625 -0.265625 C 0.015625 -0.316406 0.0195312 -0.359375 0.03125 -0.390625 C 0.0390625 -0.429688 0.0546875 -0.460938 0.078125 -0.484375 C 0.0976562 -0.515625 0.125 -0.535156 0.15625 -0.546875 C 0.195312 -0.566406 0.238281 -0.578125 0.28125 -0.578125 Z M 0.28125 -0.578125 "/></g></g></g><g fill="#ffffff" fill-opacity="1"><g transform="translate(8.199416, 25.030236)"><g><path d="M 0.546875 0 L 0.4375 0 L 0.359375 -0.359375 L 0.265625 0 L 0.15625 0 L 0 -0.546875 L 0.125 -0.546875 L 0.21875 -0.203125 L 0.296875 -0.546875 L 0.421875 -0.546875 L 0.515625 -0.203125 L 0.59375 -0.546875 L 0.703125 -0.546875 Z M 0.546875 0 "/></g></g></g><g fill="#ffffff" fill-opacity="1"><g transform="translate(9.298041, 25.030236)"><g><path d="M 0.46875 0 L 0.359375 0 L 0.125 -0.375 L 0.125 0 L 0.015625 0 L 0.015625 -0.546875 L 0.140625 -0.546875 L 0.375 -0.203125 L 0.375 -0.546875 L 0.46875 -0.546875 Z M 0.46875 0 "/></g></g></g><g fill="#ffffff" fill-opacity="1"><g transform="translate(21.195873, 25.018117)"><g><path d="M 0.40625 -0.4375 L 0.140625 -0.4375 L 0.140625 -0.328125 L 0.375 -0.328125 L 0.375 -0.234375 L 0.140625 -0.234375 L 0.140625 0 L 0.015625 0 L 0.015625 -0.546875 L 0.40625 -0.546875 Z M 0.40625 -0.4375 "/></g></g></g><g fill="#ffffff" fill-opacity="1"><g transform="translate(21.984578, 25.018117)"><g><path d="M 0.265625 -0.4375 L 0.1875 -0.203125 L 0.328125 -0.203125 Z M 0.53125 0 L 0.40625 0 L 0.359375 -0.109375 L 0.171875 -0.109375 L 0.125 0 L 0 0 L 0.1875 -0.546875 L 0.328125 -0.546875 Z M 0.53125 0 "/></g></g></g><g fill="#ffffff" fill-opacity="1"><g transform="translate(22.887099, 25.018117)"><g><path d="M 0.125 -0.234375 L 0.125 -0.09375 L 0.28125 -0.09375 C 0.300781 -0.09375 0.316406 -0.0976562 0.328125 -0.109375 C 0.347656 -0.128906 0.359375 -0.148438 0.359375 -0.171875 C 0.359375 -0.191406 0.347656 -0.207031 0.328125 -0.21875 C 0.316406 -0.226562 0.300781 -0.234375 0.28125 -0.234375 Z M 0.125 -0.453125 L 0.125 -0.328125 L 0.265625 -0.328125 C 0.296875 -0.328125 0.316406 -0.332031 0.328125 -0.34375 C 0.335938 -0.351562 0.34375 -0.367188 0.34375 -0.390625 C 0.34375 -0.421875 0.335938 -0.4375 0.328125 -0.4375 C 0.316406 -0.445312 0.296875 -0.453125 0.265625 -0.453125 Z M 0.296875 -0.546875 C 0.335938 -0.546875 0.375 -0.53125 0.40625 -0.5 C 0.4375 -0.476562 0.453125 -0.445312 0.453125 -0.40625 C 0.453125 -0.34375 0.429688 -0.304688 0.390625 -0.296875 C 0.421875 -0.285156 0.441406 -0.265625 0.453125 -0.234375 C 0.460938 -0.210938 0.46875 -0.191406 0.46875 -0.171875 C 0.46875 -0.109375 0.453125 -0.0625 0.421875 -0.03125 C 0.390625 -0.0078125 0.335938 0 0.265625 0 L 0.015625 0 L 0.015625 -0.546875 Z M 0.296875 -0.546875 "/></g></g></g></svg>