<svg xmlns="http://www.w3.org/2000/svg" xmlns:xlink="http://www.w3.org/1999/xlink" width="168" zoomAndPan="magnify" viewBox="0 0 126 125.999998" height="168" preserveAspectRatio="xMidYMid meet" version="1.0"><defs><g/><clipPath id="7c12d9608f"><path d="M 21.648438 3 L 104.550781 3 L 104.550781 108 L 21.648438 108 Z M 21.648438 3 " clip-rule="nonzero"/></clipPath><clipPath id="dfdbdb860f"><path d="M 45 41.839844 L 78.539062 41.839844 L 78.539062 85.90625 L 45 85.90625 Z M 45 41.839844 " clip-rule="nonzero"/></clipPath></defs><g clip-path="url(#7c12d9608f)"><path fill="#ffffff" d="M 102.796875 107.769531 L 23.207031 107.769531 C 23.035156 107.769531 22.867188 107.734375 22.707031 107.667969 C 22.546875 107.601562 22.402344 107.507812 22.28125 107.382812 C 22.15625 107.261719 22.0625 107.121094 21.996094 106.957031 C 21.929688 106.796875 21.898438 106.628906 21.898438 106.457031 L 21.898438 44.640625 C 21.898438 22.035156 40.394531 3.535156 63.003906 3.535156 C 85.609375 3.535156 104.109375 22.035156 104.109375 44.640625 L 104.109375 106.457031 C 104.109375 106.628906 104.074219 106.796875 104.007812 106.957031 C 103.941406 107.121094 103.847656 107.261719 103.722656 107.382812 C 103.601562 107.507812 103.457031 107.601562 103.296875 107.667969 C 103.136719 107.734375 102.96875 107.769531 102.796875 107.769531 Z M 102.796875 107.769531 " fill-opacity="1" fill-rule="nonzero"/><path fill="#000000" d="M 102.796875 107.988281 L 23.207031 107.988281 C 23.003906 107.988281 22.808594 107.949219 22.621094 107.871094 C 22.433594 107.792969 22.269531 107.683594 22.125 107.539062 C 21.984375 107.394531 21.871094 107.230469 21.792969 107.042969 C 21.71875 106.855469 21.679688 106.660156 21.679688 106.457031 L 21.679688 44.640625 C 21.667969 39.070312 22.757812 33.722656 24.9375 28.59375 C 25.984375 26.140625 27.253906 23.808594 28.75 21.601562 C 30.242188 19.390625 31.929688 17.34375 33.816406 15.457031 C 35.703125 13.570312 37.75 11.878906 39.960938 10.386719 C 42.171875 8.894531 44.503906 7.625 46.957031 6.578125 C 49.496094 5.5 52.113281 4.6875 54.816406 4.140625 C 57.515625 3.589844 60.246094 3.316406 63.003906 3.316406 C 65.757812 3.316406 68.488281 3.589844 71.1875 4.140625 C 73.890625 4.6875 76.511719 5.5 79.046875 6.578125 C 81.5 7.625 83.832031 8.894531 86.042969 10.386719 C 88.253906 11.878906 90.300781 13.570312 92.1875 15.457031 C 94.074219 17.339844 95.761719 19.390625 97.257812 21.601562 C 98.75 23.808594 100.019531 26.140625 101.066406 28.59375 C 103.246094 33.722656 104.335938 39.070312 104.324219 44.640625 L 104.324219 106.457031 C 104.324219 106.660156 104.289062 106.855469 104.210938 107.042969 C 104.132812 107.230469 104.019531 107.394531 103.878906 107.539062 C 103.734375 107.683594 103.570312 107.792969 103.382812 107.871094 C 103.195312 107.949219 103 107.988281 102.796875 107.988281 Z M 63.003906 3.753906 C 57.492188 3.746094 52.199219 4.820312 47.125 6.976562 C 44.699219 8.011719 42.390625 9.269531 40.203125 10.746094 C 38.015625 12.222656 35.992188 13.894531 34.125 15.761719 C 32.257812 17.628906 30.585938 19.65625 29.109375 21.84375 C 27.628906 24.03125 26.375 26.335938 25.339844 28.765625 C 23.179688 33.835938 22.105469 39.128906 22.113281 44.640625 L 22.113281 106.457031 C 22.113281 106.601562 22.144531 106.742188 22.199219 106.875 C 22.253906 107.007812 22.332031 107.128906 22.433594 107.230469 C 22.539062 107.332031 22.65625 107.410156 22.789062 107.464844 C 22.921875 107.523438 23.0625 107.550781 23.207031 107.550781 L 102.796875 107.550781 C 102.941406 107.550781 103.082031 107.523438 103.214844 107.464844 C 103.347656 107.410156 103.464844 107.332031 103.570312 107.230469 C 103.671875 107.128906 103.75 107.007812 103.804688 106.875 C 103.859375 106.742188 103.890625 106.601562 103.890625 106.457031 L 103.890625 44.640625 C 103.898438 39.128906 102.820312 33.835938 100.664062 28.765625 C 99.628906 26.339844 98.371094 24.03125 96.894531 21.84375 C 95.417969 19.65625 93.746094 17.628906 91.882812 15.765625 C 90.015625 13.898438 87.988281 12.226562 85.804688 10.746094 C 83.617188 9.269531 81.308594 8.011719 78.882812 6.976562 C 73.808594 4.820312 68.515625 3.746094 63.003906 3.753906 Z M 63.003906 3.753906 " fill-opacity="1" fill-rule="nonzero"/></g><path fill="#ffffff" d="M 100.804688 105.683594 L 25.199219 105.683594 C 25.03125 105.683594 24.875 105.652344 24.722656 105.585938 C 24.570312 105.523438 24.433594 105.433594 24.316406 105.316406 C 24.203125 105.199219 24.109375 105.066406 24.046875 104.914062 C 23.984375 104.761719 23.953125 104.601562 23.953125 104.4375 L 23.953125 44.671875 C 23.953125 23.191406 41.523438 5.621094 63.003906 5.621094 C 84.480469 5.621094 102.046875 23.191406 102.046875 44.671875 L 102.046875 104.441406 C 102.046875 104.605469 102.015625 104.765625 101.953125 104.917969 C 101.886719 105.066406 101.796875 105.203125 101.683594 105.316406 C 101.566406 105.433594 101.433594 105.523438 101.28125 105.585938 C 101.128906 105.648438 100.96875 105.683594 100.804688 105.683594 Z M 100.804688 105.683594 " fill-opacity="1" fill-rule="nonzero"/><path fill="#000000" d="M 100.804688 105.902344 L 25.199219 105.902344 C 25.003906 105.902344 24.816406 105.863281 24.636719 105.789062 C 24.457031 105.714844 24.300781 105.609375 24.164062 105.472656 C 24.027344 105.335938 23.917969 105.175781 23.84375 104.996094 C 23.769531 104.820312 23.734375 104.632812 23.734375 104.4375 L 23.734375 44.671875 C 23.726562 39.375 24.757812 34.292969 26.832031 29.421875 C 27.828125 27.089844 29.03125 24.875 30.453125 22.773438 C 31.871094 20.675781 33.476562 18.730469 35.269531 16.9375 C 37.0625 15.144531 39.007812 13.539062 41.105469 12.121094 C 43.207031 10.699219 45.421875 9.492188 47.753906 8.5 C 50.164062 7.476562 52.65625 6.707031 55.222656 6.183594 C 57.789062 5.664062 60.382812 5.402344 63.003906 5.402344 C 65.621094 5.402344 68.214844 5.664062 70.78125 6.183594 C 73.347656 6.707031 75.839844 7.476562 78.25 8.5 C 80.582031 9.492188 82.796875 10.699219 84.898438 12.121094 C 86.996094 13.539062 88.945312 15.144531 90.734375 16.9375 C 92.527344 18.730469 94.132812 20.675781 95.550781 22.773438 C 96.972656 24.875 98.179688 27.089844 99.171875 29.421875 C 101.246094 34.292969 102.277344 39.375 102.265625 44.671875 L 102.265625 104.441406 C 102.265625 104.636719 102.230469 104.824219 102.152344 105 C 102.078125 105.179688 101.972656 105.335938 101.835938 105.472656 C 101.699219 105.609375 101.542969 105.714844 101.363281 105.789062 C 101.1875 105.863281 101 105.902344 100.804688 105.902344 Z M 62.996094 5.839844 C 57.761719 5.828125 52.734375 6.847656 47.917969 8.898438 C 45.613281 9.882812 43.421875 11.078125 41.34375 12.480469 C 39.269531 13.886719 37.34375 15.472656 35.574219 17.246094 C 33.800781 19.019531 32.214844 20.945312 30.8125 23.023438 C 29.410156 25.097656 28.21875 27.292969 27.234375 29.597656 C 25.183594 34.414062 24.164062 39.441406 24.175781 44.675781 L 24.175781 104.449219 C 24.175781 104.585938 24.203125 104.714844 24.253906 104.84375 C 24.304688 104.96875 24.378906 105.078125 24.476562 105.175781 C 24.574219 105.273438 24.683594 105.347656 24.808594 105.398438 C 24.933594 105.449219 25.066406 105.476562 25.203125 105.476562 L 100.804688 105.476562 C 100.941406 105.476562 101.074219 105.449219 101.199219 105.398438 C 101.324219 105.347656 101.4375 105.273438 101.53125 105.175781 C 101.628906 105.078125 101.703125 104.96875 101.753906 104.84375 C 101.808594 104.714844 101.832031 104.585938 101.832031 104.449219 L 101.832031 44.671875 C 101.84375 39.433594 100.824219 34.410156 98.773438 29.589844 C 97.789062 27.285156 96.597656 25.09375 95.191406 23.015625 C 93.789062 20.941406 92.199219 19.015625 90.429688 17.246094 C 88.65625 15.472656 86.730469 13.886719 84.652344 12.480469 C 82.578125 11.078125 80.386719 9.886719 78.078125 8.902344 C 73.261719 6.851562 68.238281 5.832031 63.003906 5.839844 Z M 62.996094 5.839844 " fill-opacity="1" fill-rule="nonzero"/><g fill="#000000" fill-opacity="1"><g transform="translate(31.096127, 53.499283)"><g><path d="M -0.296875 -2.3125 L -0.234375 -1.84375 L -1.671875 -1.296875 L -1.671875 -1.28125 L -0.140625 -1.109375 L -0.078125 -0.671875 L -2.3125 0.28125 L -2.375 -0.234375 L -0.9375 -0.796875 L -2.46875 -0.921875 L -2.53125 -1.4375 L -1.09375 -1.96875 L -2.625 -2.171875 L -2.6875 -2.65625 Z M -0.296875 -2.3125 "/></g></g></g><g fill="#000000" fill-opacity="1"><g transform="translate(30.656322, 48.797096)"><g><path d="M 0.015625 -1.96875 L 0.015625 -1.46875 L -1.03125 -1.484375 L -1.046875 -0.578125 L 0 -0.5625 L 0 -0.078125 L -2.328125 -0.109375 L -2.328125 -0.59375 L -1.453125 -0.578125 L -1.4375 -1.484375 L -2.3125 -1.5 L -2.3125 -2 Z M 0.015625 -1.96875 "/></g></g></g><g fill="#000000" fill-opacity="1"><g transform="translate(30.81112, 45.008512)"><g><path d="M -1.671875 -2.015625 L -1.828125 -0.796875 L -1.328125 -0.734375 L -1.1875 -1.859375 L -0.78125 -1.796875 L -0.921875 -0.671875 L -0.328125 -0.59375 L -0.171875 -1.875 L 0.234375 -1.828125 L 0.015625 -0.078125 L -2.296875 -0.375 L -2.078125 -2.0625 Z M -1.671875 -2.015625 "/></g></g></g><g fill="#000000" fill-opacity="1"><g transform="translate(31.378834, 41.453499)"><g><path d="M -1.71875 -1 L -1.109375 -0.84375 L -0.96875 -1.4375 C -0.9375 -1.53125 -0.941406 -1.617188 -0.984375 -1.703125 C -1.035156 -1.785156 -1.101562 -1.835938 -1.1875 -1.859375 C -1.28125 -1.890625 -1.359375 -1.875 -1.421875 -1.8125 C -1.492188 -1.757812 -1.539062 -1.691406 -1.5625 -1.609375 Z M 0.46875 -1.84375 L 0.359375 -1.390625 L -0.21875 -1.53125 C -0.320312 -1.5625 -0.40625 -1.550781 -0.46875 -1.5 C -0.53125 -1.457031 -0.578125 -1.375 -0.609375 -1.25 L -0.734375 -0.75 L 0.140625 -0.53125 L 0.015625 -0.078125 L -2.234375 -0.65625 L -1.9375 -1.796875 C -1.914062 -1.898438 -1.875 -1.988281 -1.8125 -2.0625 C -1.757812 -2.144531 -1.695312 -2.207031 -1.625 -2.25 C -1.550781 -2.300781 -1.46875 -2.332031 -1.375 -2.34375 C -1.289062 -2.351562 -1.207031 -2.347656 -1.125 -2.328125 C -0.988281 -2.296875 -0.882812 -2.238281 -0.8125 -2.15625 C -0.738281 -2.070312 -0.691406 -1.972656 -0.671875 -1.859375 C -0.617188 -1.941406 -0.550781 -1.992188 -0.46875 -2.015625 C -0.394531 -2.046875 -0.296875 -2.039062 -0.171875 -2 Z M 0.46875 -1.84375 "/></g></g></g><g fill="#000000" fill-opacity="1"><g transform="translate(32.41284, 37.836131)"><g><path d="M -1.15625 -2.34375 L -1.59375 -1.203125 L -1.125 -1.03125 L -0.71875 -2.09375 L -0.34375 -1.9375 L -0.75 -0.875 L -0.171875 -0.65625 L 0.28125 -1.859375 L 0.65625 -1.71875 L 0.03125 -0.078125 L -2.140625 -0.921875 L -1.53125 -2.5 Z M -1.15625 -2.34375 "/></g></g></g><g fill="#000000" fill-opacity="1"><g transform="translate(33.818433, 34.507246)"><g/></g></g><g fill="#000000" fill-opacity="1"><g transform="translate(35.056171, 32.187147)"><g><path d="M -1.375 -2.296875 C -1.1875 -2.585938 -0.941406 -2.753906 -0.640625 -2.796875 C -0.347656 -2.835938 -0.03125 -2.742188 0.3125 -2.515625 C 0.425781 -2.441406 0.523438 -2.351562 0.609375 -2.25 C 0.703125 -2.15625 0.765625 -2.046875 0.796875 -1.921875 C 0.835938 -1.804688 0.859375 -1.6875 0.859375 -1.5625 C 0.867188 -1.4375 0.84375 -1.300781 0.78125 -1.15625 C 0.894531 -1.082031 0.988281 -1.050781 1.0625 -1.0625 C 1.132812 -1.070312 1.191406 -1.109375 1.234375 -1.171875 C 1.273438 -1.234375 1.28125 -1.296875 1.25 -1.359375 C 1.226562 -1.421875 1.171875 -1.484375 1.078125 -1.546875 L 1.3125 -1.921875 C 1.40625 -1.859375 1.476562 -1.785156 1.53125 -1.703125 C 1.59375 -1.628906 1.632812 -1.546875 1.65625 -1.453125 C 1.6875 -1.359375 1.691406 -1.265625 1.671875 -1.171875 C 1.660156 -1.085938 1.628906 -1.003906 1.578125 -0.921875 C 1.515625 -0.835938 1.445312 -0.769531 1.375 -0.71875 C 1.3125 -0.664062 1.234375 -0.628906 1.140625 -0.609375 C 1.054688 -0.597656 0.96875 -0.601562 0.875 -0.625 C 0.78125 -0.644531 0.695312 -0.679688 0.625 -0.734375 L 0.5625 -0.765625 C 0.363281 -0.554688 0.144531 -0.4375 -0.09375 -0.40625 C -0.34375 -0.382812 -0.617188 -0.472656 -0.921875 -0.671875 C -1.085938 -0.773438 -1.222656 -0.890625 -1.328125 -1.015625 C -1.429688 -1.148438 -1.503906 -1.285156 -1.546875 -1.421875 C -1.585938 -1.554688 -1.59375 -1.695312 -1.5625 -1.84375 C -1.53125 -2 -1.46875 -2.148438 -1.375 -2.296875 Z M -0.640625 -1.046875 C -0.421875 -0.898438 -0.226562 -0.835938 -0.0625 -0.859375 C 0.101562 -0.890625 0.242188 -0.992188 0.359375 -1.171875 C 0.398438 -1.242188 0.425781 -1.316406 0.4375 -1.390625 C 0.457031 -1.472656 0.453125 -1.554688 0.421875 -1.640625 C 0.398438 -1.722656 0.359375 -1.800781 0.296875 -1.875 C 0.242188 -1.957031 0.160156 -2.035156 0.046875 -2.109375 C -0.191406 -2.265625 -0.398438 -2.335938 -0.578125 -2.328125 C -0.765625 -2.316406 -0.910156 -2.226562 -1.015625 -2.0625 C -1.128906 -1.882812 -1.15625 -1.707031 -1.09375 -1.53125 C -1.03125 -1.363281 -0.878906 -1.203125 -0.640625 -1.046875 Z M -0.640625 -1.046875 "/></g></g></g><g fill="#000000" fill-opacity="1"><g transform="translate(37.382928, 28.834224)"><g><path d="M 0.65625 -2 C 0.875 -1.820312 0.984375 -1.617188 0.984375 -1.390625 C 0.984375 -1.171875 0.882812 -0.945312 0.6875 -0.71875 C 0.507812 -0.5 0.3125 -0.375 0.09375 -0.34375 C -0.125 -0.3125 -0.332031 -0.382812 -0.53125 -0.5625 L -1.734375 -1.5625 L -1.40625 -1.9375 L -0.25 -0.96875 C -0.132812 -0.875 -0.0234375 -0.828125 0.078125 -0.828125 C 0.191406 -0.828125 0.289062 -0.875 0.375 -0.96875 C 0.570312 -1.207031 0.554688 -1.425781 0.328125 -1.625 L -0.84375 -2.609375 L -0.515625 -2.984375 Z M 0.65625 -2 "/></g></g></g><g fill="#000000" fill-opacity="1"><g transform="translate(39.910014, 26.017671)"><g><path d="M -0.40625 -2.078125 L 0 -1.1875 L 0.4375 -1.59375 Z M 1.640625 -1.5 L 1.25 -1.140625 L 0.8125 -1.40625 L 0.171875 -0.828125 L 0.390625 -0.359375 L 0.015625 -0.015625 L -0.953125 -2.28125 L -0.546875 -2.671875 Z M 1.640625 -1.5 "/></g></g></g><g fill="#000000" fill-opacity="1"><g transform="translate(42.9304, 23.414571)"><g><path d="M 0.203125 -0.671875 L 1.140625 -1.34375 L 1.390625 -1 L 0.0625 -0.046875 L -1.296875 -1.9375 L -0.90625 -2.21875 Z M 0.203125 -0.671875 "/></g></g></g><g fill="#000000" fill-opacity="1"><g transform="translate(45.846026, 21.464109)"><g><path d="M 0.484375 -0.28125 L 0.0625 -0.046875 L -1.109375 -2.0625 L -0.6875 -2.296875 Z M 0.484375 -0.28125 "/></g></g></g><g fill="#000000" fill-opacity="1"><g transform="translate(47.961495, 20.301238)"><g><path d="M 0.9375 -2.546875 L 0.296875 -2.25 L 1.09375 -0.5 L 0.65625 -0.296875 L -0.140625 -2.046875 L -0.78125 -1.75 L -0.953125 -2.125 L 0.765625 -2.921875 Z M 0.9375 -2.546875 "/></g></g></g><g fill="#000000" fill-opacity="1"><g transform="translate(51.345583, 18.871473)"><g><path d="M 0.96875 -1.21875 L 1.234375 -0.390625 L 0.78125 -0.25 L 0.515625 -1.078125 L -0.6875 -2.21875 L -0.15625 -2.390625 L 0.59375 -1.625 L 0.734375 -2.671875 L 1.28125 -2.84375 Z M 0.96875 -1.21875 "/></g></g></g><g fill="#000000" fill-opacity="1"><g transform="translate(55.057778, 17.828786)"><g/></g></g><g fill="#000000" fill-opacity="1"><g transform="translate(57.643608, 17.35586)"><g><path d="M 2.328125 -0.21875 L 1.859375 -0.171875 L 1.71875 -1.765625 L 1.4375 -0.125 L 0.96875 -0.09375 L 0.390625 -1.625 L 0.53125 -0.046875 L 0.078125 0 L -0.140625 -2.3125 L 0.578125 -2.390625 L 1.140625 -0.734375 L 1.15625 -0.734375 L 1.421875 -2.46875 L 2.109375 -2.53125 Z M 2.328125 -0.21875 "/></g></g></g><g fill="#000000" fill-opacity="1"><g transform="translate(61.801064, 17.100812)"><g><path d="M 1.84375 -1.859375 L 0.609375 -1.90625 L 0.59375 -1.40625 L 1.734375 -1.359375 L 1.71875 -0.953125 L 0.578125 -1 L 0.5625 -0.390625 L 1.859375 -0.34375 L 1.84375 0.0625 L 0.078125 0 L 0.15625 -2.328125 L 1.859375 -2.265625 Z M 1.84375 -1.859375 "/></g></g></g><g fill="#000000" fill-opacity="1"><g transform="translate(65.396068, 17.322444)"><g><path d="M 2.046875 -1.640625 L 0.828125 -1.828125 L 0.765625 -1.328125 L 1.890625 -1.15625 L 1.828125 -0.75 L 0.703125 -0.921875 L 0.609375 -0.328125 L 1.890625 -0.125 L 1.828125 0.28125 L 0.078125 0.015625 L 0.421875 -2.28125 L 2.109375 -2.03125 Z M 2.046875 -1.640625 "/></g></g></g><g fill="#000000" fill-opacity="1"><g transform="translate(68.940552, 17.957792)"><g><path d="M 2.34375 -1.359375 L 1.65625 -1.546875 L 1.15625 0.3125 L 0.6875 0.1875 L 1.1875 -1.671875 L 0.515625 -1.859375 L 0.625 -2.25 L 2.453125 -1.75 Z M 2.34375 -1.359375 "/></g></g></g><g fill="#000000" fill-opacity="1"><g transform="translate(72.457247, 19.025553)"><g><path d="M 1.890625 -1 C 1.941406 -1.101562 1.9375 -1.195312 1.875 -1.28125 C 1.820312 -1.375 1.738281 -1.441406 1.625 -1.484375 C 1.507812 -1.535156 1.40625 -1.550781 1.3125 -1.53125 C 1.21875 -1.519531 1.15625 -1.472656 1.125 -1.390625 C 1.101562 -1.328125 1.109375 -1.257812 1.140625 -1.1875 C 1.171875 -1.125 1.238281 -1.054688 1.34375 -0.984375 C 1.425781 -0.921875 1.5 -0.867188 1.5625 -0.828125 C 1.632812 -0.785156 1.691406 -0.742188 1.734375 -0.703125 C 1.785156 -0.660156 1.828125 -0.617188 1.859375 -0.578125 C 1.898438 -0.546875 1.9375 -0.515625 1.96875 -0.484375 C 2.039062 -0.410156 2.082031 -0.328125 2.09375 -0.234375 C 2.113281 -0.140625 2.101562 -0.0351562 2.0625 0.078125 C 2.007812 0.191406 1.945312 0.28125 1.875 0.34375 C 1.800781 0.414062 1.710938 0.460938 1.609375 0.484375 C 1.503906 0.515625 1.394531 0.53125 1.28125 0.53125 C 1.164062 0.53125 1.054688 0.507812 0.953125 0.46875 C 0.328125 0.207031 0.101562 -0.171875 0.28125 -0.671875 L 0.71875 -0.484375 C 0.6875 -0.367188 0.695312 -0.257812 0.75 -0.15625 C 0.8125 -0.0507812 0.90625 0.0234375 1.03125 0.078125 C 1.09375 0.0976562 1.148438 0.109375 1.203125 0.109375 C 1.265625 0.117188 1.320312 0.117188 1.375 0.109375 C 1.425781 0.0976562 1.46875 0.0820312 1.5 0.0625 C 1.539062 0.0390625 1.566406 0.0078125 1.578125 -0.03125 C 1.628906 -0.15625 1.554688 -0.296875 1.359375 -0.453125 C 1.191406 -0.554688 1.066406 -0.644531 0.984375 -0.71875 C 0.898438 -0.789062 0.84375 -0.847656 0.8125 -0.890625 C 0.71875 -0.972656 0.660156 -1.066406 0.640625 -1.171875 C 0.628906 -1.273438 0.648438 -1.390625 0.703125 -1.515625 C 0.742188 -1.609375 0.796875 -1.6875 0.859375 -1.75 C 0.921875 -1.820312 1 -1.875 1.09375 -1.90625 C 1.1875 -1.9375 1.289062 -1.953125 1.40625 -1.953125 C 1.519531 -1.953125 1.644531 -1.921875 1.78125 -1.859375 C 1.894531 -1.816406 1.992188 -1.753906 2.078125 -1.671875 C 2.160156 -1.597656 2.226562 -1.515625 2.28125 -1.421875 C 2.332031 -1.335938 2.363281 -1.238281 2.375 -1.125 C 2.394531 -1.019531 2.378906 -0.914062 2.328125 -0.8125 Z M 1.890625 -1 "/></g></g></g><g fill="#000000" fill-opacity="1"><g transform="translate(75.859129, 20.534599)"><g/></g></g><g fill="#000000" fill-opacity="1"><g transform="translate(78.155626, 21.826805)"><g><path d="M 2.546875 -0.609375 L 1.515625 -1.296875 L 1.25 -0.890625 L 2.203125 -0.25 L 1.96875 0.09375 L 1.015625 -0.546875 L 0.671875 -0.046875 L 1.75 0.6875 L 1.53125 1.03125 L 0.0625 0.046875 L 1.359375 -1.890625 L 2.78125 -0.953125 Z M 2.546875 -0.609375 "/></g></g></g><g fill="#000000" fill-opacity="1"><g transform="translate(81.093166, 23.906049)"><g><path d="M 1.796875 -0.046875 L 1.59375 1.359375 L 1.140625 0.984375 L 1.3125 0.078125 L 0.4375 0.375 L 0.015625 0.015625 L 1.34375 -0.40625 L 1.5625 -1.71875 L 1.984375 -1.359375 L 1.828125 -0.515625 L 2.625 -0.8125 L 3.0625 -0.4375 Z M 1.796875 -0.046875 "/></g></g></g><g fill="#000000" fill-opacity="1"><g transform="translate(83.945554, 26.495589)"><g><path d="M 2.265625 0.171875 C 2.347656 0.0546875 2.378906 -0.0546875 2.359375 -0.171875 C 2.347656 -0.296875 2.304688 -0.398438 2.234375 -0.484375 C 2.171875 -0.554688 2.097656 -0.601562 2.015625 -0.625 C 1.941406 -0.65625 1.859375 -0.664062 1.765625 -0.65625 C 1.679688 -0.644531 1.59375 -0.613281 1.5 -0.5625 C 1.414062 -0.519531 1.328125 -0.457031 1.234375 -0.375 C 1.148438 -0.289062 1.078125 -0.207031 1.015625 -0.125 C 0.960938 -0.0390625 0.921875 0.0390625 0.890625 0.125 C 0.867188 0.207031 0.863281 0.289062 0.875 0.375 C 0.894531 0.457031 0.9375 0.53125 1 0.59375 C 1.09375 0.695312 1.195312 0.753906 1.3125 0.765625 C 1.4375 0.785156 1.566406 0.757812 1.703125 0.6875 L 2.015625 1.046875 C 1.898438 1.109375 1.785156 1.15625 1.671875 1.1875 C 1.554688 1.21875 1.441406 1.226562 1.328125 1.21875 C 1.210938 1.207031 1.097656 1.171875 0.984375 1.109375 C 0.878906 1.054688 0.78125 0.976562 0.6875 0.875 C 0.59375 0.769531 0.519531 0.648438 0.46875 0.515625 C 0.425781 0.390625 0.40625 0.253906 0.40625 0.109375 C 0.414062 -0.0234375 0.457031 -0.164062 0.53125 -0.3125 C 0.601562 -0.457031 0.71875 -0.597656 0.875 -0.734375 C 1.007812 -0.859375 1.15625 -0.953125 1.3125 -1.015625 C 1.46875 -1.078125 1.617188 -1.113281 1.765625 -1.125 C 1.910156 -1.132812 2.046875 -1.109375 2.171875 -1.046875 C 2.304688 -0.992188 2.429688 -0.90625 2.546875 -0.78125 C 2.640625 -0.675781 2.707031 -0.5625 2.75 -0.4375 C 2.789062 -0.3125 2.8125 -0.191406 2.8125 -0.078125 C 2.820312 0.0234375 2.804688 0.128906 2.765625 0.234375 C 2.722656 0.335938 2.660156 0.4375 2.578125 0.53125 Z M 2.265625 0.171875 "/></g></g></g><g fill="#000000" fill-opacity="1"><g transform="translate(86.468883, 29.446724)"><g><path d="M 0.671875 0.203125 L 1.34375 1.15625 L 1 1.40625 L 0.046875 0.0625 L 1.9375 -1.28125 L 2.21875 -0.890625 Z M 0.671875 0.203125 "/></g></g></g><g fill="#000000" fill-opacity="1"><g transform="translate(88.415161, 32.34565)"><g><path d="M 1.640625 1.34375 C 1.390625 1.46875 1.160156 1.492188 0.953125 1.421875 C 0.742188 1.347656 0.566406 1.175781 0.421875 0.90625 C 0.285156 0.65625 0.238281 0.421875 0.28125 0.203125 C 0.320312 -0.00390625 0.460938 -0.175781 0.703125 -0.3125 L 2.078125 -1.0625 L 2.328125 -0.625 L 1 0.109375 C 0.863281 0.179688 0.773438 0.269531 0.734375 0.375 C 0.691406 0.476562 0.703125 0.582031 0.765625 0.6875 C 0.921875 0.96875 1.132812 1.039062 1.40625 0.90625 L 2.75 0.15625 L 2.984375 0.59375 Z M 1.640625 1.34375 "/></g></g></g><g fill="#000000" fill-opacity="1"><g transform="translate(90.138642, 35.717746)"><g><path d="M 2.046875 0.6875 C 2.148438 0.632812 2.210938 0.554688 2.234375 0.453125 C 2.253906 0.359375 2.238281 0.253906 2.1875 0.140625 C 2.144531 0.0351562 2.085938 -0.046875 2.015625 -0.109375 C 1.941406 -0.171875 1.859375 -0.179688 1.765625 -0.140625 C 1.710938 -0.117188 1.671875 -0.0703125 1.640625 0 C 1.617188 0.0625 1.625 0.15625 1.65625 0.28125 C 1.664062 0.382812 1.675781 0.472656 1.6875 0.546875 C 1.695312 0.628906 1.703125 0.703125 1.703125 0.765625 C 1.710938 0.828125 1.710938 0.882812 1.703125 0.9375 C 1.703125 0.988281 1.707031 1.039062 1.71875 1.09375 C 1.707031 1.1875 1.675781 1.269531 1.625 1.34375 C 1.570312 1.425781 1.488281 1.488281 1.375 1.53125 C 1.257812 1.582031 1.148438 1.601562 1.046875 1.59375 C 0.941406 1.582031 0.84375 1.550781 0.75 1.5 C 0.664062 1.445312 0.582031 1.375 0.5 1.28125 C 0.425781 1.195312 0.367188 1.101562 0.328125 1 C 0.078125 0.375 0.191406 -0.0390625 0.671875 -0.25 L 0.859375 0.1875 C 0.742188 0.238281 0.671875 0.316406 0.640625 0.421875 C 0.617188 0.535156 0.628906 0.660156 0.671875 0.796875 C 0.703125 0.847656 0.734375 0.894531 0.765625 0.9375 C 0.796875 0.988281 0.832031 1.03125 0.875 1.0625 C 0.914062 1.101562 0.957031 1.125 1 1.125 C 1.039062 1.132812 1.082031 1.128906 1.125 1.109375 C 1.25 1.054688 1.296875 0.910156 1.265625 0.671875 C 1.234375 0.472656 1.210938 0.316406 1.203125 0.203125 C 1.203125 0.0976562 1.203125 0.0195312 1.203125 -0.03125 C 1.210938 -0.164062 1.242188 -0.269531 1.296875 -0.34375 C 1.359375 -0.425781 1.453125 -0.492188 1.578125 -0.546875 C 1.679688 -0.578125 1.773438 -0.59375 1.859375 -0.59375 C 1.953125 -0.601562 2.046875 -0.582031 2.140625 -0.53125 C 2.234375 -0.488281 2.3125 -0.425781 2.375 -0.34375 C 2.445312 -0.257812 2.507812 -0.148438 2.5625 -0.015625 C 2.613281 0.0976562 2.644531 0.210938 2.65625 0.328125 C 2.664062 0.441406 2.648438 0.546875 2.609375 0.640625 C 2.578125 0.742188 2.53125 0.835938 2.46875 0.921875 C 2.40625 1.015625 2.320312 1.082031 2.21875 1.125 Z M 2.046875 0.6875 "/></g></g></g><g fill="#000000" fill-opacity="1"><g transform="translate(91.408659, 39.218785)"><g><path d="M 0.15625 0.546875 L 0.015625 0.078125 L 2.25 -0.5625 L 2.390625 -0.09375 Z M 0.15625 0.546875 "/></g></g></g><g fill="#000000" fill-opacity="1"><g transform="translate(92.026877, 41.550635)"><g><path d="M 0.21875 1.234375 L 0.140625 0.78125 L 2.296875 -0.40625 L 2.390625 0.09375 L 0.859375 0.890625 L 2.578125 1.078125 L 2.671875 1.59375 Z M 0.21875 1.234375 "/></g></g></g><g fill="#000000" fill-opacity="1"><g transform="translate(92.591644, 45.333746)"><g><path d="M 0.046875 0.5625 L 0 0.078125 L 2.328125 -0.109375 L 2.375 0.375 Z M 0.046875 0.5625 "/></g></g></g><g fill="#000000" fill-opacity="1"><g transform="translate(92.729263, 47.744009)"><g><path d="M 1.890625 1.9375 L 1.90625 1.234375 L -0.015625 1.203125 L -0.015625 0.71875 L 1.90625 0.75 L 1.921875 0.046875 L 2.328125 0.0625 L 2.296875 1.953125 Z M 1.890625 1.9375 "/></g></g></g><g fill="#000000" fill-opacity="1"><g transform="translate(92.561218, 51.414033)"><g><path d="M 0.671875 1.40625 L -0.1875 1.28125 L -0.109375 0.796875 L 0.75 0.921875 L 2.3125 0.34375 L 2.234375 0.90625 L 1.21875 1.234375 L 2.109375 1.828125 L 2.03125 2.390625 Z M 0.671875 1.40625 "/></g></g></g><g clip-path="url(#dfdbdb860f)"><path fill="#000000" d="M 64.589844 48.480469 L 73.078125 48.480469 C 73.457031 48.480469 73.761719 48.175781 73.761719 47.800781 L 73.761719 42.796875 C 73.761719 42.421875 73.457031 42.117188 73.078125 42.117188 L 64.589844 42.117188 C 64.210938 42.117188 63.902344 42.421875 63.902344 42.796875 L 63.902344 47.800781 C 63.902344 48.175781 64.210938 48.480469 64.589844 48.480469 Z M 65.273438 43.480469 L 72.394531 43.480469 L 72.394531 47.117188 L 65.273438 47.117188 Z M 60.402344 70.636719 L 65.746094 64.875 C 65.746094 64.871094 65.75 64.871094 65.753906 64.867188 L 69.058594 61.300781 L 72.773438 57.296875 C 72.773438 57.292969 72.777344 57.292969 72.777344 57.289062 L 78.28125 51.355469 C 78.285156 51.351562 78.289062 51.347656 78.292969 51.339844 C 78.300781 51.332031 78.308594 51.324219 78.316406 51.3125 C 78.324219 51.304688 78.328125 51.296875 78.335938 51.289062 C 78.34375 51.277344 78.347656 51.269531 78.355469 51.257812 C 78.359375 51.25 78.367188 51.238281 78.371094 51.230469 C 78.378906 51.222656 78.382812 51.210938 78.386719 51.199219 C 78.394531 51.191406 78.398438 51.179688 78.402344 51.171875 C 78.40625 51.160156 78.410156 51.152344 78.414062 51.140625 C 78.417969 51.128906 78.421875 51.121094 78.425781 51.109375 C 78.429688 51.097656 78.433594 51.085938 78.4375 51.078125 C 78.441406 51.066406 78.441406 51.054688 78.445312 51.046875 C 78.449219 51.035156 78.449219 51.023438 78.453125 51.011719 C 78.453125 51 78.457031 50.988281 78.457031 50.980469 C 78.457031 50.96875 78.460938 50.957031 78.460938 50.945312 C 78.460938 50.933594 78.460938 50.921875 78.460938 50.910156 C 78.460938 50.90625 78.464844 50.898438 78.464844 50.890625 C 78.464844 50.886719 78.460938 50.882812 78.460938 50.878906 C 78.460938 50.867188 78.460938 50.855469 78.460938 50.84375 C 78.460938 50.832031 78.457031 50.820312 78.457031 50.808594 C 78.457031 50.800781 78.453125 50.789062 78.453125 50.777344 C 78.449219 50.765625 78.449219 50.753906 78.445312 50.742188 C 78.445312 50.734375 78.441406 50.722656 78.4375 50.714844 C 78.4375 50.703125 78.433594 50.691406 78.429688 50.679688 C 78.425781 50.671875 78.421875 50.660156 78.417969 50.652344 C 78.414062 50.640625 78.410156 50.628906 78.40625 50.617188 C 78.402344 50.609375 78.394531 50.597656 78.390625 50.589844 C 78.386719 50.578125 78.382812 50.570312 78.375 50.558594 C 78.371094 50.550781 78.363281 50.539062 78.359375 50.53125 C 78.351562 50.519531 78.347656 50.511719 78.339844 50.503906 C 78.335938 50.496094 78.328125 50.484375 78.320312 50.476562 C 78.3125 50.46875 78.308594 50.457031 78.300781 50.449219 C 78.292969 50.441406 78.285156 50.433594 78.277344 50.425781 C 78.269531 50.417969 78.261719 50.410156 78.253906 50.398438 C 78.25 50.398438 78.246094 50.394531 78.242188 50.390625 C 78.238281 50.386719 78.234375 50.382812 78.230469 50.378906 C 78.21875 50.371094 78.210938 50.363281 78.199219 50.355469 C 78.191406 50.347656 78.183594 50.34375 78.175781 50.335938 C 78.167969 50.332031 78.15625 50.324219 78.144531 50.316406 C 78.136719 50.3125 78.128906 50.304688 78.117188 50.300781 C 78.109375 50.296875 78.097656 50.289062 78.089844 50.285156 C 78.078125 50.28125 78.070312 50.273438 78.058594 50.269531 C 78.046875 50.265625 78.039062 50.261719 78.027344 50.257812 C 78.019531 50.253906 78.007812 50.25 77.996094 50.246094 C 77.984375 50.242188 77.976562 50.238281 77.964844 50.238281 C 77.953125 50.234375 77.941406 50.230469 77.933594 50.226562 C 77.921875 50.226562 77.910156 50.222656 77.898438 50.222656 C 77.886719 50.21875 77.875 50.21875 77.863281 50.214844 C 77.855469 50.214844 77.84375 50.214844 77.835938 50.214844 C 77.820312 50.210938 77.808594 50.210938 77.796875 50.210938 C 77.789062 50.210938 77.785156 50.210938 77.777344 50.210938 L 59.886719 50.210938 C 59.882812 50.210938 59.882812 50.210938 59.878906 50.210938 C 59.867188 50.210938 59.851562 50.210938 59.839844 50.210938 C 59.828125 50.214844 59.820312 50.214844 59.8125 50.214844 C 59.796875 50.214844 59.785156 50.21875 59.773438 50.21875 C 59.765625 50.222656 59.753906 50.222656 59.746094 50.226562 C 59.734375 50.226562 59.722656 50.230469 59.710938 50.234375 C 59.699219 50.238281 59.6875 50.238281 59.679688 50.242188 C 59.667969 50.246094 59.65625 50.25 59.648438 50.253906 C 59.636719 50.257812 59.625 50.261719 59.617188 50.265625 C 59.605469 50.269531 59.597656 50.273438 59.585938 50.28125 C 59.578125 50.285156 59.566406 50.289062 59.554688 50.296875 C 59.546875 50.300781 59.539062 50.304688 59.53125 50.3125 C 59.519531 50.316406 59.507812 50.324219 59.5 50.332031 C 59.492188 50.335938 59.484375 50.34375 59.476562 50.347656 C 59.464844 50.355469 59.453125 50.363281 59.445312 50.371094 C 59.441406 50.375 59.441406 50.375 59.4375 50.378906 C 59.433594 50.382812 59.429688 50.386719 59.421875 50.390625 C 59.414062 50.402344 59.40625 50.410156 59.394531 50.417969 C 59.386719 50.425781 59.378906 50.433594 59.375 50.441406 C 59.367188 50.449219 59.359375 50.460938 59.351562 50.46875 C 59.34375 50.476562 59.335938 50.488281 59.332031 50.496094 C 59.324219 50.503906 59.320312 50.511719 59.3125 50.519531 C 59.308594 50.53125 59.300781 50.542969 59.296875 50.550781 C 59.289062 50.5625 59.285156 50.570312 59.28125 50.578125 C 59.273438 50.589844 59.269531 50.597656 59.265625 50.609375 C 59.261719 50.621094 59.253906 50.628906 59.25 50.640625 C 59.246094 50.648438 59.246094 50.660156 59.242188 50.667969 C 59.238281 50.679688 59.234375 50.691406 59.230469 50.703125 C 59.226562 50.714844 59.222656 50.722656 59.222656 50.734375 C 59.21875 50.746094 59.21875 50.757812 59.214844 50.769531 C 59.210938 50.777344 59.210938 50.789062 59.210938 50.800781 C 59.207031 50.8125 59.207031 50.824219 59.207031 50.832031 C 59.203125 50.847656 59.203125 50.859375 59.203125 50.871094 C 59.203125 50.878906 59.203125 50.886719 59.203125 50.890625 C 59.203125 50.894531 59.203125 50.898438 59.203125 50.902344 C 59.203125 50.914062 59.203125 50.925781 59.207031 50.9375 C 59.207031 50.949219 59.207031 50.957031 59.207031 50.96875 C 59.207031 50.980469 59.210938 50.992188 59.214844 51.003906 C 59.214844 51.015625 59.214844 51.023438 59.21875 51.035156 C 59.21875 51.046875 59.222656 51.058594 59.226562 51.066406 C 59.230469 51.078125 59.230469 51.089844 59.234375 51.097656 C 59.238281 51.109375 59.242188 51.121094 59.246094 51.128906 C 59.25 51.140625 59.253906 51.152344 59.257812 51.160156 C 59.261719 51.171875 59.269531 51.179688 59.273438 51.191406 C 59.277344 51.199219 59.28125 51.210938 59.289062 51.222656 C 59.292969 51.230469 59.296875 51.238281 59.304688 51.246094 C 59.308594 51.257812 59.316406 51.269531 59.324219 51.28125 C 59.328125 51.285156 59.335938 51.292969 59.339844 51.300781 C 59.347656 51.3125 59.355469 51.324219 59.367188 51.332031 C 59.367188 51.335938 59.367188 51.335938 59.371094 51.339844 L 67.640625 60.820312 L 65.265625 63.382812 L 60.40625 57.8125 C 60.15625 57.527344 59.722656 57.496094 59.4375 57.742188 C 59.152344 57.992188 59.121094 58.421875 59.371094 58.707031 L 64.328125 64.390625 L 61.996094 66.910156 L 60.402344 65.085938 C 60.15625 64.800781 59.722656 64.773438 59.4375 65.019531 C 59.152344 65.265625 59.121094 65.695312 59.371094 65.980469 L 61.058594 67.917969 L 59.382812 69.722656 C 59.375 69.734375 59.367188 69.742188 59.359375 69.753906 C 58.035156 71.355469 55.574219 73.695312 53.953125 74.03125 L 55.003906 59.035156 C 57.035156 58.71875 58.609375 56.617188 58.609375 54.074219 C 58.609375 51.410156 57.464844 49.523438 55.699219 49.144531 L 55.722656 48.785156 C 55.738281 48.644531 55.835938 47.679688 55.765625 46.523438 C 55.660156 44.796875 55.238281 43.535156 54.515625 42.765625 C 53.96875 42.183594 53.242188 41.894531 52.414062 41.917969 C 52.40625 41.917969 52.398438 41.917969 52.390625 41.917969 C 51.203125 41.917969 50.292969 42.226562 49.679688 42.835938 C 48.980469 43.535156 48.964844 44.355469 48.964844 44.445312 C 48.96875 44.820312 49.273438 45.117188 49.652344 45.117188 C 50.03125 45.117188 50.335938 44.816406 50.335938 44.441406 C 50.335938 44.4375 50.355469 44.097656 50.652344 43.800781 C 50.992188 43.460938 51.589844 43.28125 52.390625 43.28125 C 52.390625 43.28125 52.394531 43.28125 52.398438 43.28125 C 52.40625 43.28125 52.414062 43.28125 52.421875 43.28125 C 52.878906 43.261719 53.226562 43.390625 53.515625 43.699219 C 54.546875 44.789062 54.472656 47.640625 54.359375 48.648438 C 54.359375 48.65625 54.359375 48.667969 54.359375 48.675781 L 52.429688 76.183594 L 50.515625 49.585938 C 50.488281 49.210938 50.160156 48.925781 49.785156 48.953125 C 49.40625 48.980469 49.125 49.308594 49.148438 49.683594 L 50.011719 61.675781 C 47.007812 62.097656 44.929688 64.957031 45.125 68.539062 C 45.3125 72.074219 47.839844 74.746094 50.957031 74.8125 L 51.707031 85.226562 C 51.730469 85.585938 52.03125 85.859375 52.386719 85.859375 C 52.402344 85.859375 52.421875 85.859375 52.4375 85.859375 C 52.453125 85.859375 52.46875 85.859375 52.484375 85.859375 C 52.839844 85.859375 53.140625 85.585938 53.167969 85.226562 L 53.855469 75.417969 C 56.574219 75.132812 59.941406 71.191406 60.402344 70.636719 Z M 72.289062 55.804688 L 68.601562 51.574219 L 76.214844 51.574219 Z M 61.390625 51.574219 L 66.785156 51.574219 L 71.355469 56.8125 L 68.574219 59.8125 Z M 57.238281 54.074219 C 57.238281 55.796875 56.324219 57.242188 55.101562 57.617188 L 55.601562 50.53125 C 56.796875 50.9375 57.238281 52.613281 57.238281 54.074219 Z M 46.492188 68.46875 C 46.414062 67.019531 46.785156 65.660156 47.535156 64.644531 C 48.191406 63.753906 49.078125 63.203125 50.109375 63.035156 L 50.859375 73.445312 C 48.519531 73.320312 46.636719 71.222656 46.492188 68.46875 Z M 78.464844 76.539062 C 78.464844 76.914062 78.15625 77.21875 77.777344 77.21875 L 59.886719 77.21875 C 59.507812 77.21875 59.203125 76.914062 59.203125 76.539062 C 59.203125 76.507812 59.203125 76.480469 59.207031 76.453125 C 59.183594 76.261719 59.242188 76.0625 59.382812 75.90625 L 77.277344 56.613281 C 77.53125 56.335938 77.964844 56.320312 78.242188 56.574219 C 78.519531 56.832031 78.539062 57.261719 78.28125 57.539062 L 61.296875 75.855469 L 65.757812 75.855469 L 77.277344 63.433594 C 77.53125 63.15625 77.964844 63.140625 78.242188 63.394531 C 78.519531 63.652344 78.539062 64.082031 78.28125 64.359375 L 67.621094 75.855469 L 72.417969 75.855469 L 77.277344 70.617188 C 77.53125 70.339844 77.964844 70.324219 78.242188 70.578125 C 78.519531 70.835938 78.539062 71.265625 78.28125 71.542969 L 74.285156 75.855469 L 77.777344 75.855469 C 78.15625 75.855469 78.464844 76.160156 78.464844 76.539062 Z M 73.078125 79.492188 L 64.589844 79.492188 C 64.210938 79.492188 63.902344 79.796875 63.902344 80.175781 L 63.902344 85.175781 C 63.902344 85.554688 64.210938 85.859375 64.589844 85.859375 L 73.078125 85.859375 C 73.457031 85.859375 73.761719 85.554688 73.761719 85.175781 L 73.761719 80.175781 C 73.761719 79.796875 73.457031 79.492188 73.078125 79.492188 Z M 72.394531 84.496094 L 65.273438 84.496094 L 65.273438 80.855469 L 72.394531 80.855469 Z M 46.507812 47.480469 C 46.382812 47.125 46.570312 46.738281 46.925781 46.613281 C 47.042969 46.570312 49.5 45.726562 51.671875 46.277344 L 51.671875 46.027344 C 51.671875 45.648438 51.976562 45.34375 52.355469 45.34375 C 52.734375 45.34375 53.039062 45.648438 53.039062 46.027344 L 53.039062 47.242188 C 53.039062 47.242188 53.039062 47.246094 53.039062 47.246094 L 53.039062 48.480469 C 53.039062 48.859375 52.734375 49.164062 52.355469 49.164062 C 51.976562 49.164062 51.671875 48.859375 51.671875 48.480469 L 51.671875 47.699219 C 50.8125 47.386719 49.796875 47.425781 49.058594 47.519531 C 48.101562 47.648438 47.386719 47.894531 47.382812 47.898438 C 47.304688 47.925781 47.230469 47.9375 47.152344 47.9375 C 46.871094 47.9375 46.605469 47.761719 46.507812 47.480469 Z M 46.507812 47.480469 " fill-opacity="1" fill-rule="nonzero"/></g><g fill="#000000" fill-opacity="1"><g transform="translate(28.611497, 95.88384)"><g><path d="M 2.140625 -2 C 2.128906 -2.0625 2.101562 -2.117188 2.0625 -2.171875 C 2.019531 -2.234375 1.96875 -2.285156 1.90625 -2.328125 C 1.851562 -2.378906 1.789062 -2.414062 1.71875 -2.4375 C 1.644531 -2.46875 1.566406 -2.484375 1.484375 -2.484375 C 1.359375 -2.484375 1.25 -2.457031 1.15625 -2.40625 C 1.0625 -2.351562 0.976562 -2.28125 0.90625 -2.1875 C 0.832031 -2.09375 0.773438 -1.976562 0.734375 -1.84375 C 0.703125 -1.71875 0.6875 -1.578125 0.6875 -1.421875 C 0.6875 -1.273438 0.703125 -1.140625 0.734375 -1.015625 C 0.773438 -0.890625 0.832031 -0.78125 0.90625 -0.6875 C 0.976562 -0.59375 1.0625 -0.519531 1.15625 -0.46875 C 1.25 -0.425781 1.359375 -0.40625 1.484375 -0.40625 C 1.578125 -0.40625 1.664062 -0.421875 1.75 -0.453125 C 1.84375 -0.492188 1.921875 -0.539062 1.984375 -0.59375 C 2.046875 -0.65625 2.09375 -0.726562 2.125 -0.8125 C 2.164062 -0.894531 2.1875 -0.976562 2.1875 -1.0625 L 1.546875 -1.0625 L 1.546875 -1.546875 L 2.75 -1.546875 L 2.75 0.125 C 2.75 0.269531 2.78125 0.367188 2.84375 0.421875 C 2.90625 0.484375 2.972656 0.515625 3.046875 0.515625 C 3.140625 0.515625 3.210938 0.476562 3.265625 0.40625 C 3.328125 0.332031 3.359375 0.21875 3.359375 0.0625 L 3.875 0.0625 C 3.875 0.21875 3.851562 0.351562 3.8125 0.46875 C 3.769531 0.59375 3.707031 0.691406 3.625 0.765625 C 3.550781 0.847656 3.460938 0.910156 3.359375 0.953125 C 3.265625 0.992188 3.15625 1.015625 3.03125 1.015625 C 2.90625 1.015625 2.789062 0.992188 2.6875 0.953125 C 2.582031 0.910156 2.492188 0.847656 2.421875 0.765625 C 2.347656 0.691406 2.289062 0.601562 2.25 0.5 C 2.207031 0.394531 2.1875 0.273438 2.1875 0.140625 L 2.1875 -0.203125 C 2.101562 -0.0976562 1.992188 -0.0234375 1.859375 0.015625 C 1.734375 0.0664062 1.570312 0.09375 1.375 0.09375 C 1.175781 0.09375 0.992188 0.0546875 0.828125 -0.015625 C 0.671875 -0.0976562 0.535156 -0.207031 0.421875 -0.34375 C 0.304688 -0.476562 0.21875 -0.640625 0.15625 -0.828125 C 0.09375 -1.015625 0.0625 -1.21875 0.0625 -1.4375 C 0.0625 -1.65625 0.09375 -1.859375 0.15625 -2.046875 C 0.21875 -2.234375 0.304688 -2.394531 0.421875 -2.53125 C 0.546875 -2.664062 0.695312 -2.773438 0.875 -2.859375 C 1.050781 -2.941406 1.253906 -2.984375 1.484375 -2.984375 C 1.660156 -2.984375 1.820312 -2.957031 1.96875 -2.90625 C 2.113281 -2.851562 2.242188 -2.78125 2.359375 -2.6875 C 2.472656 -2.601562 2.5625 -2.5 2.625 -2.375 C 2.695312 -2.257812 2.738281 -2.132812 2.75 -2 Z M 2.140625 -2 "/></g></g></g><g fill="#000000" fill-opacity="1"><g transform="translate(33.457988, 95.88384)"><g><path d="M 0.6875 -2.375 L 0.6875 -1.609375 L 1.4375 -1.609375 C 1.5625 -1.609375 1.664062 -1.644531 1.75 -1.71875 C 1.832031 -1.789062 1.875 -1.882812 1.875 -2 C 1.875 -2.113281 1.832031 -2.203125 1.75 -2.265625 C 1.675781 -2.335938 1.578125 -2.375 1.453125 -2.375 Z M 2.375 0 L 1.78125 0 L 1.78125 -0.734375 C 1.78125 -0.878906 1.742188 -0.976562 1.671875 -1.03125 C 1.609375 -1.09375 1.492188 -1.125 1.328125 -1.125 L 0.6875 -1.125 L 0.6875 0 L 0.09375 0 L 0.09375 -2.890625 L 1.5625 -2.890625 C 1.695312 -2.890625 1.816406 -2.863281 1.921875 -2.8125 C 2.035156 -2.769531 2.128906 -2.710938 2.203125 -2.640625 C 2.285156 -2.566406 2.347656 -2.476562 2.390625 -2.375 C 2.441406 -2.28125 2.46875 -2.171875 2.46875 -2.046875 C 2.46875 -1.890625 2.425781 -1.75 2.34375 -1.625 C 2.269531 -1.507812 2.160156 -1.425781 2.015625 -1.375 C 2.148438 -1.332031 2.242188 -1.269531 2.296875 -1.1875 C 2.347656 -1.101562 2.375 -0.976562 2.375 -0.8125 Z M 2.375 0 "/></g></g></g><g fill="#000000" fill-opacity="1"><g transform="translate(37.934192, 95.88384)"><g><path d="M 0.65625 -1.40625 C 0.65625 -1.0625 0.722656 -0.8125 0.859375 -0.65625 C 0.992188 -0.5 1.191406 -0.421875 1.453125 -0.421875 C 1.554688 -0.421875 1.65625 -0.4375 1.75 -0.46875 C 1.851562 -0.507812 1.9375 -0.570312 2 -0.65625 C 2.070312 -0.738281 2.128906 -0.84375 2.171875 -0.96875 C 2.210938 -1.09375 2.234375 -1.238281 2.234375 -1.40625 C 2.234375 -1.738281 2.164062 -1.992188 2.03125 -2.171875 C 1.894531 -2.347656 1.703125 -2.4375 1.453125 -2.4375 C 1.191406 -2.4375 0.992188 -2.347656 0.859375 -2.171875 C 0.722656 -1.992188 0.65625 -1.738281 0.65625 -1.40625 Z M 1.453125 -2.984375 C 1.898438 -2.984375 2.238281 -2.84375 2.46875 -2.5625 C 2.707031 -2.289062 2.828125 -1.90625 2.828125 -1.40625 C 2.828125 -0.894531 2.707031 -0.515625 2.46875 -0.265625 C 2.238281 -0.0234375 1.898438 0.09375 1.453125 0.09375 C 0.992188 0.09375 0.644531 -0.03125 0.40625 -0.28125 C 0.175781 -0.539062 0.0625 -0.921875 0.0625 -1.421875 C 0.0625 -1.660156 0.09375 -1.875 0.15625 -2.0625 C 0.21875 -2.257812 0.304688 -2.425781 0.421875 -2.5625 C 0.535156 -2.695312 0.675781 -2.800781 0.84375 -2.875 C 1.019531 -2.945312 1.222656 -2.984375 1.453125 -2.984375 Z M 1.453125 -2.984375 "/></g></g></g><g fill="#000000" fill-opacity="1"><g transform="translate(42.813494, 95.88384)"><g><path d="M 2.875 0 L 2.296875 0 L 1.859375 -1.859375 L 1.84375 -1.859375 L 1.390625 0 L 0.828125 0 L 0.015625 -2.890625 L 0.65625 -2.890625 L 1.125 -1.015625 L 1.53125 -2.890625 L 2.15625 -2.890625 L 2.609375 -1.015625 L 3.078125 -2.890625 L 3.6875 -2.890625 Z M 2.875 0 "/></g></g></g><g fill="#000000" fill-opacity="1"><g transform="translate(48.498981, 95.88384)"><g><path d="M 2.453125 0 L 1.84375 0 L 0.65625 -1.9375 L 0.65625 0 L 0.09375 0 L 0.09375 -2.890625 L 0.734375 -2.890625 L 1.890625 -1 L 1.890625 -2.890625 L 2.453125 -2.890625 Z M 2.453125 0 "/></g></g></g><g fill="#000000" fill-opacity="1"><g transform="translate(82.003886, 95.88384)"><g><path d="M 2.15625 -2.375 L 0.703125 -2.375 L 0.703125 -1.71875 L 1.96875 -1.71875 L 1.96875 -1.21875 L 0.703125 -1.21875 L 0.703125 0 L 0.09375 0 L 0.09375 -2.890625 L 2.15625 -2.890625 Z M 2.15625 -2.375 "/></g></g></g><g fill="#000000" fill-opacity="1"><g transform="translate(86.16137, 95.88384)"><g><path d="M 1.375 -2.234375 L 1.015625 -1.09375 L 1.75 -1.09375 L 1.390625 -2.234375 Z M 2.75 0 L 2.09375 0 L 1.921875 -0.59375 L 0.859375 -0.59375 L 0.65625 0 L 0.015625 0 L 1.046875 -2.890625 L 1.734375 -2.890625 Z M 2.75 0 "/></g></g></g><g fill="#000000" fill-opacity="1"><g transform="translate(90.918807, 95.88384)"><g><path d="M 0.6875 -1.265625 L 0.6875 -0.5 L 1.4375 -0.5 C 1.570312 -0.5 1.679688 -0.535156 1.765625 -0.609375 C 1.847656 -0.691406 1.890625 -0.789062 1.890625 -0.90625 C 1.890625 -1.03125 1.84375 -1.117188 1.75 -1.171875 C 1.664062 -1.234375 1.566406 -1.265625 1.453125 -1.265625 Z M 0.6875 -2.375 L 0.6875 -1.765625 L 1.40625 -1.765625 C 1.53125 -1.765625 1.628906 -1.789062 1.703125 -1.84375 C 1.773438 -1.894531 1.8125 -1.972656 1.8125 -2.078125 C 1.8125 -2.179688 1.78125 -2.253906 1.71875 -2.296875 C 1.65625 -2.347656 1.539062 -2.375 1.375 -2.375 Z M 1.515625 -2.890625 C 1.785156 -2.890625 2 -2.816406 2.15625 -2.671875 C 2.3125 -2.535156 2.390625 -2.34375 2.390625 -2.09375 C 2.390625 -1.820312 2.269531 -1.640625 2.03125 -1.546875 C 2.175781 -1.503906 2.285156 -1.421875 2.359375 -1.296875 C 2.429688 -1.171875 2.46875 -1.023438 2.46875 -0.859375 C 2.46875 -0.585938 2.378906 -0.375 2.203125 -0.21875 C 2.035156 -0.0703125 1.765625 0 1.390625 0 L 0.09375 0 L 0.09375 -2.890625 Z M 1.515625 -2.890625 "/></g></g></g><g fill="#000000" fill-opacity="1"><g transform="translate(3.860972, 121.449705)"><g><path d="M 0 -8.203125 L 4.921875 -8.203125 L 4.921875 -6.5625 L 1.640625 -6.5625 L 1.640625 -4.921875 L 4.109375 -4.921875 L 4.109375 -3.28125 L 1.640625 -3.28125 L 1.640625 0 L 0 0 Z M 0 -8.203125 "/></g></g></g><g fill="#000000" fill-opacity="1"><g transform="translate(9.517561, 121.449705)"><g><path d="M 0 0 L 0 -8.203125 L 1.640625 -8.203125 L 1.640625 0 Z M 0 0 "/></g></g></g><g fill="#000000" fill-opacity="1"><g transform="translate(12.025384, 121.449705)"><g><path d="M 0 -8.203125 L 4.921875 -3.71875 L 4.921875 -8.203125 L 6.5625 -8.203125 L 6.5625 0 L 1.640625 -4.484375 L 1.640625 0 L 0 0 Z M 0 -8.203125 "/></g></g></g><g fill="#000000" fill-opacity="1"><g transform="translate(19.482723, 121.449705)"><g><path d="M 0 -8.203125 L 4.921875 -8.203125 L 4.921875 -6.5625 L 1.640625 -6.5625 L 1.640625 -4.921875 L 4.109375 -4.921875 L 4.109375 -3.28125 L 1.640625 -3.28125 L 1.640625 -1.640625 L 4.921875 -1.640625 L 4.921875 0 L 0 0 Z M 0 -8.203125 "/></g></g></g><g fill="#000000" fill-opacity="1"><g transform="translate(25.139312, 121.449705)"><g/></g></g><g fill="#000000" fill-opacity="1"><g transform="translate(27.682743, 121.449705)"><g><path d="M 2.046875 -8.203125 L 5.75 -8.203125 L 5.75 -6.5625 L 3.6875 -6.5625 L 3.6875 0 L 2.046875 0 L 2.046875 -6.5625 L 0 -6.5625 L 0 -8.203125 Z M 2.046875 -8.203125 "/></g></g></g><g fill="#000000" fill-opacity="1"><g transform="translate(34.239707, 121.449705)"><g><path d="M 0 -8.203125 L 1.640625 -8.203125 L 1.640625 -4.921875 L 4.109375 -4.921875 L 4.109375 -8.203125 L 5.75 -8.203125 L 5.75 0 L 4.109375 0 L 4.109375 -3.28125 L 1.640625 -3.28125 L 1.640625 0 L 0 0 Z M 0 -8.203125 "/></g></g></g><g fill="#000000" fill-opacity="1"><g transform="translate(40.730542, 121.449705)"><g><path d="M 0 0 L 0 -8.203125 L 2.875 -8.203125 C 3.664062 -8.203125 4.34375 -7.921875 4.90625 -7.359375 C 5.46875 -6.796875 5.75 -6.117188 5.75 -5.328125 C 5.75 -4.722656 5.570312 -4.175781 5.21875 -3.6875 C 4.875 -3.195312 4.429688 -2.851562 3.890625 -2.65625 L 5.75 0 L 3.734375 0 L 1.640625 -3 L 1.640625 0 Z M 1.640625 -4.109375 L 2.875 -4.109375 C 3.207031 -4.109375 3.492188 -4.226562 3.734375 -4.46875 C 3.984375 -4.707031 4.109375 -4.992188 4.109375 -5.328125 C 4.109375 -5.671875 3.984375 -5.960938 3.734375 -6.203125 C 3.492188 -6.441406 3.207031 -6.5625 2.875 -6.5625 L 1.640625 -6.5625 Z M 1.640625 -4.109375 "/></g></g></g><g fill="#000000" fill-opacity="1"><g transform="translate(47.221377, 121.449705)"><g><path d="M 0 -8.203125 L 4.921875 -8.203125 L 4.921875 -6.5625 L 1.640625 -6.5625 L 1.640625 -4.921875 L 4.109375 -4.921875 L 4.109375 -3.28125 L 1.640625 -3.28125 L 1.640625 -1.640625 L 4.921875 -1.640625 L 4.921875 0 L 0 0 Z M 0 -8.203125 "/></g></g></g><g fill="#000000" fill-opacity="1"><g transform="translate(52.877967, 121.449705)"><g><path d="M 2.921875 -2.875 L 4.21875 -2.875 L 3.578125 -4.3125 Z M 2.1875 -1.234375 L 2.15625 -1.171875 L 1.640625 0 L -0.109375 0 L 3.390625 -7.828125 L 3.5625 -8.203125 L 3.75 -7.8125 L 7.265625 0 L 5.5 0 L 4.984375 -1.171875 L 4.953125 -1.234375 Z M 2.1875 -1.234375 "/></g></g></g><g fill="#000000" fill-opacity="1"><g transform="translate(60.462477, 121.449705)"><g><path d="M 1.640625 -8.203125 C 2.765625 -8.203125 3.734375 -7.800781 4.546875 -7 C 5.347656 -6.195312 5.75 -5.234375 5.75 -4.109375 C 5.75 -2.972656 5.347656 -2.003906 4.546875 -1.203125 C 3.734375 -0.398438 2.765625 0 1.640625 0 L 0 0 L 0 -8.203125 Z M 1.640625 -1.640625 C 2.316406 -1.640625 2.894531 -1.878906 3.375 -2.359375 C 3.863281 -2.835938 4.109375 -3.421875 4.109375 -4.109375 C 4.109375 -4.773438 3.863281 -5.351562 3.375 -5.84375 C 2.894531 -6.320312 2.316406 -6.5625 1.640625 -6.5625 Z M 1.640625 -1.640625 "/></g></g></g><g fill="#000000" fill-opacity="1"><g transform="translate(66.760011, 121.449705)"><g/></g></g><g fill="#000000" fill-opacity="1"><g transform="translate(69.303442, 121.449705)"><g><path d="M 4.109375 -8.203125 C 5.234375 -8.203125 6.195312 -7.800781 7 -7 C 7.800781 -6.195312 8.203125 -5.234375 8.203125 -4.109375 C 8.203125 -2.972656 7.800781 -2.003906 7 -1.203125 C 6.195312 -0.398438 5.234375 0 4.109375 0 C 2.972656 0 2.003906 -0.398438 1.203125 -1.203125 C 0.398438 -2.003906 0 -2.972656 0 -4.109375 C 0 -5.234375 0.398438 -6.195312 1.203125 -7 C 2.003906 -7.800781 2.972656 -8.203125 4.109375 -8.203125 Z M 4.109375 -6.5625 C 3.421875 -6.5625 2.835938 -6.320312 2.359375 -5.84375 C 1.878906 -5.351562 1.640625 -4.773438 1.640625 -4.109375 C 1.640625 -3.421875 1.878906 -2.835938 2.359375 -2.359375 C 2.835938 -1.878906 3.421875 -1.640625 4.109375 -1.640625 C 4.773438 -1.640625 5.351562 -1.878906 5.84375 -2.359375 C 6.320312 -2.835938 6.5625 -3.421875 6.5625 -4.109375 C 6.5625 -4.773438 6.320312 -5.351562 5.84375 -5.84375 C 5.351562 -6.320312 4.773438 -6.5625 4.109375 -6.5625 Z M 4.109375 -6.5625 "/></g></g></g><g fill="#000000" fill-opacity="1"><g transform="translate(77.981627, 121.449705)"><g><path d="M 7.265625 -8.203125 L 3.5625 0 L 3.390625 -0.390625 L -0.109375 -8.203125 L 1.625 -8.203125 L 3.5625 -3.875 L 5.5 -8.203125 Z M 7.265625 -8.203125 "/></g></g></g><g fill="#000000" fill-opacity="1"><g transform="translate(85.566137, 121.449705)"><g><path d="M 0 -8.203125 L 4.921875 -8.203125 L 4.921875 -6.5625 L 1.640625 -6.5625 L 1.640625 -4.921875 L 4.109375 -4.921875 L 4.109375 -3.28125 L 1.640625 -3.28125 L 1.640625 -1.640625 L 4.921875 -1.640625 L 4.921875 0 L 0 0 Z M 0 -8.203125 "/></g></g></g><g fill="#000000" fill-opacity="1"><g transform="translate(91.222727, 121.449705)"><g><path d="M 0 0 L 0 -8.203125 L 2.875 -8.203125 C 3.664062 -8.203125 4.34375 -7.921875 4.90625 -7.359375 C 5.46875 -6.796875 5.75 -6.117188 5.75 -5.328125 C 5.75 -4.722656 5.570312 -4.175781 5.21875 -3.6875 C 4.875 -3.195312 4.429688 -2.851562 3.890625 -2.65625 L 5.75 0 L 3.734375 0 L 1.640625 -3 L 1.640625 0 Z M 1.640625 -4.109375 L 2.875 -4.109375 C 3.207031 -4.109375 3.492188 -4.226562 3.734375 -4.46875 C 3.984375 -4.707031 4.109375 -4.992188 4.109375 -5.328125 C 4.109375 -5.671875 3.984375 -5.960938 3.734375 -6.203125 C 3.492188 -6.441406 3.207031 -6.5625 2.875 -6.5625 L 1.640625 -6.5625 Z M 1.640625 -4.109375 "/></g></g></g><g fill="#000000" fill-opacity="1"><g transform="translate(97.713562, 121.449705)"><g><path d="M 2.3125 -3.34375 C 2.257812 -3.363281 2.109375 -3.414062 1.859375 -3.5 C 1.609375 -3.582031 1.347656 -3.710938 1.078125 -3.890625 C 0.796875 -4.078125 0.546875 -4.320312 0.328125 -4.625 C 0.109375 -4.925781 0 -5.300781 0 -5.75 C 0 -6.425781 0.238281 -7.003906 0.71875 -7.484375 C 1.195312 -7.960938 1.78125 -8.203125 2.46875 -8.203125 C 3.132812 -8.203125 3.710938 -7.960938 4.203125 -7.484375 C 4.679688 -7.003906 4.921875 -6.425781 4.921875 -5.75 L 3.28125 -5.75 C 3.28125 -5.96875 3.203125 -6.160156 3.046875 -6.328125 C 2.878906 -6.484375 2.6875 -6.5625 2.46875 -6.5625 C 2.238281 -6.5625 2.046875 -6.484375 1.890625 -6.328125 C 1.722656 -6.160156 1.640625 -5.96875 1.640625 -5.75 C 1.640625 -5.457031 1.757812 -5.234375 2 -5.078125 C 2.226562 -4.929688 2.40625 -4.835938 2.53125 -4.796875 C 2.59375 -4.773438 2.75 -4.726562 3 -4.65625 C 3.257812 -4.582031 3.53125 -4.460938 3.8125 -4.296875 C 4.09375 -4.117188 4.347656 -3.882812 4.578125 -3.59375 C 4.804688 -3.300781 4.921875 -2.925781 4.921875 -2.46875 C 4.921875 -1.78125 4.679688 -1.195312 4.203125 -0.71875 C 3.710938 -0.238281 3.132812 0 2.46875 0 C 1.78125 0 1.195312 -0.238281 0.71875 -0.71875 C 0.238281 -1.195312 0 -1.78125 0 -2.46875 L 1.640625 -2.46875 C 1.640625 -2.238281 1.722656 -2.046875 1.890625 -1.890625 C 2.046875 -1.722656 2.238281 -1.640625 2.46875 -1.640625 C 2.6875 -1.640625 2.878906 -1.722656 3.046875 -1.890625 C 3.203125 -2.046875 3.28125 -2.238281 3.28125 -2.46875 C 3.28125 -2.8125 3.144531 -3.035156 2.875 -3.140625 C 2.59375 -3.234375 2.40625 -3.300781 2.3125 -3.34375 Z M 2.3125 -3.34375 "/></g></g></g><g fill="#000000" fill-opacity="1"><g transform="translate(103.304022, 121.449705)"><g><path d="M 0 -8.203125 L 4.921875 -8.203125 L 4.921875 -6.5625 L 1.640625 -6.5625 L 1.640625 -4.921875 L 4.109375 -4.921875 L 4.109375 -3.28125 L 1.640625 -3.28125 L 1.640625 -1.640625 L 4.921875 -1.640625 L 4.921875 0 L 0 0 Z M 0 -8.203125 "/></g></g></g><g fill="#000000" fill-opacity="1"><g transform="translate(108.960612, 121.449705)"><g><path d="M 2.921875 -2.875 L 4.21875 -2.875 L 3.578125 -4.3125 Z M 2.1875 -1.234375 L 2.15625 -1.171875 L 1.640625 0 L -0.109375 0 L 3.390625 -7.828125 L 3.5625 -8.203125 L 3.75 -7.8125 L 7.265625 0 L 5.5 0 L 4.984375 -1.171875 L 4.953125 -1.234375 Z M 2.1875 -1.234375 "/></g></g></g><g fill="#000000" fill-opacity="1"><g transform="translate(116.545122, 121.449705)"><g><path d="M 2.3125 -3.34375 C 2.257812 -3.363281 2.109375 -3.414062 1.859375 -3.5 C 1.609375 -3.582031 1.347656 -3.710938 1.078125 -3.890625 C 0.796875 -4.078125 0.546875 -4.320312 0.328125 -4.625 C 0.109375 -4.925781 0 -5.300781 0 -5.75 C 0 -6.425781 0.238281 -7.003906 0.71875 -7.484375 C 1.195312 -7.960938 1.78125 -8.203125 2.46875 -8.203125 C 3.132812 -8.203125 3.710938 -7.960938 4.203125 -7.484375 C 4.679688 -7.003906 4.921875 -6.425781 4.921875 -5.75 L 3.28125 -5.75 C 3.28125 -5.96875 3.203125 -6.160156 3.046875 -6.328125 C 2.878906 -6.484375 2.6875 -6.5625 2.46875 -6.5625 C 2.238281 -6.5625 2.046875 -6.484375 1.890625 -6.328125 C 1.722656 -6.160156 1.640625 -5.96875 1.640625 -5.75 C 1.640625 -5.457031 1.757812 -5.234375 2 -5.078125 C 2.226562 -4.929688 2.40625 -4.835938 2.53125 -4.796875 C 2.59375 -4.773438 2.75 -4.726562 3 -4.65625 C 3.257812 -4.582031 3.53125 -4.460938 3.8125 -4.296875 C 4.09375 -4.117188 4.347656 -3.882812 4.578125 -3.59375 C 4.804688 -3.300781 4.921875 -2.925781 4.921875 -2.46875 C 4.921875 -1.78125 4.679688 -1.195312 4.203125 -0.71875 C 3.710938 -0.238281 3.132812 0 2.46875 0 C 1.78125 0 1.195312 -0.238281 0.71875 -0.71875 C 0.238281 -1.195312 0 -1.78125 0 -2.46875 L 1.640625 -2.46875 C 1.640625 -2.238281 1.722656 -2.046875 1.890625 -1.890625 C 2.046875 -1.722656 2.238281 -1.640625 2.46875 -1.640625 C 2.6875 -1.640625 2.878906 -1.722656 3.046875 -1.890625 C 3.203125 -2.046875 3.28125 -2.238281 3.28125 -2.46875 C 3.28125 -2.8125 3.144531 -3.035156 2.875 -3.140625 C 2.59375 -3.234375 2.40625 -3.300781 2.3125 -3.34375 Z M 2.3125 -3.34375 "/></g></g></g></svg>