<svg xmlns="http://www.w3.org/2000/svg" xmlns:xlink="http://www.w3.org/1999/xlink" width="375" zoomAndPan="magnify" viewBox="0 0 281.25 281.249989" height="375" preserveAspectRatio="xMidYMid meet" version="1.0"><defs><g/><clipPath id="1f0c1de6f3"><path d="M 50.53125 11 L 230 11 L 230 239 L 50.53125 239 Z M 50.53125 11 " clip-rule="nonzero"/></clipPath><clipPath id="8fe18f66d7"><path d="M 101.042969 95.457031 L 173.964844 95.457031 L 173.964844 191 L 101.042969 191 Z M 101.042969 95.457031 " clip-rule="nonzero"/></clipPath></defs><path fill="#ffffff" d="M 226.59375 238.492188 L 53.917969 238.492188 C 53.539062 238.492188 53.179688 238.417969 52.828125 238.273438 C 52.480469 238.128906 52.171875 237.925781 51.90625 237.660156 C 51.640625 237.390625 51.433594 237.082031 51.289062 236.734375 C 51.144531 236.386719 51.074219 236.023438 51.074219 235.648438 L 51.074219 101.53125 C 51.074219 52.480469 91.207031 12.347656 140.253906 12.347656 C 189.304688 12.347656 229.4375 52.480469 229.4375 101.53125 L 229.4375 235.648438 C 229.4375 236.023438 229.367188 236.386719 229.222656 236.734375 C 229.078125 237.082031 228.871094 237.390625 228.605469 237.660156 C 228.339844 237.925781 228.03125 238.128906 227.683594 238.273438 C 227.332031 238.417969 226.96875 238.492188 226.59375 238.492188 Z M 226.59375 238.492188 " fill-opacity="1" fill-rule="nonzero"/><g clip-path="url(#1f0c1de6f3)"><path fill="#000000" d="M 226.59375 238.964844 L 53.917969 238.964844 C 53.476562 238.964844 53.054688 238.882812 52.648438 238.714844 C 52.242188 238.542969 51.882812 238.304688 51.570312 237.992188 C 51.257812 237.683594 51.019531 237.324219 50.851562 236.917969 C 50.683594 236.511719 50.597656 236.085938 50.597656 235.648438 L 50.597656 101.53125 C 50.589844 95.546875 51.179688 89.628906 52.371094 83.765625 C 53.5625 77.902344 55.332031 72.222656 57.671875 66.71875 C 58.804688 64.0625 60.0625 61.464844 61.441406 58.929688 C 62.824219 56.394531 64.320312 53.933594 65.9375 51.539062 C 67.554688 49.148438 69.28125 46.839844 71.117188 44.613281 C 72.957031 42.386719 74.894531 40.253906 76.9375 38.210938 C 78.976562 36.167969 81.109375 34.230469 83.339844 32.394531 C 85.566406 30.554688 87.875 28.828125 90.265625 27.214844 C 92.65625 25.597656 95.121094 24.097656 97.65625 22.71875 C 100.191406 21.335938 102.789062 20.082031 105.441406 18.949219 C 108.1875 17.785156 110.988281 16.761719 113.835938 15.875 C 116.683594 14.992188 119.570312 14.253906 122.492188 13.660156 C 125.417969 13.066406 128.363281 12.621094 131.328125 12.320312 C 134.296875 12.023438 137.273438 11.875 140.253906 11.875 C 143.238281 11.875 146.214844 12.023438 149.179688 12.320312 C 152.148438 12.621094 155.09375 13.066406 158.019531 13.660156 C 160.941406 14.253906 163.828125 14.992188 166.675781 15.875 C 169.523438 16.761719 172.320312 17.785156 175.066406 18.949219 C 177.722656 20.082031 180.320312 21.335938 182.855469 22.71875 C 185.390625 24.097656 187.855469 25.597656 190.246094 27.210938 C 192.636719 28.828125 194.945312 30.554688 197.175781 32.390625 C 199.402344 34.230469 201.535156 36.167969 203.574219 38.210938 C 205.617188 40.25 207.554688 42.386719 209.394531 44.613281 C 211.230469 46.839844 212.957031 49.148438 214.574219 51.539062 C 216.191406 53.933594 217.6875 56.394531 219.070312 58.929688 C 220.449219 61.464844 221.707031 64.0625 222.835938 66.71875 C 225.179688 72.222656 226.949219 77.902344 228.136719 83.765625 C 229.328125 89.628906 229.921875 95.546875 229.914062 101.53125 L 229.914062 235.648438 C 229.914062 236.085938 229.828125 236.511719 229.660156 236.917969 C 229.492188 237.324219 229.25 237.683594 228.941406 237.992188 C 228.628906 238.304688 228.269531 238.542969 227.863281 238.714844 C 227.457031 238.882812 227.03125 238.964844 226.59375 238.964844 Z M 140.253906 12.820312 C 134.335938 12.8125 128.480469 13.394531 122.679688 14.574219 C 116.878906 15.75 111.257812 17.5 105.8125 19.816406 C 103.183594 20.9375 100.617188 22.179688 98.105469 23.546875 C 95.597656 24.910156 93.160156 26.394531 90.792969 27.992188 C 88.425781 29.59375 86.140625 31.300781 83.9375 33.117188 C 81.734375 34.9375 79.621094 36.855469 77.601562 38.875 C 75.582031 40.894531 73.664062 43.007812 71.84375 45.210938 C 70.027344 47.414062 68.316406 49.699219 66.71875 52.066406 C 65.117188 54.433594 63.636719 56.871094 62.269531 59.382812 C 60.90625 61.890625 59.660156 64.460938 58.539062 67.085938 C 56.222656 72.53125 54.476562 78.15625 53.300781 83.953125 C 52.121094 89.753906 51.539062 95.613281 51.546875 101.53125 L 51.546875 235.648438 C 51.546875 235.960938 51.605469 236.261719 51.726562 236.554688 C 51.847656 236.84375 52.019531 237.101562 52.242188 237.324219 C 52.464844 237.546875 52.71875 237.714844 53.011719 237.835938 C 53.300781 237.957031 53.605469 238.015625 53.917969 238.015625 L 226.59375 238.015625 C 226.90625 238.015625 227.210938 237.957031 227.5 237.835938 C 227.789062 237.714844 228.046875 237.546875 228.269531 237.324219 C 228.492188 237.101562 228.664062 236.84375 228.785156 236.554688 C 228.902344 236.261719 228.964844 235.960938 228.964844 235.648438 L 228.964844 101.53125 C 228.972656 95.613281 228.386719 89.753906 227.210938 83.953125 C 226.03125 78.15625 224.28125 72.53125 221.964844 67.085938 C 220.84375 64.460938 219.601562 61.890625 218.238281 59.382812 C 216.871094 56.875 215.390625 54.4375 213.792969 52.070312 C 212.191406 49.703125 210.484375 47.417969 208.667969 45.214844 C 206.851562 43.011719 204.933594 40.898438 202.914062 38.878906 C 200.894531 36.859375 198.78125 34.9375 196.578125 33.121094 C 194.375 31.304688 192.089844 29.59375 189.726562 27.996094 C 187.359375 26.394531 184.921875 24.914062 182.414062 23.546875 C 179.90625 22.179688 177.335938 20.9375 174.710938 19.816406 C 169.261719 17.496094 163.640625 15.75 157.835938 14.574219 C 152.035156 13.394531 146.175781 12.8125 140.253906 12.820312 Z M 140.253906 12.820312 " fill-opacity="1" fill-rule="nonzero"/></g><path fill="#ffffff" d="M 222.277344 233.96875 L 58.234375 233.96875 C 57.878906 233.96875 57.53125 233.898438 57.203125 233.761719 C 56.871094 233.621094 56.578125 233.425781 56.324219 233.175781 C 56.074219 232.921875 55.878906 232.628906 55.738281 232.296875 C 55.601562 231.96875 55.535156 231.625 55.53125 231.265625 L 55.53125 101.59375 C 55.53125 54.996094 93.65625 16.871094 140.253906 16.871094 C 186.855469 16.871094 224.972656 54.996094 224.972656 101.59375 L 224.972656 231.277344 C 224.96875 231.632812 224.898438 231.976562 224.761719 232.304688 C 224.625 232.632812 224.429688 232.925781 224.175781 233.175781 C 223.921875 233.429688 223.632812 233.621094 223.304688 233.757812 C 222.976562 233.898438 222.632812 233.964844 222.277344 233.96875 Z M 222.277344 233.96875 " fill-opacity="1" fill-rule="nonzero"/><path fill="#000000" d="M 222.277344 234.441406 L 58.234375 234.441406 C 57.8125 234.441406 57.410156 234.359375 57.019531 234.199219 C 56.628906 234.039062 56.289062 233.808594 55.988281 233.511719 C 55.691406 233.214844 55.460938 232.871094 55.300781 232.480469 C 55.140625 232.089844 55.058594 231.6875 55.058594 231.265625 L 55.058594 101.59375 C 55.050781 95.910156 55.613281 90.28125 56.742188 84.710938 C 57.875 79.140625 59.554688 73.742188 61.78125 68.511719 C 62.859375 65.988281 64.050781 63.523438 65.363281 61.113281 C 66.675781 58.703125 68.097656 56.363281 69.632812 54.089844 C 71.171875 51.816406 72.8125 49.621094 74.558594 47.507812 C 76.300781 45.390625 78.144531 43.363281 80.085938 41.421875 C 82.023438 39.484375 84.050781 37.640625 86.167969 35.894531 C 88.285156 34.148438 90.480469 32.507812 92.75 30.972656 C 95.023438 29.4375 97.367188 28.011719 99.773438 26.699219 C 102.183594 25.386719 104.648438 24.195312 107.171875 23.117188 C 109.78125 22.011719 112.441406 21.039062 115.148438 20.199219 C 117.855469 19.359375 120.597656 18.660156 123.375 18.09375 C 126.152344 17.53125 128.953125 17.105469 131.773438 16.824219 C 134.59375 16.539062 137.421875 16.398438 140.253906 16.398438 C 143.089844 16.398438 145.917969 16.539062 148.738281 16.824219 C 151.558594 17.105469 154.355469 17.53125 157.132812 18.09375 C 159.914062 18.660156 162.65625 19.359375 165.363281 20.199219 C 168.070312 21.039062 170.726562 22.011719 173.335938 23.117188 C 175.859375 24.195312 178.328125 25.386719 180.738281 26.699219 C 183.144531 28.011719 185.488281 29.4375 187.757812 30.972656 C 190.03125 32.507812 192.226562 34.148438 194.34375 35.894531 C 196.457031 37.640625 198.488281 39.484375 200.425781 41.421875 C 202.367188 43.363281 204.207031 45.390625 205.953125 47.507812 C 207.699219 49.621094 209.339844 51.816406 210.878906 54.089844 C 212.414062 56.363281 213.835938 58.703125 215.148438 61.113281 C 216.460938 63.523438 217.65625 65.988281 218.730469 68.511719 C 220.957031 73.742188 222.632812 79.144531 223.765625 84.714844 C 224.894531 90.285156 225.453125 95.910156 225.445312 101.59375 L 225.445312 231.277344 C 225.445312 231.695312 225.363281 232.101562 225.199219 232.488281 C 225.039062 232.875 224.808594 233.214844 224.511719 233.511719 C 224.214844 233.808594 223.875 234.039062 223.484375 234.199219 C 223.097656 234.359375 222.695312 234.441406 222.277344 234.441406 Z M 140.246094 17.34375 C 134.625 17.335938 129.058594 17.886719 123.550781 19.007812 C 118.042969 20.125 112.703125 21.78125 107.527344 23.984375 C 102.527344 26.117188 97.773438 28.707031 93.269531 31.753906 C 88.765625 34.800781 84.589844 38.25 80.746094 42.09375 C 76.902344 45.941406 73.457031 50.117188 70.414062 54.625 C 67.371094 59.132812 64.785156 63.886719 62.65625 68.890625 C 60.453125 74.0625 58.796875 79.40625 57.675781 84.914062 C 56.558594 90.421875 56.003906 95.988281 56.015625 101.609375 L 56.015625 231.292969 C 56.015625 231.585938 56.074219 231.871094 56.1875 232.144531 C 56.300781 232.417969 56.460938 232.65625 56.667969 232.867188 C 56.878906 233.074219 57.121094 233.238281 57.390625 233.351562 C 57.664062 233.460938 57.949219 233.519531 58.246094 233.519531 L 222.277344 233.519531 C 222.570312 233.519531 222.855469 233.460938 223.128906 233.351562 C 223.402344 233.238281 223.640625 233.074219 223.851562 232.867188 C 224.058594 232.65625 224.222656 232.417969 224.335938 232.144531 C 224.449219 231.871094 224.503906 231.585938 224.503906 231.292969 L 224.503906 101.59375 C 224.515625 95.972656 223.960938 90.40625 222.84375 84.898438 C 221.726562 79.390625 220.066406 74.050781 217.867188 68.878906 C 215.730469 63.875 213.140625 59.121094 210.097656 54.617188 C 207.050781 50.109375 203.605469 45.933594 199.761719 42.089844 C 195.914062 38.246094 191.738281 34.800781 187.230469 31.757812 C 182.726562 28.714844 177.96875 26.125 172.96875 23.992188 C 167.796875 21.792969 162.457031 20.132812 156.949219 19.011719 C 151.441406 17.890625 145.875 17.335938 140.253906 17.34375 Z M 140.246094 17.34375 " fill-opacity="1" fill-rule="nonzero"/><g fill="#000000" fill-opacity="1"><g transform="translate(71.032132, 120.749342)"><g><path d="M -0.625 -4.984375 L -0.5 -3.984375 L -3.609375 -2.796875 L -3.609375 -2.78125 L -0.3125 -2.421875 L -0.1875 -1.4375 L -5 0.59375 L -5.140625 -0.5 L -2.015625 -1.75 L -5.328125 -2.03125 L -5.46875 -3.125 L -2.328125 -4.296875 L -5.671875 -4.703125 L -5.8125 -5.78125 Z M -0.625 -4.984375 "/></g></g></g><g fill="#000000" fill-opacity="1"><g transform="translate(70.077932, 110.547438)"><g><path d="M 0.046875 -4.25 L 0.03125 -3.203125 L -2.234375 -3.234375 L -2.25 -1.265625 L 0.015625 -1.234375 L 0 -0.171875 L -5.046875 -0.234375 L -5.03125 -1.296875 L -3.125 -1.265625 L -3.109375 -3.234375 L -5.015625 -3.265625 L -5 -4.3125 Z M 0.046875 -4.25 "/></g></g></g><g fill="#000000" fill-opacity="1"><g transform="translate(70.41378, 102.327698)"><g><path d="M -3.625 -4.390625 L -3.96875 -1.734375 L -2.890625 -1.59375 L -2.5625 -4.046875 L -1.703125 -3.921875 L -2.03125 -1.46875 L -0.734375 -1.296875 L -0.375 -4.078125 L 0.515625 -3.96875 L 0.015625 -0.171875 L -4.984375 -0.828125 L -4.5 -4.5 Z M -3.625 -4.390625 "/></g></g></g><g fill="#000000" fill-opacity="1"><g transform="translate(71.645499, 94.61472)"><g><path d="M -3.75 -2.203125 L -2.4375 -1.875 L -2.109375 -3.140625 C -2.054688 -3.359375 -2.070312 -3.550781 -2.15625 -3.71875 C -2.25 -3.882812 -2.390625 -3.988281 -2.578125 -4.03125 C -2.765625 -4.082031 -2.9375 -4.054688 -3.09375 -3.953125 C -3.257812 -3.847656 -3.367188 -3.695312 -3.421875 -3.5 Z M 1.03125 -4.03125 L 0.765625 -3.015625 L -0.484375 -3.328125 C -0.734375 -3.390625 -0.921875 -3.375 -1.046875 -3.28125 C -1.179688 -3.195312 -1.28125 -3.015625 -1.34375 -2.734375 L -1.625 -1.65625 L 0.296875 -1.171875 L 0.046875 -0.171875 L -4.84375 -1.421875 L -4.21875 -3.90625 C -4.15625 -4.125 -4.0625 -4.316406 -3.9375 -4.484375 C -3.820312 -4.660156 -3.679688 -4.796875 -3.515625 -4.890625 C -3.359375 -4.992188 -3.179688 -5.054688 -2.984375 -5.078125 C -2.796875 -5.109375 -2.601562 -5.101562 -2.40625 -5.0625 C -2.144531 -4.988281 -1.925781 -4.859375 -1.75 -4.671875 C -1.582031 -4.492188 -1.484375 -4.273438 -1.453125 -4.015625 C -1.335938 -4.222656 -1.195312 -4.351562 -1.03125 -4.40625 C -0.863281 -4.46875 -0.632812 -4.457031 -0.34375 -4.375 Z M 1.03125 -4.03125 "/></g></g></g><g fill="#000000" fill-opacity="1"><g transform="translate(73.888885, 86.766454)"><g><path d="M -2.484375 -5.109375 L -3.4375 -2.625 L -2.4375 -2.234375 L -1.546875 -4.53125 L -0.734375 -4.21875 L -1.625 -1.921875 L -0.390625 -1.453125 L 0.609375 -4.0625 L 1.4375 -3.734375 L 0.0625 -0.15625 L -4.640625 -1.96875 L -3.3125 -5.421875 Z M -2.484375 -5.109375 "/></g></g></g><g fill="#000000" fill-opacity="1"><g transform="translate(76.938464, 79.544089)"><g/></g></g><g fill="#000000" fill-opacity="1"><g transform="translate(79.623875, 74.510379)"><g><path d="M -2.984375 -4.96875 C -2.554688 -5.625 -2.023438 -5.992188 -1.390625 -6.078125 C -0.765625 -6.171875 -0.0859375 -5.976562 0.640625 -5.5 C 0.898438 -5.332031 1.125 -5.132812 1.3125 -4.90625 C 1.5 -4.675781 1.640625 -4.429688 1.734375 -4.171875 C 1.835938 -3.921875 1.882812 -3.660156 1.875 -3.390625 C 1.875 -3.117188 1.8125 -2.832031 1.6875 -2.53125 C 1.914062 -2.375 2.113281 -2.300781 2.28125 -2.3125 C 2.457031 -2.332031 2.59375 -2.410156 2.6875 -2.546875 C 2.757812 -2.660156 2.769531 -2.796875 2.71875 -2.953125 C 2.664062 -3.117188 2.539062 -3.265625 2.34375 -3.390625 L 2.84375 -4.171875 C 3.039062 -4.046875 3.203125 -3.890625 3.328125 -3.703125 C 3.460938 -3.523438 3.554688 -3.335938 3.609375 -3.140625 C 3.660156 -2.953125 3.664062 -2.753906 3.625 -2.546875 C 3.59375 -2.347656 3.519531 -2.160156 3.40625 -1.984375 C 3.289062 -1.804688 3.148438 -1.660156 2.984375 -1.546875 C 2.828125 -1.441406 2.65625 -1.367188 2.46875 -1.328125 C 2.289062 -1.296875 2.109375 -1.300781 1.921875 -1.34375 C 1.734375 -1.382812 1.539062 -1.46875 1.34375 -1.59375 L 1.21875 -1.6875 C 0.78125 -1.195312 0.296875 -0.925781 -0.234375 -0.875 C -0.765625 -0.820312 -1.359375 -1.015625 -2.015625 -1.453125 C -2.367188 -1.679688 -2.660156 -1.929688 -2.890625 -2.203125 C -3.117188 -2.484375 -3.269531 -2.769531 -3.34375 -3.0625 C -3.425781 -3.363281 -3.4375 -3.675781 -3.375 -4 C -3.320312 -4.320312 -3.191406 -4.644531 -2.984375 -4.96875 Z M -1.4375 -2.3125 C -0.9375 -1.988281 -0.503906 -1.851562 -0.140625 -1.90625 C 0.222656 -1.957031 0.523438 -2.164062 0.765625 -2.53125 C 0.878906 -2.695312 0.953125 -2.863281 0.984375 -3.03125 C 1.015625 -3.207031 1.003906 -3.382812 0.953125 -3.5625 C 0.898438 -3.738281 0.800781 -3.914062 0.65625 -4.09375 C 0.507812 -4.269531 0.3125 -4.441406 0.0625 -4.609375 C -0.425781 -4.929688 -0.863281 -5.082031 -1.25 -5.0625 C -1.644531 -5.039062 -1.96875 -4.84375 -2.21875 -4.46875 C -2.457031 -4.101562 -2.507812 -3.734375 -2.375 -3.359375 C -2.238281 -2.984375 -1.925781 -2.632812 -1.4375 -2.3125 Z M -1.4375 -2.3125 "/></g></g></g><g fill="#000000" fill-opacity="1"><g transform="translate(84.672022, 67.235852)"><g><path d="M 1.40625 -4.359375 C 1.875 -3.960938 2.113281 -3.523438 2.125 -3.046875 C 2.132812 -2.566406 1.925781 -2.078125 1.5 -1.578125 C 1.101562 -1.109375 0.675781 -0.832031 0.21875 -0.75 C -0.238281 -0.664062 -0.703125 -0.816406 -1.171875 -1.203125 L -3.734375 -3.390625 L -3.03125 -4.21875 L -0.53125 -2.09375 C -0.289062 -1.894531 -0.0546875 -1.796875 0.171875 -1.796875 C 0.410156 -1.796875 0.625 -1.90625 0.8125 -2.125 C 1.25 -2.632812 1.21875 -3.101562 0.71875 -3.53125 L -1.796875 -5.671875 L -1.109375 -6.5 Z M 1.40625 -4.359375 "/></g></g></g><g fill="#000000" fill-opacity="1"><g transform="translate(90.154809, 61.125041)"><g><path d="M -0.859375 -4.5 L 0.015625 -2.59375 L 0.96875 -3.46875 L -0.859375 -4.515625 Z M 3.5625 -3.265625 L 2.703125 -2.484375 L 1.78125 -3.03125 L 0.40625 -1.78125 L 0.84375 -0.765625 L 0.015625 -0.015625 L -2.0625 -4.953125 L -1.15625 -5.78125 Z M 3.5625 -3.265625 "/></g></g></g><g fill="#000000" fill-opacity="1"><g transform="translate(96.707856, 55.477336)"><g><path d="M 0.46875 -1.46875 L 2.5 -2.921875 L 3.03125 -2.171875 L 0.140625 -0.09375 L -2.796875 -4.203125 L -1.9375 -4.828125 Z M 0.46875 -1.46875 "/></g></g></g><g fill="#000000" fill-opacity="1"><g transform="translate(103.033628, 51.245604)"><g><path d="M 1.0625 -0.625 L 0.15625 -0.09375 L -2.375 -4.453125 L -1.46875 -4.984375 Z M 1.0625 -0.625 "/></g></g></g><g fill="#000000" fill-opacity="1"><g transform="translate(107.623351, 48.722627)"><g><path d="M 2.046875 -5.5 L 0.65625 -4.859375 L 2.375 -1.078125 L 1.40625 -0.640625 L -0.3125 -4.421875 L -1.6875 -3.796875 L -2.0625 -4.609375 L 1.671875 -6.3125 Z M 2.046875 -5.5 "/></g></g></g><g fill="#000000" fill-opacity="1"><g transform="translate(114.965506, 45.620601)"><g><path d="M 2.140625 -2.65625 L 2.703125 -0.859375 L 1.6875 -0.53125 L 1.109375 -2.34375 L -1.484375 -4.828125 L -0.328125 -5.1875 L 1.296875 -3.5625 L 1.625 -5.8125 L 2.796875 -6.171875 Z M 2.140625 -2.65625 "/></g></g></g><g fill="#000000" fill-opacity="1"><g transform="translate(123.01951, 43.358381)"><g/></g></g><g fill="#000000" fill-opacity="1"><g transform="translate(128.629738, 42.332316)"><g><path d="M 5.046875 -0.46875 L 4.0625 -0.375 L 3.75 -3.8125 L 3.125 -0.28125 L 2.078125 -0.1875 L 0.84375 -3.53125 L 1.15625 -0.109375 L 0.171875 -0.015625 L -0.296875 -5.046875 L 1.25 -5.1875 L 2.484375 -1.578125 L 2.5 -1.578125 L 3.0625 -5.359375 L 4.578125 -5.5 Z M 5.046875 -0.46875 "/></g></g></g><g fill="#000000" fill-opacity="1"><g transform="translate(137.649766, 41.778965)"><g><path d="M 4.015625 -4.03125 L 1.34375 -4.109375 L 1.3125 -3.03125 L 3.78125 -2.953125 L 3.75 -2.078125 L 1.28125 -2.15625 L 1.234375 -0.84375 L 4.03125 -0.75 L 4 0.140625 L 0.171875 0 L 0.34375 -5.046875 L 4.046875 -4.921875 Z M 4.015625 -4.03125 "/></g></g></g><g fill="#000000" fill-opacity="1"><g transform="translate(145.449507, 42.25982)"><g><path d="M 4.453125 -3.53125 L 1.8125 -3.9375 L 1.640625 -2.875 L 4.078125 -2.5 L 3.953125 -1.625 L 1.515625 -2 L 1.3125 -0.703125 L 4.078125 -0.28125 L 3.953125 0.59375 L 0.171875 0.03125 L 0.921875 -4.953125 L 4.578125 -4.40625 Z M 4.453125 -3.53125 "/></g></g></g><g fill="#000000" fill-opacity="1"><g transform="translate(153.139652, 43.638271)"><g><path d="M 5.09375 -2.921875 L 3.609375 -3.328125 L 2.515625 0.6875 L 1.484375 0.40625 L 2.578125 -3.609375 L 1.125 -4 L 1.359375 -4.859375 L 5.328125 -3.78125 Z M 5.09375 -2.921875 "/></g></g></g><g fill="#000000" fill-opacity="1"><g transform="translate(160.769504, 45.954891)"><g><path d="M 4.125 -2.140625 C 4.195312 -2.390625 4.175781 -2.609375 4.0625 -2.796875 C 3.945312 -2.984375 3.757812 -3.128906 3.5 -3.234375 C 3.269531 -3.328125 3.050781 -3.351562 2.84375 -3.3125 C 2.644531 -3.28125 2.507812 -3.179688 2.4375 -3.015625 C 2.382812 -2.890625 2.394531 -2.753906 2.46875 -2.609375 C 2.539062 -2.460938 2.691406 -2.304688 2.921875 -2.140625 C 3.109375 -2.015625 3.269531 -1.894531 3.40625 -1.78125 C 3.539062 -1.675781 3.660156 -1.582031 3.765625 -1.5 C 3.878906 -1.425781 3.972656 -1.351562 4.046875 -1.28125 C 4.128906 -1.21875 4.203125 -1.144531 4.265625 -1.0625 C 4.421875 -0.894531 4.515625 -0.707031 4.546875 -0.5 C 4.578125 -0.300781 4.539062 -0.078125 4.4375 0.171875 C 4.34375 0.410156 4.210938 0.601562 4.046875 0.75 C 3.878906 0.90625 3.6875 1.015625 3.46875 1.078125 C 3.257812 1.140625 3.035156 1.164062 2.796875 1.15625 C 2.554688 1.144531 2.3125 1.085938 2.0625 0.984375 C 0.71875 0.429688 0.238281 -0.367188 0.625 -1.421875 L 1.5625 -1.03125 C 1.476562 -0.789062 1.5 -0.5625 1.625 -0.34375 C 1.757812 -0.132812 1.972656 0.0234375 2.265625 0.140625 C 2.378906 0.179688 2.5 0.210938 2.625 0.234375 C 2.75 0.265625 2.863281 0.269531 2.96875 0.25 C 3.082031 0.238281 3.179688 0.203125 3.265625 0.140625 C 3.347656 0.0859375 3.410156 0.015625 3.453125 -0.078125 C 3.554688 -0.347656 3.394531 -0.640625 2.96875 -0.953125 C 2.601562 -1.210938 2.328125 -1.414062 2.140625 -1.5625 C 1.960938 -1.71875 1.835938 -1.835938 1.765625 -1.921875 C 1.566406 -2.128906 1.445312 -2.34375 1.40625 -2.5625 C 1.363281 -2.78125 1.398438 -3.03125 1.515625 -3.3125 C 1.597656 -3.507812 1.710938 -3.679688 1.859375 -3.828125 C 2.003906 -3.972656 2.175781 -4.082031 2.375 -4.15625 C 2.570312 -4.226562 2.789062 -4.257812 3.03125 -4.25 C 3.28125 -4.238281 3.546875 -4.175781 3.828125 -4.0625 C 4.085938 -3.957031 4.3125 -3.820312 4.5 -3.65625 C 4.695312 -3.5 4.851562 -3.316406 4.96875 -3.109375 C 5.082031 -2.910156 5.144531 -2.695312 5.15625 -2.46875 C 5.175781 -2.238281 5.144531 -2.003906 5.0625 -1.765625 Z M 4.125 -2.140625 "/></g></g></g><g fill="#000000" fill-opacity="1"><g transform="translate(168.150245, 49.22893)"><g/></g></g><g fill="#000000" fill-opacity="1"><g transform="translate(173.132751, 52.032513)"><g><path d="M 5.53125 -1.296875 L 3.3125 -2.78125 L 2.703125 -1.890625 L 4.75 -0.515625 L 4.265625 0.21875 L 2.21875 -1.15625 L 1.5 -0.0625 L 3.828125 1.484375 L 3.328125 2.21875 L 0.140625 0.09375 L 2.9375 -4.109375 L 6.015625 -2.046875 Z M 5.53125 -1.296875 "/></g></g></g><g fill="#000000" fill-opacity="1"><g transform="translate(179.506057, 56.54365)"><g><path d="M 3.890625 -0.109375 L 3.4375 2.953125 L 2.453125 2.109375 L 2.859375 0.171875 L 0.953125 0.828125 L 0.03125 0.015625 L 2.9375 -0.859375 L 3.375 -3.75 L 4.328125 -2.9375 L 3.953125 -1.09375 L 5.71875 -1.75 L 6.640625 -0.953125 Z M 3.890625 -0.109375 "/></g></g></g><g fill="#000000" fill-opacity="1"><g transform="translate(185.69461, 62.161934)"><g><path d="M 4.90625 0.359375 C 5.070312 0.117188 5.144531 -0.128906 5.125 -0.390625 C 5.101562 -0.648438 5.007812 -0.875 4.84375 -1.0625 C 4.707031 -1.207031 4.550781 -1.304688 4.375 -1.359375 C 4.207031 -1.421875 4.023438 -1.441406 3.828125 -1.421875 C 3.640625 -1.398438 3.445312 -1.335938 3.25 -1.234375 C 3.050781 -1.128906 2.851562 -0.988281 2.65625 -0.8125 C 2.46875 -0.632812 2.3125 -0.453125 2.1875 -0.265625 C 2.0625 -0.0859375 1.976562 0.0859375 1.9375 0.265625 C 1.894531 0.453125 1.890625 0.632812 1.921875 0.8125 C 1.960938 0.988281 2.050781 1.144531 2.1875 1.28125 C 2.394531 1.507812 2.625 1.640625 2.875 1.671875 C 3.125 1.703125 3.390625 1.632812 3.671875 1.46875 L 4.390625 2.25 C 4.128906 2.40625 3.867188 2.515625 3.609375 2.578125 C 3.359375 2.648438 3.109375 2.675781 2.859375 2.65625 C 2.617188 2.632812 2.382812 2.5625 2.15625 2.4375 C 1.925781 2.3125 1.710938 2.132812 1.515625 1.90625 C 1.296875 1.675781 1.128906 1.414062 1.015625 1.125 C 0.898438 0.84375 0.851562 0.546875 0.875 0.234375 C 0.90625 -0.0664062 1.003906 -0.367188 1.171875 -0.671875 C 1.335938 -0.984375 1.578125 -1.285156 1.890625 -1.578125 C 2.210938 -1.859375 2.535156 -2.070312 2.859375 -2.21875 C 3.179688 -2.363281 3.5 -2.441406 3.8125 -2.453125 C 4.125 -2.460938 4.425781 -2.398438 4.71875 -2.265625 C 5.007812 -2.140625 5.273438 -1.945312 5.515625 -1.6875 C 5.722656 -1.445312 5.875 -1.203125 5.96875 -0.953125 C 6.070312 -0.703125 6.125 -0.453125 6.125 -0.203125 C 6.132812 0.046875 6.09375 0.285156 6 0.515625 C 5.90625 0.742188 5.78125 0.953125 5.625 1.140625 Z M 4.90625 0.359375 "/></g></g></g><g fill="#000000" fill-opacity="1"><g transform="translate(191.169247, 68.564739)"><g><path d="M 1.46875 0.46875 L 2.921875 2.515625 L 2.171875 3.046875 L 0.09375 0.140625 L 4.203125 -2.78125 L 4.828125 -1.921875 Z M 1.46875 0.46875 "/></g></g></g><g fill="#000000" fill-opacity="1"><g transform="translate(195.391904, 74.854263)"><g><path d="M 3.546875 2.890625 C 3.015625 3.179688 2.523438 3.242188 2.078125 3.078125 C 1.628906 2.910156 1.25 2.539062 0.9375 1.96875 C 0.632812 1.425781 0.523438 0.925781 0.609375 0.46875 C 0.703125 0.0078125 1.015625 -0.359375 1.546875 -0.640625 L 4.5 -2.265625 L 5.015625 -1.328125 L 2.140625 0.25 C 1.867188 0.394531 1.691406 0.578125 1.609375 0.796875 C 1.523438 1.023438 1.550781 1.269531 1.6875 1.53125 C 2.007812 2.113281 2.457031 2.25 3.03125 1.9375 L 5.9375 0.34375 L 6.453125 1.296875 Z M 3.546875 2.890625 "/></g></g></g><g fill="#000000" fill-opacity="1"><g transform="translate(199.131201, 82.170386)"><g><path d="M 4.421875 1.484375 C 4.640625 1.367188 4.773438 1.203125 4.828125 0.984375 C 4.878906 0.773438 4.851562 0.539062 4.75 0.28125 C 4.65625 0.0507812 4.523438 -0.125 4.359375 -0.25 C 4.203125 -0.375 4.035156 -0.398438 3.859375 -0.328125 C 3.734375 -0.273438 3.640625 -0.175781 3.578125 -0.03125 C 3.523438 0.113281 3.523438 0.332031 3.578125 0.625 C 3.609375 0.84375 3.632812 1.039062 3.65625 1.21875 C 3.675781 1.394531 3.691406 1.546875 3.703125 1.671875 C 3.710938 1.804688 3.71875 1.925781 3.71875 2.03125 C 3.726562 2.132812 3.734375 2.238281 3.734375 2.34375 C 3.722656 2.5625 3.648438 2.753906 3.515625 2.921875 C 3.390625 3.085938 3.203125 3.222656 2.953125 3.328125 C 2.710938 3.421875 2.476562 3.457031 2.25 3.4375 C 2.03125 3.425781 1.820312 3.367188 1.625 3.265625 C 1.4375 3.160156 1.265625 3.015625 1.109375 2.828125 C 0.953125 2.640625 0.820312 2.421875 0.71875 2.171875 C 0.175781 0.816406 0.421875 -0.0820312 1.453125 -0.53125 L 1.828125 0.40625 C 1.597656 0.519531 1.453125 0.695312 1.390625 0.9375 C 1.328125 1.175781 1.351562 1.441406 1.46875 1.734375 C 1.519531 1.847656 1.578125 1.957031 1.640625 2.0625 C 1.710938 2.175781 1.789062 2.265625 1.875 2.328125 C 1.96875 2.390625 2.0625 2.429688 2.15625 2.453125 C 2.25 2.484375 2.34375 2.484375 2.4375 2.453125 C 2.707031 2.335938 2.8125 2.007812 2.75 1.46875 C 2.675781 1.03125 2.628906 0.691406 2.609375 0.453125 C 2.597656 0.222656 2.597656 0.0507812 2.609375 -0.0625 C 2.609375 -0.34375 2.675781 -0.578125 2.8125 -0.765625 C 2.945312 -0.953125 3.15625 -1.097656 3.4375 -1.203125 C 3.644531 -1.285156 3.847656 -1.320312 4.046875 -1.3125 C 4.253906 -1.3125 4.453125 -1.265625 4.640625 -1.171875 C 4.828125 -1.078125 5 -0.9375 5.15625 -0.75 C 5.320312 -0.570312 5.460938 -0.34375 5.578125 -0.0625 C 5.679688 0.195312 5.738281 0.453125 5.75 0.703125 C 5.769531 0.960938 5.742188 1.203125 5.671875 1.421875 C 5.609375 1.640625 5.5 1.835938 5.34375 2.015625 C 5.195312 2.191406 5.015625 2.332031 4.796875 2.4375 Z M 4.421875 1.484375 "/></g></g></g><g fill="#000000" fill-opacity="1"><g transform="translate(201.886603, 89.766272)"><g><path d="M 0.34375 1.1875 L 0.046875 0.171875 L 4.890625 -1.234375 L 5.1875 -0.21875 Z M 0.34375 1.1875 "/></g></g></g><g fill="#000000" fill-opacity="1"><g transform="translate(203.227895, 94.825467)"><g><path d="M 0.484375 2.671875 L 0.3125 1.703125 L 4.96875 -0.875 L 5.171875 0.21875 L 1.875 1.953125 L 5.5625 2.390625 L 5.765625 3.453125 Z M 0.484375 2.671875 "/></g></g></g><g fill="#000000" fill-opacity="1"><g transform="translate(204.453227, 103.033326)"><g><path d="M 0.09375 1.234375 L 0.015625 0.171875 L 5.046875 -0.234375 L 5.125 0.828125 Z M 0.09375 1.234375 "/></g></g></g><g fill="#000000" fill-opacity="1"><g transform="translate(204.751808, 108.262654)"><g><path d="M 4.078125 4.21875 L 4.109375 2.6875 L -0.046875 2.609375 L -0.03125 1.546875 L 4.125 1.625 L 4.15625 0.109375 L 5.046875 0.125 L 4.96875 4.234375 Z M 4.078125 4.21875 "/></g></g></g><g fill="#000000" fill-opacity="1"><g transform="translate(204.387215, 116.22516)"><g><path d="M 1.484375 3.0625 L -0.390625 2.796875 L -0.25 1.75 L 1.640625 2.015625 L 5 0.734375 L 4.828125 1.9375 L 2.640625 2.71875 L 4.546875 3.96875 L 4.375 5.171875 Z M 1.484375 3.0625 "/></g></g></g><g clip-path="url(#8fe18f66d7)"><path fill="#000000" d="M 143.695312 109.863281 L 162.113281 109.863281 C 162.933594 109.863281 163.601562 109.203125 163.601562 108.382812 L 163.601562 97.53125 C 163.601562 96.714844 162.933594 96.050781 162.113281 96.050781 L 143.695312 96.050781 C 142.875 96.050781 142.210938 96.714844 142.210938 97.53125 L 142.210938 108.382812 C 142.210938 109.203125 142.875 109.863281 143.695312 109.863281 Z M 145.183594 99.011719 L 160.628906 99.011719 L 160.628906 106.90625 L 145.183594 106.90625 Z M 134.617188 157.929688 L 146.207031 145.429688 C 146.210938 145.425781 146.21875 145.417969 146.222656 145.410156 L 153.394531 137.675781 L 161.453125 128.988281 C 161.457031 128.984375 161.460938 128.976562 161.464844 128.972656 L 173.40625 116.097656 C 173.414062 116.085938 173.421875 116.078125 173.429688 116.066406 C 173.449219 116.046875 173.464844 116.027344 173.484375 116.003906 C 173.496094 115.988281 173.507812 115.96875 173.523438 115.953125 C 173.539062 115.929688 173.550781 115.910156 173.566406 115.886719 C 173.578125 115.867188 173.589844 115.847656 173.601562 115.828125 C 173.613281 115.804688 173.625 115.785156 173.636719 115.761719 C 173.648438 115.742188 173.660156 115.71875 173.667969 115.699219 C 173.679688 115.675781 173.6875 115.652344 173.695312 115.628906 C 173.707031 115.609375 173.714844 115.585938 173.722656 115.566406 C 173.730469 115.542969 173.734375 115.515625 173.742188 115.492188 C 173.75 115.472656 173.753906 115.449219 173.761719 115.425781 C 173.765625 115.402344 173.769531 115.378906 173.773438 115.351562 C 173.78125 115.328125 173.785156 115.304688 173.785156 115.28125 C 173.789062 115.257812 173.792969 115.234375 173.792969 115.210938 C 173.796875 115.183594 173.796875 115.160156 173.796875 115.132812 C 173.796875 115.121094 173.800781 115.105469 173.800781 115.09375 C 173.800781 115.082031 173.796875 115.074219 173.796875 115.0625 C 173.796875 115.039062 173.796875 115.011719 173.792969 114.988281 C 173.792969 114.964844 173.789062 114.9375 173.789062 114.914062 C 173.785156 114.890625 173.78125 114.871094 173.777344 114.847656 C 173.773438 114.820312 173.769531 114.796875 173.761719 114.769531 C 173.757812 114.75 173.753906 114.730469 173.746094 114.707031 C 173.742188 114.683594 173.734375 114.65625 173.726562 114.632812 C 173.71875 114.609375 173.710938 114.589844 173.703125 114.570312 C 173.695312 114.546875 173.683594 114.523438 173.675781 114.5 C 173.664062 114.476562 173.652344 114.457031 173.644531 114.433594 C 173.632812 114.414062 173.621094 114.390625 173.609375 114.371094 C 173.597656 114.351562 173.585938 114.328125 173.574219 114.308594 C 173.558594 114.289062 173.546875 114.269531 173.535156 114.25 C 173.519531 114.230469 173.503906 114.210938 173.492188 114.191406 C 173.476562 114.171875 173.460938 114.152344 173.445312 114.132812 C 173.429688 114.117188 173.414062 114.101562 173.398438 114.082031 C 173.378906 114.0625 173.363281 114.042969 173.34375 114.027344 C 173.335938 114.019531 173.328125 114.011719 173.324219 114.007812 C 173.3125 113.996094 173.304688 113.988281 173.292969 113.980469 C 173.273438 113.964844 173.253906 113.945312 173.230469 113.929688 C 173.210938 113.914062 173.195312 113.902344 173.175781 113.890625 C 173.15625 113.875 173.132812 113.859375 173.113281 113.847656 C 173.09375 113.832031 173.074219 113.820312 173.050781 113.808594 C 173.03125 113.796875 173.007812 113.785156 172.988281 113.773438 C 172.964844 113.765625 172.945312 113.753906 172.921875 113.742188 C 172.902344 113.734375 172.878906 113.726562 172.855469 113.714844 C 172.832031 113.707031 172.808594 113.699219 172.789062 113.691406 C 172.765625 113.683594 172.742188 113.675781 172.71875 113.671875 C 172.695312 113.664062 172.671875 113.65625 172.648438 113.652344 C 172.625 113.648438 172.601562 113.640625 172.578125 113.636719 C 172.554688 113.632812 172.527344 113.628906 172.5 113.625 C 172.480469 113.625 172.457031 113.621094 172.433594 113.621094 C 172.40625 113.617188 172.378906 113.617188 172.351562 113.613281 C 172.339844 113.613281 172.328125 113.613281 172.316406 113.613281 L 133.496094 113.613281 C 133.492188 113.613281 133.484375 113.613281 133.480469 113.613281 C 133.449219 113.613281 133.421875 113.617188 133.394531 113.617188 C 133.371094 113.621094 133.351562 113.621094 133.332031 113.621094 C 133.304688 113.625 133.277344 113.632812 133.25 113.636719 C 133.230469 113.640625 133.207031 113.640625 133.1875 113.644531 C 133.160156 113.652344 133.136719 113.660156 133.113281 113.664062 C 133.089844 113.671875 133.066406 113.675781 133.046875 113.683594 C 133.023438 113.691406 133 113.699219 132.976562 113.707031 C 132.953125 113.71875 132.933594 113.726562 132.910156 113.734375 C 132.890625 113.742188 132.867188 113.753906 132.847656 113.765625 C 132.824219 113.773438 132.800781 113.785156 132.78125 113.796875 C 132.761719 113.808594 132.742188 113.820312 132.722656 113.832031 C 132.699219 113.847656 132.675781 113.859375 132.65625 113.875 C 132.636719 113.886719 132.621094 113.898438 132.605469 113.910156 C 132.582031 113.929688 132.558594 113.945312 132.539062 113.964844 C 132.53125 113.96875 132.527344 113.972656 132.523438 113.976562 C 132.511719 113.984375 132.5 113.996094 132.488281 114.007812 C 132.46875 114.027344 132.449219 114.042969 132.429688 114.0625 C 132.414062 114.082031 132.398438 114.097656 132.382812 114.117188 C 132.367188 114.136719 132.351562 114.152344 132.335938 114.171875 C 132.320312 114.191406 132.304688 114.210938 132.289062 114.234375 C 132.277344 114.25 132.265625 114.269531 132.253906 114.289062 C 132.238281 114.308594 132.226562 114.332031 132.210938 114.355469 C 132.199219 114.375 132.191406 114.394531 132.179688 114.414062 C 132.167969 114.433594 132.15625 114.457031 132.148438 114.480469 C 132.136719 114.5 132.128906 114.523438 132.117188 114.546875 C 132.109375 114.566406 132.101562 114.589844 132.09375 114.609375 C 132.085938 114.636719 132.078125 114.660156 132.070312 114.683594 C 132.066406 114.707031 132.058594 114.726562 132.054688 114.75 C 132.050781 114.773438 132.042969 114.796875 132.039062 114.824219 C 132.035156 114.847656 132.03125 114.871094 132.027344 114.894531 C 132.023438 114.917969 132.019531 114.941406 132.019531 114.964844 C 132.015625 114.992188 132.015625 115.019531 132.015625 115.046875 C 132.015625 115.0625 132.011719 115.078125 132.011719 115.09375 C 132.011719 115.097656 132.011719 115.105469 132.015625 115.109375 C 132.015625 115.140625 132.015625 115.167969 132.019531 115.195312 C 132.019531 115.214844 132.019531 115.238281 132.023438 115.257812 C 132.027344 115.285156 132.03125 115.308594 132.035156 115.335938 C 132.039062 115.359375 132.042969 115.378906 132.046875 115.402344 C 132.050781 115.425781 132.058594 115.449219 132.0625 115.472656 C 132.070312 115.496094 132.074219 115.519531 132.082031 115.542969 C 132.089844 115.566406 132.097656 115.585938 132.109375 115.609375 C 132.117188 115.632812 132.125 115.65625 132.132812 115.679688 C 132.144531 115.699219 132.152344 115.71875 132.164062 115.738281 C 132.175781 115.761719 132.1875 115.785156 132.199219 115.808594 C 132.207031 115.828125 132.21875 115.84375 132.230469 115.863281 C 132.246094 115.886719 132.261719 115.910156 132.277344 115.933594 C 132.289062 115.949219 132.300781 115.964844 132.3125 115.980469 C 132.328125 116.003906 132.347656 116.027344 132.367188 116.050781 C 132.371094 116.054688 132.375 116.058594 132.378906 116.0625 L 150.320312 136.636719 L 145.164062 142.195312 L 134.621094 130.105469 C 134.082031 129.488281 133.144531 129.421875 132.523438 129.957031 C 131.90625 130.496094 131.839844 131.429688 132.378906 132.046875 L 143.136719 144.382812 L 138.070312 149.84375 L 134.621094 145.890625 C 134.082031 145.273438 133.144531 145.207031 132.523438 145.742188 C 131.90625 146.277344 131.839844 147.214844 132.375 147.832031 L 136.042969 152.03125 L 132.40625 155.949219 C 132.386719 155.972656 132.371094 155.992188 132.351562 156.011719 C 129.476562 159.484375 124.144531 164.570312 120.621094 165.296875 L 122.902344 132.757812 C 127.308594 132.074219 130.726562 127.511719 130.726562 122 C 130.726562 116.214844 128.242188 112.125 124.40625 111.304688 L 124.460938 110.523438 C 124.496094 110.21875 124.707031 108.121094 124.554688 105.617188 C 124.324219 101.871094 123.414062 99.128906 121.84375 97.460938 C 120.65625 96.199219 119.082031 95.570312 117.285156 95.625 C 117.265625 95.625 117.246094 95.621094 117.230469 95.621094 C 114.65625 95.621094 112.679688 96.289062 111.355469 97.613281 C 109.835938 99.132812 109.800781 100.910156 109.800781 101.109375 C 109.804688 101.921875 110.46875 102.5625 111.289062 102.5625 C 111.289062 102.5625 111.292969 102.5625 111.292969 102.5625 C 112.113281 102.5625 112.777344 101.910156 112.773438 101.09375 C 112.773438 101.085938 112.820312 100.347656 113.460938 99.707031 C 114.195312 98.972656 115.5 98.582031 117.230469 98.582031 C 117.234375 98.582031 117.242188 98.582031 117.246094 98.582031 C 117.265625 98.582031 117.285156 98.582031 117.304688 98.582031 C 118.292969 98.535156 119.050781 98.820312 119.675781 99.484375 C 121.90625 101.851562 121.753906 108.039062 121.507812 110.222656 C 121.503906 110.242188 121.5 110.265625 121.5 110.285156 L 117.316406 169.96875 L 113.164062 112.257812 C 113.105469 111.441406 112.394531 110.832031 111.578125 110.886719 C 110.757812 110.945312 110.144531 111.652344 110.203125 112.46875 L 112.074219 138.484375 C 105.550781 139.40625 101.050781 145.613281 101.464844 153.382812 C 101.875 161.050781 107.355469 166.847656 114.125 166.992188 L 115.746094 189.582031 C 115.804688 190.363281 116.457031 190.957031 117.226562 190.957031 C 117.261719 190.957031 117.296875 190.957031 117.332031 190.957031 C 117.367188 190.957031 117.402344 190.957031 117.4375 190.957031 C 118.210938 190.957031 118.863281 190.363281 118.917969 189.582031 L 120.410156 168.304688 C 126.3125 167.683594 133.609375 159.136719 134.617188 157.929688 Z M 160.40625 125.753906 L 152.402344 116.574219 L 168.917969 116.574219 Z M 136.753906 116.574219 L 148.464844 116.574219 L 158.378906 127.941406 L 152.34375 134.445312 Z M 127.753906 122 C 127.753906 125.734375 125.769531 128.867188 123.117188 129.683594 L 124.195312 114.304688 C 126.796875 115.1875 127.753906 118.824219 127.753906 122 Z M 104.429688 153.226562 C 104.261719 150.082031 105.066406 147.136719 106.695312 144.933594 C 108.125 143 110.042969 141.804688 112.285156 141.441406 L 113.910156 164.027344 C 108.832031 163.75 104.75 159.199219 104.429688 153.226562 Z M 173.800781 170.734375 C 173.800781 171.550781 173.132812 172.210938 172.3125 172.210938 L 133.496094 172.210938 C 132.675781 172.210938 132.011719 171.550781 132.011719 170.734375 C 132.011719 170.671875 132.015625 170.613281 132.023438 170.554688 C 131.972656 170.136719 132.097656 169.699219 132.40625 169.367188 L 171.222656 127.503906 C 171.78125 126.90625 172.71875 126.867188 173.320312 127.421875 C 173.925781 127.976562 173.960938 128.914062 173.40625 129.515625 L 136.554688 169.253906 L 146.234375 169.253906 L 171.222656 142.304688 C 171.78125 141.703125 172.71875 141.664062 173.320312 142.21875 C 173.925781 142.773438 173.960938 143.710938 173.40625 144.3125 L 150.277344 169.253906 L 160.6875 169.253906 L 171.222656 157.890625 C 171.78125 157.289062 172.71875 157.253906 173.320312 157.808594 C 173.925781 158.363281 173.960938 159.296875 173.40625 159.898438 L 164.730469 169.253906 L 172.3125 169.253906 C 173.132812 169.253906 173.800781 169.914062 173.800781 170.734375 Z M 162.113281 177.144531 L 143.695312 177.144531 C 142.875 177.144531 142.210938 177.808594 142.210938 178.625 L 142.210938 189.476562 C 142.210938 190.292969 142.875 190.957031 143.695312 190.957031 L 162.113281 190.957031 C 162.933594 190.957031 163.601562 190.292969 163.601562 189.476562 L 163.601562 178.625 C 163.601562 177.808594 162.933594 177.144531 162.113281 177.144531 Z M 160.628906 187.996094 L 145.183594 187.996094 L 145.183594 180.105469 L 160.628906 180.105469 Z M 104.46875 107.691406 C 104.195312 106.921875 104.601562 106.078125 105.375 105.804688 C 105.632812 105.714844 110.960938 103.882812 115.671875 105.078125 L 115.671875 104.535156 C 115.671875 103.71875 116.339844 103.058594 117.160156 103.058594 C 117.980469 103.058594 118.644531 103.71875 118.644531 104.535156 L 118.644531 107.175781 C 118.644531 107.175781 118.644531 107.179688 118.644531 107.179688 L 118.644531 109.863281 C 118.644531 110.679688 117.980469 111.34375 117.160156 111.34375 C 116.339844 111.34375 115.671875 110.679688 115.671875 109.863281 L 115.671875 108.164062 C 113.804688 107.488281 111.609375 107.570312 110 107.78125 C 107.925781 108.050781 106.378906 108.589844 106.363281 108.597656 C 106.199219 108.652344 106.035156 108.679688 105.871094 108.679688 C 105.257812 108.679688 104.683594 108.300781 104.46875 107.691406 Z M 104.46875 107.691406 " fill-opacity="1" fill-rule="nonzero"/></g><g fill="#000000" fill-opacity="1"><g transform="translate(65.641466, 212.707177)"><g><path d="M 4.640625 -4.328125 C 4.617188 -4.460938 4.566406 -4.59375 4.484375 -4.71875 C 4.398438 -4.851562 4.296875 -4.96875 4.171875 -5.0625 C 4.046875 -5.164062 3.898438 -5.242188 3.734375 -5.296875 C 3.566406 -5.347656 3.394531 -5.375 3.21875 -5.375 C 2.957031 -5.375 2.71875 -5.320312 2.5 -5.21875 C 2.289062 -5.113281 2.109375 -4.957031 1.953125 -4.75 C 1.804688 -4.550781 1.6875 -4.304688 1.59375 -4.015625 C 1.507812 -3.734375 1.46875 -3.421875 1.46875 -3.078125 C 1.46875 -2.753906 1.507812 -2.457031 1.59375 -2.1875 C 1.6875 -1.914062 1.804688 -1.679688 1.953125 -1.484375 C 2.109375 -1.296875 2.289062 -1.148438 2.5 -1.046875 C 2.71875 -0.941406 2.957031 -0.890625 3.21875 -0.890625 C 3.425781 -0.890625 3.625 -0.925781 3.8125 -1 C 4 -1.070312 4.160156 -1.171875 4.296875 -1.296875 C 4.429688 -1.429688 4.535156 -1.585938 4.609375 -1.765625 C 4.691406 -1.941406 4.734375 -2.125 4.734375 -2.3125 L 3.359375 -2.3125 L 3.359375 -3.359375 L 5.953125 -3.359375 L 5.953125 0.25 C 5.953125 0.570312 6.019531 0.796875 6.15625 0.921875 C 6.289062 1.046875 6.445312 1.109375 6.625 1.109375 C 6.820312 1.109375 6.976562 1.03125 7.09375 0.875 C 7.21875 0.726562 7.28125 0.476562 7.28125 0.125 L 8.421875 0.125 C 8.421875 0.476562 8.375 0.78125 8.28125 1.03125 C 8.1875 1.289062 8.054688 1.503906 7.890625 1.671875 C 7.722656 1.847656 7.523438 1.976562 7.296875 2.0625 C 7.078125 2.15625 6.835938 2.203125 6.578125 2.203125 C 6.304688 2.203125 6.054688 2.15625 5.828125 2.0625 C 5.609375 1.96875 5.414062 1.835938 5.25 1.671875 C 5.082031 1.503906 4.953125 1.304688 4.859375 1.078125 C 4.773438 0.847656 4.734375 0.59375 4.734375 0.3125 L 4.734375 -0.453125 C 4.554688 -0.210938 4.328125 -0.0390625 4.046875 0.0625 C 3.765625 0.164062 3.410156 0.21875 2.984375 0.21875 C 2.554688 0.21875 2.164062 0.132812 1.8125 -0.03125 C 1.46875 -0.207031 1.171875 -0.445312 0.921875 -0.75 C 0.671875 -1.050781 0.476562 -1.40625 0.34375 -1.8125 C 0.207031 -2.21875 0.140625 -2.660156 0.140625 -3.140625 C 0.140625 -3.597656 0.207031 -4.023438 0.34375 -4.421875 C 0.476562 -4.828125 0.671875 -5.179688 0.921875 -5.484375 C 1.179688 -5.785156 1.503906 -6.019531 1.890625 -6.1875 C 2.273438 -6.363281 2.71875 -6.453125 3.21875 -6.453125 C 3.59375 -6.453125 3.941406 -6.398438 4.265625 -6.296875 C 4.585938 -6.191406 4.867188 -6.046875 5.109375 -5.859375 C 5.359375 -5.671875 5.554688 -5.445312 5.703125 -5.1875 C 5.847656 -4.925781 5.929688 -4.640625 5.953125 -4.328125 Z M 4.640625 -4.328125 "/></g></g></g><g fill="#000000" fill-opacity="1"><g transform="translate(76.156447, 212.707177)"><g><path d="M 1.484375 -5.171875 L 1.484375 -3.5 L 3.109375 -3.5 C 3.398438 -3.5 3.628906 -3.578125 3.796875 -3.734375 C 3.972656 -3.898438 4.0625 -4.097656 4.0625 -4.328125 C 4.0625 -4.578125 3.972656 -4.78125 3.796875 -4.9375 C 3.628906 -5.09375 3.414062 -5.171875 3.15625 -5.171875 Z M 5.140625 0 L 3.859375 0 L 3.859375 -1.609375 C 3.859375 -1.910156 3.78125 -2.125 3.625 -2.25 C 3.476562 -2.382812 3.226562 -2.453125 2.875 -2.453125 L 1.484375 -2.453125 L 1.484375 0 L 0.21875 0 L 0.21875 -6.25 L 3.390625 -6.25 C 3.679688 -6.25 3.945312 -6.203125 4.1875 -6.109375 C 4.425781 -6.023438 4.628906 -5.898438 4.796875 -5.734375 C 4.972656 -5.578125 5.109375 -5.382812 5.203125 -5.15625 C 5.296875 -4.9375 5.34375 -4.695312 5.34375 -4.4375 C 5.34375 -4.09375 5.257812 -3.789062 5.09375 -3.53125 C 4.925781 -3.28125 4.691406 -3.097656 4.390625 -2.984375 C 4.660156 -2.898438 4.851562 -2.765625 4.96875 -2.578125 C 5.082031 -2.398438 5.140625 -2.128906 5.140625 -1.765625 Z M 5.140625 0 "/></g></g></g><g fill="#000000" fill-opacity="1"><g transform="translate(85.868051, 212.707177)"><g><path d="M 1.4375 -3.046875 C 1.4375 -2.304688 1.582031 -1.765625 1.875 -1.421875 C 2.164062 -1.078125 2.585938 -0.90625 3.140625 -0.90625 C 3.378906 -0.90625 3.601562 -0.945312 3.8125 -1.03125 C 4.019531 -1.113281 4.195312 -1.238281 4.34375 -1.40625 C 4.5 -1.582031 4.617188 -1.804688 4.703125 -2.078125 C 4.796875 -2.347656 4.84375 -2.671875 4.84375 -3.046875 C 4.84375 -3.785156 4.695312 -4.34375 4.40625 -4.71875 C 4.113281 -5.101562 3.691406 -5.296875 3.140625 -5.296875 C 2.585938 -5.296875 2.164062 -5.101562 1.875 -4.71875 C 1.582031 -4.34375 1.4375 -3.785156 1.4375 -3.046875 Z M 3.140625 -6.453125 C 4.109375 -6.453125 4.847656 -6.15625 5.359375 -5.5625 C 5.878906 -4.96875 6.140625 -4.128906 6.140625 -3.046875 C 6.140625 -1.953125 5.882812 -1.132812 5.375 -0.59375 C 4.875 -0.0507812 4.128906 0.21875 3.140625 0.21875 C 2.160156 0.21875 1.414062 -0.0546875 0.90625 -0.609375 C 0.394531 -1.171875 0.140625 -1.992188 0.140625 -3.078125 C 0.140625 -3.597656 0.207031 -4.066406 0.34375 -4.484375 C 0.476562 -4.910156 0.671875 -5.265625 0.921875 -5.546875 C 1.171875 -5.835938 1.484375 -6.0625 1.859375 -6.21875 C 2.234375 -6.375 2.660156 -6.453125 3.140625 -6.453125 Z M 3.140625 -6.453125 "/></g></g></g><g fill="#000000" fill-opacity="1"><g transform="translate(96.454217, 212.707177)"><g><path d="M 6.25 0 L 4.984375 0 L 4.015625 -4.015625 L 4 -4.015625 L 3.015625 0 L 1.796875 0 L 0.03125 -6.25 L 1.421875 -6.25 L 2.453125 -2.203125 L 3.3125 -6.25 L 4.6875 -6.25 L 5.640625 -2.203125 L 6.65625 -6.25 L 8 -6.25 Z M 6.25 0 "/></g></g></g><g fill="#000000" fill-opacity="1"><g transform="translate(108.789489, 212.707177)"><g><path d="M 5.3125 0 L 4 0 L 1.4375 -4.203125 L 1.4375 0 L 0.21875 0 L 0.21875 -6.25 L 1.59375 -6.25 L 4.09375 -2.171875 L 4.09375 -6.25 L 5.3125 -6.25 Z M 5.3125 0 "/></g></g></g><g fill="#000000" fill-opacity="1"><g transform="translate(181.481954, 212.707177)"><g><path d="M 4.671875 -5.15625 L 1.53125 -5.15625 L 1.53125 -3.75 L 4.265625 -3.75 L 4.265625 -2.640625 L 1.53125 -2.640625 L 1.53125 0 L 0.21875 0 L 0.21875 -6.25 L 4.671875 -6.25 Z M 4.671875 -5.15625 "/></g></g></g><g fill="#000000" fill-opacity="1"><g transform="translate(190.502058, 212.707177)"><g><path d="M 2.984375 -4.859375 L 2.203125 -2.359375 L 3.78125 -2.359375 L 3 -4.859375 Z M 5.984375 0 L 4.5625 0 L 4.15625 -1.296875 L 1.84375 -1.296875 L 1.40625 0 L 0.03125 0 L 2.265625 -6.25 L 3.78125 -6.25 Z M 5.984375 0 "/></g></g></g><g fill="#000000" fill-opacity="1"><g transform="translate(200.823827, 212.707177)"><g><path d="M 1.46875 -2.75 L 1.46875 -1.0625 L 3.140625 -1.0625 C 3.421875 -1.0625 3.648438 -1.144531 3.828125 -1.3125 C 4.003906 -1.488281 4.09375 -1.707031 4.09375 -1.96875 C 4.09375 -2.238281 3.992188 -2.4375 3.796875 -2.5625 C 3.609375 -2.6875 3.394531 -2.75 3.15625 -2.75 Z M 1.46875 -5.171875 L 1.46875 -3.8125 L 3.0625 -3.8125 C 3.320312 -3.8125 3.53125 -3.867188 3.6875 -3.984375 C 3.84375 -4.097656 3.921875 -4.269531 3.921875 -4.5 C 3.921875 -4.738281 3.851562 -4.910156 3.71875 -5.015625 C 3.582031 -5.117188 3.335938 -5.171875 2.984375 -5.171875 Z M 3.296875 -6.25 C 3.867188 -6.25 4.320312 -6.097656 4.65625 -5.796875 C 5 -5.492188 5.171875 -5.078125 5.171875 -4.546875 C 5.171875 -3.953125 4.921875 -3.554688 4.421875 -3.359375 C 4.722656 -3.253906 4.957031 -3.066406 5.125 -2.796875 C 5.289062 -2.535156 5.375 -2.222656 5.375 -1.859375 C 5.375 -1.285156 5.179688 -0.832031 4.796875 -0.5 C 4.421875 -0.164062 3.832031 0 3.03125 0 L 0.21875 0 L 0.21875 -6.25 Z M 3.296875 -6.25 "/></g></g></g><g fill="#000000" fill-opacity="1"><g transform="translate(11.94256, 268.175039)"><g><path d="M 0 -17.796875 L 10.671875 -17.796875 L 10.671875 -14.234375 L 3.5625 -14.234375 L 3.5625 -10.671875 L 8.890625 -10.671875 L 8.890625 -7.125 L 3.5625 -7.125 L 3.5625 0 L 0 0 Z M 0 -17.796875 "/></g></g></g><g fill="#000000" fill-opacity="1"><g transform="translate(24.215135, 268.175039)"><g><path d="M 0 0 L 0 -17.796875 L 3.5625 -17.796875 L 3.5625 0 Z M 0 0 "/></g></g></g><g fill="#000000" fill-opacity="1"><g transform="translate(29.656124, 268.175039)"><g><path d="M 0 -17.796875 L 10.671875 -8.0625 L 10.671875 -17.796875 L 14.234375 -17.796875 L 14.234375 0 L 3.5625 -9.734375 L 3.5625 0 L 0 0 Z M 0 -17.796875 "/></g></g></g><g fill="#000000" fill-opacity="1"><g transform="translate(45.835617, 268.175039)"><g><path d="M 0 -17.796875 L 10.671875 -17.796875 L 10.671875 -14.234375 L 3.5625 -14.234375 L 3.5625 -10.671875 L 8.890625 -10.671875 L 8.890625 -7.125 L 3.5625 -7.125 L 3.5625 -3.5625 L 10.671875 -3.5625 L 10.671875 0 L 0 0 Z M 0 -17.796875 "/></g></g></g><g fill="#000000" fill-opacity="1"><g transform="translate(58.108192, 268.175039)"><g/></g></g><g fill="#000000" fill-opacity="1"><g transform="translate(63.626436, 268.175039)"><g><path d="M 4.453125 -17.796875 L 12.46875 -17.796875 L 12.46875 -14.234375 L 8.015625 -14.234375 L 8.015625 0 L 4.453125 0 L 4.453125 -14.234375 L 0 -14.234375 L 0 -17.796875 Z M 4.453125 -17.796875 "/></g></g></g><g fill="#000000" fill-opacity="1"><g transform="translate(77.85247, 268.175039)"><g><path d="M 0 -17.796875 L 3.5625 -17.796875 L 3.5625 -10.671875 L 8.890625 -10.671875 L 8.890625 -17.796875 L 12.46875 -17.796875 L 12.46875 0 L 8.890625 0 L 8.890625 -7.125 L 3.5625 -7.125 L 3.5625 0 L 0 0 Z M 0 -17.796875 "/></g></g></g><g fill="#000000" fill-opacity="1"><g transform="translate(91.93503, 268.175039)"><g><path d="M 0 0 L 0 -17.796875 L 6.21875 -17.796875 C 7.9375 -17.796875 9.40625 -17.1875 10.625 -15.96875 C 11.851562 -14.738281 12.46875 -13.269531 12.46875 -11.5625 C 12.46875 -10.238281 12.09375 -9.050781 11.34375 -8 C 10.582031 -6.945312 9.617188 -6.195312 8.453125 -5.75 L 12.46875 0 L 8.109375 0 L 3.5625 -6.515625 L 3.5625 0 Z M 3.5625 -8.890625 L 6.21875 -8.890625 C 6.957031 -8.890625 7.585938 -9.15625 8.109375 -9.6875 C 8.628906 -10.207031 8.890625 -10.832031 8.890625 -11.5625 C 8.890625 -12.289062 8.628906 -12.921875 8.109375 -13.453125 C 7.585938 -13.972656 6.957031 -14.234375 6.21875 -14.234375 L 3.5625 -14.234375 Z M 3.5625 -8.890625 "/></g></g></g><g fill="#000000" fill-opacity="1"><g transform="translate(106.017589, 268.175039)"><g><path d="M 0 -17.796875 L 10.671875 -17.796875 L 10.671875 -14.234375 L 3.5625 -14.234375 L 3.5625 -10.671875 L 8.890625 -10.671875 L 8.890625 -7.125 L 3.5625 -7.125 L 3.5625 -3.5625 L 10.671875 -3.5625 L 10.671875 0 L 0 0 Z M 0 -17.796875 "/></g></g></g><g fill="#000000" fill-opacity="1"><g transform="translate(118.290165, 268.175039)"><g><path d="M 6.34375 -6.21875 L 9.140625 -6.21875 L 7.75 -9.34375 Z M 4.75 -2.671875 L 4.6875 -2.546875 L 3.546875 0 L -0.25 0 L 7.359375 -16.96875 L 7.734375 -17.796875 L 8.125 -16.953125 L 15.75 0 L 11.9375 0 L 10.8125 -2.546875 L 10.75 -2.671875 Z M 4.75 -2.671875 "/></g></g></g><g fill="#000000" fill-opacity="1"><g transform="translate(134.745569, 268.175039)"><g><path d="M 3.5625 -17.796875 C 6.007812 -17.796875 8.101562 -16.921875 9.84375 -15.171875 C 11.59375 -13.429688 12.46875 -11.335938 12.46875 -8.890625 C 12.46875 -6.441406 11.59375 -4.347656 9.84375 -2.609375 C 8.101562 -0.867188 6.007812 0 3.5625 0 L 0 0 L 0 -17.796875 Z M 3.5625 -3.5625 C 5.03125 -3.5625 6.285156 -4.085938 7.328125 -5.140625 C 8.367188 -6.171875 8.890625 -7.421875 8.890625 -8.890625 C 8.890625 -10.359375 8.367188 -11.617188 7.328125 -12.671875 C 6.285156 -13.710938 5.03125 -14.234375 3.5625 -14.234375 Z M 3.5625 -3.5625 "/></g></g></g><g fill="#000000" fill-opacity="1"><g transform="translate(148.408743, 268.175039)"><g/></g></g><g fill="#000000" fill-opacity="1"><g transform="translate(153.926987, 268.175039)"><g><path d="M 8.890625 -17.796875 C 11.335938 -17.796875 13.429688 -16.921875 15.171875 -15.171875 C 16.921875 -13.429688 17.796875 -11.335938 17.796875 -8.890625 C 17.796875 -6.441406 16.921875 -4.347656 15.171875 -2.609375 C 13.429688 -0.867188 11.335938 0 8.890625 0 C 6.441406 0 4.347656 -0.867188 2.609375 -2.609375 C 0.867188 -4.347656 0 -6.441406 0 -8.890625 C 0 -11.335938 0.867188 -13.429688 2.609375 -15.171875 C 4.347656 -16.921875 6.441406 -17.796875 8.890625 -17.796875 Z M 8.890625 -14.234375 C 7.421875 -14.234375 6.171875 -13.710938 5.140625 -12.671875 C 4.085938 -11.617188 3.5625 -10.359375 3.5625 -8.890625 C 3.5625 -7.421875 4.085938 -6.171875 5.140625 -5.140625 C 6.171875 -4.085938 7.421875 -3.5625 8.890625 -3.5625 C 10.359375 -3.5625 11.617188 -4.085938 12.671875 -5.140625 C 13.710938 -6.171875 14.234375 -7.421875 14.234375 -8.890625 C 14.234375 -10.359375 13.710938 -11.617188 12.671875 -12.671875 C 11.617188 -13.710938 10.359375 -14.234375 8.890625 -14.234375 Z M 8.890625 -14.234375 "/></g></g></g><g fill="#000000" fill-opacity="1"><g transform="translate(172.755237, 268.175039)"><g><path d="M 15.75 -17.796875 L 7.734375 0 L 7.359375 -0.84375 L -0.25 -17.796875 L 3.515625 -17.796875 L 7.734375 -8.421875 L 11.9375 -17.796875 Z M 15.75 -17.796875 "/></g></g></g><g fill="#000000" fill-opacity="1"><g transform="translate(189.210641, 268.175039)"><g><path d="M 0 -17.796875 L 10.671875 -17.796875 L 10.671875 -14.234375 L 3.5625 -14.234375 L 3.5625 -10.671875 L 8.890625 -10.671875 L 8.890625 -7.125 L 3.5625 -7.125 L 3.5625 -3.5625 L 10.671875 -3.5625 L 10.671875 0 L 0 0 Z M 0 -17.796875 "/></g></g></g><g fill="#000000" fill-opacity="1"><g transform="translate(201.483217, 268.175039)"><g><path d="M 0 0 L 0 -17.796875 L 6.21875 -17.796875 C 7.9375 -17.796875 9.40625 -17.1875 10.625 -15.96875 C 11.851562 -14.738281 12.46875 -13.269531 12.46875 -11.5625 C 12.46875 -10.238281 12.09375 -9.050781 11.34375 -8 C 10.582031 -6.945312 9.617188 -6.195312 8.453125 -5.75 L 12.46875 0 L 8.109375 0 L 3.5625 -6.515625 L 3.5625 0 Z M 3.5625 -8.890625 L 6.21875 -8.890625 C 6.957031 -8.890625 7.585938 -9.15625 8.109375 -9.6875 C 8.628906 -10.207031 8.890625 -10.832031 8.890625 -11.5625 C 8.890625 -12.289062 8.628906 -12.921875 8.109375 -13.453125 C 7.585938 -13.972656 6.957031 -14.234375 6.21875 -14.234375 L 3.5625 -14.234375 Z M 3.5625 -8.890625 "/></g></g></g><g fill="#000000" fill-opacity="1"><g transform="translate(215.565776, 268.175039)"><g><path d="M 5 -7.25 C 4.882812 -7.289062 4.566406 -7.398438 4.046875 -7.578125 C 3.503906 -7.765625 2.9375 -8.054688 2.34375 -8.453125 C 1.738281 -8.847656 1.195312 -9.375 0.71875 -10.03125 C 0.238281 -10.675781 0 -11.488281 0 -12.46875 C 0 -13.925781 0.519531 -15.179688 1.5625 -16.234375 C 2.613281 -17.273438 3.875 -17.796875 5.34375 -17.796875 C 6.8125 -17.796875 8.066406 -17.273438 9.109375 -16.234375 C 10.148438 -15.179688 10.671875 -13.925781 10.671875 -12.46875 L 7.125 -12.46875 C 7.125 -12.945312 6.953125 -13.363281 6.609375 -13.71875 C 6.253906 -14.0625 5.832031 -14.234375 5.34375 -14.234375 C 4.851562 -14.234375 4.429688 -14.0625 4.078125 -13.71875 C 3.734375 -13.363281 3.5625 -12.945312 3.5625 -12.46875 C 3.5625 -11.832031 3.820312 -11.351562 4.34375 -11.03125 C 4.84375 -10.695312 5.226562 -10.492188 5.5 -10.421875 C 5.625 -10.378906 5.96875 -10.273438 6.53125 -10.109375 C 7.082031 -9.953125 7.664062 -9.6875 8.28125 -9.3125 C 8.894531 -8.9375 9.445312 -8.429688 9.9375 -7.796875 C 10.425781 -7.148438 10.671875 -6.332031 10.671875 -5.34375 C 10.671875 -3.875 10.148438 -2.613281 9.109375 -1.5625 C 8.066406 -0.519531 6.8125 0 5.34375 0 C 3.875 0 2.613281 -0.519531 1.5625 -1.5625 C 0.519531 -2.613281 0 -3.875 0 -5.34375 L 3.5625 -5.34375 C 3.5625 -4.851562 3.734375 -4.429688 4.078125 -4.078125 C 4.429688 -3.734375 4.851562 -3.5625 5.34375 -3.5625 C 5.832031 -3.5625 6.253906 -3.734375 6.609375 -4.078125 C 6.953125 -4.429688 7.125 -4.851562 7.125 -5.34375 C 7.125 -6.09375 6.820312 -6.578125 6.21875 -6.796875 C 5.625 -7.015625 5.21875 -7.164062 5 -7.25 Z M 5 -7.25 "/></g></g></g><g fill="#000000" fill-opacity="1"><g transform="translate(227.694877, 268.175039)"><g><path d="M 0 -17.796875 L 10.671875 -17.796875 L 10.671875 -14.234375 L 3.5625 -14.234375 L 3.5625 -10.671875 L 8.890625 -10.671875 L 8.890625 -7.125 L 3.5625 -7.125 L 3.5625 -3.5625 L 10.671875 -3.5625 L 10.671875 0 L 0 0 Z M 0 -17.796875 "/></g></g></g><g fill="#000000" fill-opacity="1"><g transform="translate(239.967453, 268.175039)"><g><path d="M 6.34375 -6.21875 L 9.140625 -6.21875 L 7.75 -9.34375 Z M 4.75 -2.671875 L 4.6875 -2.546875 L 3.546875 0 L -0.25 0 L 7.359375 -16.96875 L 7.734375 -17.796875 L 8.125 -16.953125 L 15.75 0 L 11.9375 0 L 10.8125 -2.546875 L 10.75 -2.671875 Z M 4.75 -2.671875 "/></g></g></g><g fill="#000000" fill-opacity="1"><g transform="translate(256.422857, 268.175039)"><g><path d="M 5 -7.25 C 4.882812 -7.289062 4.566406 -7.398438 4.046875 -7.578125 C 3.503906 -7.765625 2.9375 -8.054688 2.34375 -8.453125 C 1.738281 -8.847656 1.195312 -9.375 0.71875 -10.03125 C 0.238281 -10.675781 0 -11.488281 0 -12.46875 C 0 -13.925781 0.519531 -15.179688 1.5625 -16.234375 C 2.613281 -17.273438 3.875 -17.796875 5.34375 -17.796875 C 6.8125 -17.796875 8.066406 -17.273438 9.109375 -16.234375 C 10.148438 -15.179688 10.671875 -13.925781 10.671875 -12.46875 L 7.125 -12.46875 C 7.125 -12.945312 6.953125 -13.363281 6.609375 -13.71875 C 6.253906 -14.0625 5.832031 -14.234375 5.34375 -14.234375 C 4.851562 -14.234375 4.429688 -14.0625 4.078125 -13.71875 C 3.734375 -13.363281 3.5625 -12.945312 3.5625 -12.46875 C 3.5625 -11.832031 3.820312 -11.351562 4.34375 -11.03125 C 4.84375 -10.695312 5.226562 -10.492188 5.5 -10.421875 C 5.625 -10.378906 5.96875 -10.273438 6.53125 -10.109375 C 7.082031 -9.953125 7.664062 -9.6875 8.28125 -9.3125 C 8.894531 -8.9375 9.445312 -8.429688 9.9375 -7.796875 C 10.425781 -7.148438 10.671875 -6.332031 10.671875 -5.34375 C 10.671875 -3.875 10.148438 -2.613281 9.109375 -1.5625 C 8.066406 -0.519531 6.8125 0 5.34375 0 C 3.875 0 2.613281 -0.519531 1.5625 -1.5625 C 0.519531 -2.613281 0 -3.875 0 -5.34375 L 3.5625 -5.34375 C 3.5625 -4.851562 3.734375 -4.429688 4.078125 -4.078125 C 4.429688 -3.734375 4.851562 -3.5625 5.34375 -3.5625 C 5.832031 -3.5625 6.253906 -3.734375 6.609375 -4.078125 C 6.953125 -4.429688 7.125 -4.851562 7.125 -5.34375 C 7.125 -6.09375 6.820312 -6.578125 6.21875 -6.796875 C 5.625 -7.015625 5.21875 -7.164062 5 -7.25 Z M 5 -7.25 "/></g></g></g></svg>