<svg xmlns="http://www.w3.org/2000/svg" xmlns:xlink="http://www.w3.org/1999/xlink" width="259" zoomAndPan="magnify" viewBox="0 0 194.25 42.75" height="57" preserveAspectRatio="xMidYMid meet" version="1.0"><defs><g/><clipPath id="24b2645b60"><path d="M 4.441406 4.25 L 31 4.25 L 31 38.550781 L 4.441406 38.550781 Z M 4.441406 4.25 " clip-rule="nonzero"/></clipPath><clipPath id="49082da34d"><path d="M 4.441406 4.25 L 31.285156 4.25 L 31.285156 38.550781 L 4.441406 38.550781 Z M 4.441406 4.25 " clip-rule="nonzero"/></clipPath><clipPath id="f6ff393f49"><path d="M 10.289062 14.828125 L 22.964844 14.828125 L 22.964844 31.976562 L 10.289062 31.976562 Z M 10.289062 14.828125 " clip-rule="nonzero"/></clipPath></defs><g clip-path="url(#24b2645b60)"><path fill="#ffffff" d="M 30.527344 38.175781 L 4.945312 38.175781 C 4.828125 38.175781 4.726562 38.132812 4.644531 38.050781 C 4.5625 37.96875 4.523438 37.871094 4.523438 37.753906 L 4.523438 17.882812 C 4.523438 10.613281 10.46875 4.667969 17.734375 4.667969 C 25.003906 4.667969 30.949219 10.613281 30.949219 17.882812 L 30.949219 37.753906 C 30.949219 37.871094 30.910156 37.96875 30.828125 38.050781 C 30.746094 38.132812 30.644531 38.175781 30.527344 38.175781 Z M 30.527344 38.175781 " fill-opacity="1" fill-rule="nonzero"/></g><g clip-path="url(#49082da34d)"><path fill="#000000" d="M 30.527344 38.246094 L 4.945312 38.246094 C 4.808594 38.246094 4.691406 38.199219 4.597656 38.101562 C 4.5 38.003906 4.453125 37.890625 4.453125 37.753906 L 4.453125 17.882812 C 4.449219 16.089844 4.796875 14.371094 5.5 12.722656 C 6.179688 11.132812 7.128906 9.722656 8.355469 8.5 C 9.578125 7.277344 10.984375 6.324219 12.578125 5.644531 C 14.226562 4.949219 15.945312 4.597656 17.734375 4.597656 C 19.527344 4.597656 21.246094 4.949219 22.894531 5.644531 C 24.484375 6.324219 25.894531 7.277344 27.117188 8.5 C 28.34375 9.722656 29.292969 11.132812 29.972656 12.722656 C 30.671875 14.371094 31.023438 16.089844 31.019531 17.882812 L 31.019531 37.753906 C 31.019531 37.890625 30.972656 38.003906 30.875 38.101562 C 30.78125 38.199219 30.664062 38.246094 30.527344 38.246094 Z M 17.734375 4.738281 C 15.964844 4.734375 14.261719 5.082031 12.632812 5.773438 C 11.058594 6.445312 9.664062 7.386719 8.453125 8.597656 C 7.242188 9.808594 6.300781 11.203125 5.628906 12.777344 C 4.933594 14.410156 4.589844 16.109375 4.59375 17.882812 L 4.59375 37.753906 C 4.59375 37.851562 4.625 37.933594 4.695312 38.003906 C 4.765625 38.070312 4.847656 38.105469 4.945312 38.105469 L 30.527344 38.105469 C 30.625 38.105469 30.707031 38.070312 30.777344 38.003906 C 30.84375 37.933594 30.878906 37.851562 30.878906 37.753906 L 30.878906 17.882812 C 30.882812 16.109375 30.535156 14.410156 29.84375 12.777344 C 29.171875 11.203125 28.230469 9.808594 27.019531 8.597656 C 25.808594 7.386719 24.417969 6.445312 22.839844 5.773438 C 21.210938 5.082031 19.507812 4.734375 17.734375 4.738281 Z M 17.734375 4.738281 " fill-opacity="1" fill-rule="nonzero"/></g><path fill="#ffffff" d="M 29.890625 37.503906 L 5.582031 37.503906 C 5.472656 37.503906 5.378906 37.464844 5.300781 37.386719 C 5.222656 37.308594 5.183594 37.214844 5.183594 37.105469 L 5.183594 17.890625 C 5.183594 10.988281 10.832031 5.339844 17.734375 5.339844 C 24.640625 5.339844 30.289062 10.988281 30.289062 17.890625 L 30.289062 37.105469 C 30.289062 37.214844 30.25 37.308594 30.171875 37.386719 C 30.09375 37.464844 30 37.503906 29.890625 37.503906 Z M 29.890625 37.503906 " fill-opacity="1" fill-rule="nonzero"/><path fill="#000000" d="M 29.890625 37.574219 L 5.582031 37.574219 C 5.453125 37.574219 5.34375 37.527344 5.25 37.4375 C 5.160156 37.34375 5.113281 37.234375 5.113281 37.105469 L 5.113281 17.890625 C 5.109375 16.191406 5.441406 14.554688 6.109375 12.988281 C 6.753906 11.476562 7.65625 10.140625 8.820312 8.976562 C 9.984375 7.8125 11.320312 6.910156 12.835938 6.265625 C 14.402344 5.601562 16.035156 5.269531 17.734375 5.269531 C 19.4375 5.269531 21.070312 5.601562 22.636719 6.265625 C 24.152344 6.910156 25.488281 7.8125 26.652344 8.976562 C 27.8125 10.140625 28.71875 11.476562 29.363281 12.988281 C 30.03125 14.554688 30.359375 16.191406 30.359375 17.890625 L 30.359375 37.105469 C 30.359375 37.234375 30.3125 37.347656 30.21875 37.4375 C 30.128906 37.527344 30.019531 37.574219 29.890625 37.574219 Z M 17.734375 5.410156 C 16.050781 5.40625 14.4375 5.734375 12.886719 6.390625 C 11.390625 7.03125 10.066406 7.925781 8.917969 9.074219 C 7.769531 10.226562 6.875 11.550781 6.238281 13.046875 C 5.578125 14.59375 5.25 16.210938 5.253906 17.894531 L 5.253906 37.109375 C 5.253906 37.199219 5.285156 37.277344 5.351562 37.34375 C 5.414062 37.40625 5.492188 37.4375 5.585938 37.4375 L 29.890625 37.4375 C 29.980469 37.4375 30.058594 37.40625 30.121094 37.34375 C 30.1875 37.277344 30.21875 37.199219 30.21875 37.109375 L 30.21875 17.890625 C 30.222656 16.207031 29.894531 14.59375 29.234375 13.042969 C 28.597656 11.546875 27.703125 10.226562 26.550781 9.074219 C 25.402344 7.925781 24.078125 7.03125 22.582031 6.394531 C 21.035156 5.734375 19.417969 5.40625 17.734375 5.410156 Z M 17.734375 5.410156 " fill-opacity="1" fill-rule="nonzero"/><g fill="#000000" fill-opacity="1"><g transform="translate(7.479938, 20.731306)"><g><path d="M -0.09375 -0.75 L -0.078125 -0.59375 L -0.546875 -0.421875 L -0.046875 -0.359375 L -0.03125 -0.21875 L -0.75 0.09375 L -0.765625 -0.078125 L -0.296875 -0.265625 L -0.796875 -0.296875 L -0.828125 -0.46875 L -0.34375 -0.640625 L -0.84375 -0.703125 L -0.875 -0.859375 Z M -0.09375 -0.75 "/></g></g></g><g fill="#000000" fill-opacity="1"><g transform="translate(7.338543, 19.219576)"><g><path d="M 0 -0.625 L 0 -0.46875 L -0.34375 -0.46875 L -0.34375 -0.1875 L 0 -0.1875 L 0 -0.03125 L -0.75 -0.046875 L -0.75 -0.203125 L -0.46875 -0.1875 L -0.46875 -0.46875 L -0.75 -0.484375 L -0.75 -0.640625 Z M 0 -0.625 "/></g></g></g><g fill="#000000" fill-opacity="1"><g transform="translate(7.38831, 18.001563)"><g><path d="M -0.546875 -0.65625 L -0.609375 -0.25 L -0.4375 -0.234375 L -0.375 -0.609375 L -0.25 -0.59375 L -0.3125 -0.21875 L -0.125 -0.1875 L -0.0625 -0.609375 L 0.078125 -0.59375 L 0 -0.03125 L -0.75 -0.125 L -0.671875 -0.671875 Z M -0.546875 -0.65625 "/></g></g></g><g fill="#000000" fill-opacity="1"><g transform="translate(7.570827, 16.858645)"><g><path d="M -0.5625 -0.328125 L -0.359375 -0.28125 L -0.3125 -0.46875 C -0.300781 -0.5 -0.300781 -0.523438 -0.3125 -0.546875 C -0.320312 -0.566406 -0.34375 -0.582031 -0.375 -0.59375 C -0.40625 -0.601562 -0.429688 -0.597656 -0.453125 -0.578125 C -0.484375 -0.566406 -0.503906 -0.546875 -0.515625 -0.515625 Z M 0.15625 -0.59375 L 0.109375 -0.453125 L -0.078125 -0.5 C -0.117188 -0.507812 -0.144531 -0.503906 -0.15625 -0.484375 C -0.175781 -0.472656 -0.191406 -0.445312 -0.203125 -0.40625 L -0.234375 -0.25 L 0.046875 -0.171875 L 0 -0.03125 L -0.734375 -0.21875 L -0.640625 -0.578125 C -0.628906 -0.609375 -0.613281 -0.632812 -0.59375 -0.65625 C -0.570312 -0.6875 -0.546875 -0.707031 -0.515625 -0.71875 C -0.492188 -0.738281 -0.46875 -0.75 -0.4375 -0.75 C -0.414062 -0.757812 -0.390625 -0.757812 -0.359375 -0.75 C -0.316406 -0.738281 -0.28125 -0.71875 -0.25 -0.6875 C -0.226562 -0.664062 -0.21875 -0.640625 -0.21875 -0.609375 C -0.195312 -0.628906 -0.171875 -0.640625 -0.140625 -0.640625 C -0.117188 -0.648438 -0.09375 -0.648438 -0.0625 -0.640625 Z M 0.15625 -0.59375 "/></g></g></g><g fill="#000000" fill-opacity="1"><g transform="translate(7.903255, 15.695678)"><g><path d="M -0.375 -0.765625 L -0.515625 -0.375 L -0.359375 -0.3125 L -0.21875 -0.671875 L -0.109375 -0.640625 L -0.25 -0.28125 L -0.0625 -0.203125 L 0.09375 -0.59375 L 0.21875 -0.546875 L 0.015625 -0.03125 L -0.6875 -0.296875 L -0.5 -0.8125 Z M -0.375 -0.765625 "/></g></g></g><g fill="#000000" fill-opacity="1"><g transform="translate(8.355147, 14.625458)"><g/></g></g><g fill="#000000" fill-opacity="1"><g transform="translate(8.753072, 13.879557)"><g><path d="M -0.453125 -0.734375 C -0.390625 -0.828125 -0.304688 -0.878906 -0.203125 -0.890625 C -0.109375 -0.910156 -0.00390625 -0.882812 0.109375 -0.8125 C 0.140625 -0.78125 0.171875 -0.75 0.203125 -0.71875 C 0.234375 -0.695312 0.253906 -0.664062 0.265625 -0.625 C 0.273438 -0.59375 0.28125 -0.550781 0.28125 -0.5 C 0.28125 -0.457031 0.269531 -0.414062 0.25 -0.375 C 0.28125 -0.351562 0.304688 -0.34375 0.328125 -0.34375 C 0.359375 -0.351562 0.382812 -0.363281 0.40625 -0.375 C 0.414062 -0.394531 0.414062 -0.414062 0.40625 -0.4375 C 0.394531 -0.457031 0.375 -0.476562 0.34375 -0.5 L 0.421875 -0.609375 C 0.441406 -0.597656 0.460938 -0.582031 0.484375 -0.5625 C 0.503906 -0.539062 0.519531 -0.507812 0.53125 -0.46875 C 0.550781 -0.4375 0.554688 -0.40625 0.546875 -0.375 C 0.535156 -0.351562 0.519531 -0.328125 0.5 -0.296875 C 0.476562 -0.265625 0.457031 -0.238281 0.4375 -0.21875 C 0.425781 -0.207031 0.40625 -0.195312 0.375 -0.1875 C 0.34375 -0.1875 0.3125 -0.191406 0.28125 -0.203125 C 0.257812 -0.210938 0.234375 -0.226562 0.203125 -0.25 L 0.1875 -0.25 C 0.125 -0.175781 0.0546875 -0.132812 -0.015625 -0.125 C -0.0976562 -0.125 -0.191406 -0.15625 -0.296875 -0.21875 C -0.347656 -0.25 -0.390625 -0.28125 -0.421875 -0.3125 C -0.460938 -0.351562 -0.488281 -0.394531 -0.5 -0.4375 C -0.519531 -0.488281 -0.523438 -0.539062 -0.515625 -0.59375 C -0.503906 -0.644531 -0.484375 -0.691406 -0.453125 -0.734375 Z M -0.203125 -0.34375 C -0.140625 -0.289062 -0.078125 -0.269531 -0.015625 -0.28125 C 0.0351562 -0.289062 0.078125 -0.320312 0.109375 -0.375 C 0.128906 -0.40625 0.140625 -0.429688 0.140625 -0.453125 C 0.140625 -0.484375 0.132812 -0.507812 0.125 -0.53125 C 0.125 -0.550781 0.113281 -0.570312 0.09375 -0.59375 C 0.0703125 -0.625 0.046875 -0.65625 0.015625 -0.6875 C -0.0664062 -0.726562 -0.132812 -0.742188 -0.1875 -0.734375 C -0.25 -0.734375 -0.296875 -0.707031 -0.328125 -0.65625 C -0.359375 -0.601562 -0.363281 -0.546875 -0.34375 -0.484375 C -0.332031 -0.429688 -0.285156 -0.382812 -0.203125 -0.34375 Z M -0.203125 -0.34375 "/></g></g></g><g fill="#000000" fill-opacity="1"><g transform="translate(9.501114, 12.801607)"><g><path d="M 0.21875 -0.625 C 0.28125 -0.570312 0.3125 -0.507812 0.3125 -0.4375 C 0.3125 -0.375 0.285156 -0.304688 0.234375 -0.234375 C 0.171875 -0.160156 0.101562 -0.117188 0.03125 -0.109375 C -0.03125 -0.109375 -0.0976562 -0.132812 -0.171875 -0.1875 L -0.5625 -0.515625 L -0.453125 -0.625 L -0.078125 -0.3125 C -0.0351562 -0.28125 0 -0.265625 0.03125 -0.265625 C 0.0625 -0.265625 0.09375 -0.28125 0.125 -0.3125 C 0.1875 -0.394531 0.179688 -0.460938 0.109375 -0.515625 L -0.28125 -0.84375 L -0.171875 -0.953125 Z M 0.21875 -0.625 "/></g></g></g><g fill="#000000" fill-opacity="1"><g transform="translate(10.31356, 11.896099)"><g><path d="M -0.125 -0.671875 L 0.015625 -0.375 L 0.140625 -0.515625 Z M 0.53125 -0.484375 L 0.40625 -0.375 L 0.265625 -0.453125 L 0.046875 -0.25 L 0.125 -0.109375 L 0 0 L -0.296875 -0.71875 L -0.171875 -0.859375 Z M 0.53125 -0.484375 "/></g></g></g><g fill="#000000" fill-opacity="1"><g transform="translate(11.2846, 11.059214)"><g><path d="M 0.078125 -0.21875 L 0.359375 -0.421875 L 0.4375 -0.3125 L 0.03125 -0.015625 L -0.40625 -0.625 L -0.28125 -0.71875 Z M 0.078125 -0.21875 "/></g></g></g><g fill="#000000" fill-opacity="1"><g transform="translate(12.221961, 10.43215)"><g><path d="M 0.15625 -0.09375 L 0.03125 -0.015625 L -0.34375 -0.671875 L -0.21875 -0.75 Z M 0.15625 -0.09375 "/></g></g></g><g fill="#000000" fill-opacity="1"><g transform="translate(12.902074, 10.058293)"><g><path d="M 0.28125 -0.8125 L 0.09375 -0.71875 L 0.359375 -0.15625 L 0.21875 -0.09375 L -0.046875 -0.65625 L -0.265625 -0.5625 L -0.3125 -0.6875 L 0.234375 -0.9375 Z M 0.28125 -0.8125 "/></g></g></g><g fill="#000000" fill-opacity="1"><g transform="translate(13.990044, 9.59863)"><g><path d="M 0.328125 -0.390625 L 0.40625 -0.125 L 0.25 -0.078125 L 0.171875 -0.34375 L -0.21875 -0.71875 L -0.046875 -0.78125 L 0.203125 -0.53125 L 0.25 -0.859375 L 0.421875 -0.921875 Z M 0.328125 -0.390625 "/></g></g></g><g fill="#000000" fill-opacity="1"><g transform="translate(15.183495, 9.263412)"><g/></g></g><g fill="#000000" fill-opacity="1"><g transform="translate(16.014827, 9.111368)"><g><path d="M 0.75 -0.0625 L 0.609375 -0.0625 L 0.5625 -0.578125 L 0.46875 -0.046875 L 0.3125 -0.03125 L 0.125 -0.53125 L 0.171875 -0.015625 L 0.03125 0 L -0.03125 -0.75 L 0.1875 -0.765625 L 0.375 -0.234375 L 0.46875 -0.796875 L 0.6875 -0.8125 Z M 0.75 -0.0625 "/></g></g></g><g fill="#000000" fill-opacity="1"><g transform="translate(17.351426, 9.029372)"><g><path d="M 0.59375 -0.609375 L 0.1875 -0.625 L 0.1875 -0.453125 L 0.5625 -0.4375 L 0.5625 -0.3125 L 0.1875 -0.328125 L 0.171875 -0.140625 L 0.59375 -0.125 L 0.59375 0.015625 L 0.03125 0 L 0.0625 -0.75 L 0.609375 -0.734375 Z M 0.59375 -0.609375 "/></g></g></g><g fill="#000000" fill-opacity="1"><g transform="translate(18.507203, 9.100625)"><g><path d="M 0.671875 -0.53125 L 0.265625 -0.59375 L 0.234375 -0.421875 L 0.609375 -0.375 L 0.59375 -0.25 L 0.21875 -0.296875 L 0.1875 -0.109375 L 0.609375 -0.046875 L 0.59375 0.09375 L 0.03125 0 L 0.140625 -0.734375 L 0.6875 -0.640625 Z M 0.671875 -0.53125 "/></g></g></g><g fill="#000000" fill-opacity="1"><g transform="translate(19.64674, 9.304886)"><g><path d="M 0.765625 -0.453125 L 0.546875 -0.5 L 0.375 0.109375 L 0.21875 0.0625 L 0.390625 -0.546875 L 0.171875 -0.609375 L 0.203125 -0.71875 L 0.796875 -0.5625 Z M 0.765625 -0.453125 "/></g></g></g><g fill="#000000" fill-opacity="1"><g transform="translate(20.777343, 9.648166)"><g><path d="M 0.625 -0.328125 C 0.625 -0.347656 0.613281 -0.375 0.59375 -0.40625 C 0.570312 -0.4375 0.546875 -0.460938 0.515625 -0.484375 C 0.484375 -0.492188 0.453125 -0.492188 0.421875 -0.484375 C 0.390625 -0.484375 0.367188 -0.46875 0.359375 -0.4375 C 0.347656 -0.425781 0.347656 -0.410156 0.359375 -0.390625 C 0.367188 -0.367188 0.394531 -0.34375 0.4375 -0.3125 C 0.457031 -0.300781 0.476562 -0.285156 0.5 -0.265625 C 0.519531 -0.242188 0.539062 -0.226562 0.5625 -0.21875 C 0.582031 -0.207031 0.597656 -0.195312 0.609375 -0.1875 C 0.617188 -0.175781 0.628906 -0.164062 0.640625 -0.15625 C 0.660156 -0.125 0.671875 -0.09375 0.671875 -0.0625 C 0.679688 -0.0390625 0.675781 -0.0078125 0.65625 0.03125 C 0.644531 0.0625 0.625 0.0859375 0.59375 0.109375 C 0.570312 0.128906 0.546875 0.144531 0.515625 0.15625 C 0.484375 0.164062 0.453125 0.171875 0.421875 0.171875 C 0.390625 0.171875 0.351562 0.160156 0.3125 0.140625 C 0.113281 0.0546875 0.0390625 -0.0625 0.09375 -0.21875 L 0.234375 -0.15625 C 0.210938 -0.113281 0.210938 -0.078125 0.234375 -0.046875 C 0.265625 -0.015625 0.300781 0.0078125 0.34375 0.03125 C 0.351562 0.03125 0.367188 0.03125 0.390625 0.03125 C 0.410156 0.0390625 0.425781 0.046875 0.4375 0.046875 C 0.457031 0.046875 0.472656 0.0351562 0.484375 0.015625 C 0.503906 0.00390625 0.515625 -0.00390625 0.515625 -0.015625 C 0.523438 -0.0546875 0.5 -0.0976562 0.4375 -0.140625 C 0.382812 -0.179688 0.34375 -0.210938 0.3125 -0.234375 C 0.289062 -0.253906 0.273438 -0.269531 0.265625 -0.28125 C 0.234375 -0.3125 0.210938 -0.34375 0.203125 -0.375 C 0.191406 -0.414062 0.195312 -0.457031 0.21875 -0.5 C 0.226562 -0.53125 0.242188 -0.550781 0.265625 -0.5625 C 0.296875 -0.582031 0.320312 -0.597656 0.34375 -0.609375 C 0.375 -0.628906 0.40625 -0.632812 0.4375 -0.625 C 0.476562 -0.613281 0.519531 -0.601562 0.5625 -0.59375 C 0.59375 -0.570312 0.625 -0.550781 0.65625 -0.53125 C 0.695312 -0.519531 0.722656 -0.5 0.734375 -0.46875 C 0.742188 -0.4375 0.75 -0.398438 0.75 -0.359375 C 0.757812 -0.328125 0.757812 -0.300781 0.75 -0.28125 Z M 0.625 -0.328125 "/></g></g></g><g fill="#000000" fill-opacity="1"><g transform="translate(21.871028, 10.133317)"><g/></g></g><g fill="#000000" fill-opacity="1"><g transform="translate(22.609343, 10.548756)"><g><path d="M 0.828125 -0.1875 L 0.484375 -0.421875 L 0.390625 -0.28125 L 0.703125 -0.078125 L 0.640625 0.03125 L 0.328125 -0.171875 L 0.21875 -0.015625 L 0.578125 0.21875 L 0.5 0.328125 L 0.03125 0.015625 L 0.453125 -0.609375 L 0.90625 -0.296875 Z M 0.828125 -0.1875 "/></g></g></g><g fill="#000000" fill-opacity="1"><g transform="translate(23.553749, 11.217222)"><g><path d="M 0.5625 -0.015625 L 0.515625 0.4375 L 0.375 0.3125 L 0.421875 0.03125 L 0.140625 0.125 L 0 0 L 0.4375 -0.125 L 0.5 -0.546875 L 0.640625 -0.4375 L 0.59375 -0.15625 L 0.84375 -0.25 L 0.984375 -0.140625 Z M 0.5625 -0.015625 "/></g></g></g><g fill="#000000" fill-opacity="1"><g transform="translate(24.470776, 12.049747)"><g><path d="M 0.734375 0.046875 C 0.753906 0.015625 0.757812 -0.0195312 0.75 -0.0625 C 0.75 -0.101562 0.734375 -0.140625 0.703125 -0.171875 C 0.691406 -0.179688 0.671875 -0.191406 0.640625 -0.203125 C 0.617188 -0.210938 0.59375 -0.210938 0.5625 -0.203125 C 0.539062 -0.203125 0.515625 -0.195312 0.484375 -0.1875 C 0.453125 -0.175781 0.421875 -0.15625 0.390625 -0.125 C 0.359375 -0.09375 0.332031 -0.0625 0.3125 -0.03125 C 0.300781 0 0.289062 0.0234375 0.28125 0.046875 C 0.28125 0.0664062 0.28125 0.0859375 0.28125 0.109375 C 0.28125 0.140625 0.289062 0.164062 0.3125 0.1875 C 0.34375 0.21875 0.378906 0.234375 0.421875 0.234375 C 0.460938 0.242188 0.503906 0.238281 0.546875 0.21875 L 0.65625 0.34375 C 0.613281 0.363281 0.570312 0.378906 0.53125 0.390625 C 0.5 0.398438 0.460938 0.398438 0.421875 0.390625 C 0.390625 0.378906 0.351562 0.363281 0.3125 0.34375 C 0.28125 0.332031 0.25 0.3125 0.21875 0.28125 C 0.195312 0.25 0.175781 0.207031 0.15625 0.15625 C 0.132812 0.113281 0.125 0.0703125 0.125 0.03125 C 0.132812 -0.0078125 0.148438 -0.0507812 0.171875 -0.09375 C 0.203125 -0.132812 0.238281 -0.175781 0.28125 -0.21875 C 0.320312 -0.257812 0.367188 -0.289062 0.421875 -0.3125 C 0.472656 -0.34375 0.519531 -0.359375 0.5625 -0.359375 C 0.613281 -0.367188 0.660156 -0.363281 0.703125 -0.34375 C 0.742188 -0.332031 0.78125 -0.304688 0.8125 -0.265625 C 0.851562 -0.222656 0.878906 -0.179688 0.890625 -0.140625 C 0.910156 -0.109375 0.914062 -0.0703125 0.90625 -0.03125 C 0.90625 0.0078125 0.898438 0.046875 0.890625 0.078125 C 0.890625 0.117188 0.875 0.148438 0.84375 0.171875 Z M 0.734375 0.046875 "/></g></g></g><g fill="#000000" fill-opacity="1"><g transform="translate(25.282016, 12.998523)"><g><path d="M 0.21875 0.078125 L 0.421875 0.375 L 0.3125 0.453125 L 0.015625 0.03125 L 0.625 -0.40625 L 0.71875 -0.28125 Z M 0.21875 0.078125 "/></g></g></g><g fill="#000000" fill-opacity="1"><g transform="translate(25.907732, 13.930514)"><g><path d="M 0.515625 0.421875 C 0.441406 0.460938 0.367188 0.46875 0.296875 0.4375 C 0.234375 0.414062 0.179688 0.363281 0.140625 0.28125 C 0.0976562 0.207031 0.0820312 0.140625 0.09375 0.078125 C 0.101562 0.015625 0.148438 -0.0390625 0.234375 -0.09375 L 0.671875 -0.328125 L 0.75 -0.1875 L 0.328125 0.046875 C 0.285156 0.0664062 0.253906 0.09375 0.234375 0.125 C 0.222656 0.15625 0.226562 0.191406 0.25 0.234375 C 0.289062 0.316406 0.351562 0.332031 0.4375 0.28125 L 0.875 0.046875 L 0.953125 0.1875 Z M 0.515625 0.421875 "/></g></g></g><g fill="#000000" fill-opacity="1"><g transform="translate(26.461826, 15.014628)"><g><path d="M 0.671875 0.21875 C 0.679688 0.195312 0.691406 0.171875 0.703125 0.140625 C 0.722656 0.109375 0.722656 0.078125 0.703125 0.046875 C 0.691406 0.015625 0.671875 -0.0078125 0.640625 -0.03125 C 0.617188 -0.0507812 0.597656 -0.0546875 0.578125 -0.046875 C 0.554688 -0.0351562 0.539062 -0.0195312 0.53125 0 C 0.519531 0.0195312 0.519531 0.0507812 0.53125 0.09375 C 0.539062 0.125 0.546875 0.148438 0.546875 0.171875 C 0.546875 0.203125 0.546875 0.226562 0.546875 0.25 C 0.546875 0.269531 0.546875 0.289062 0.546875 0.3125 C 0.546875 0.332031 0.550781 0.347656 0.5625 0.359375 C 0.550781 0.378906 0.535156 0.398438 0.515625 0.421875 C 0.503906 0.453125 0.476562 0.476562 0.4375 0.5 C 0.40625 0.507812 0.375 0.507812 0.34375 0.5 C 0.3125 0.5 0.28125 0.492188 0.25 0.484375 C 0.21875 0.472656 0.191406 0.453125 0.171875 0.421875 C 0.148438 0.390625 0.128906 0.351562 0.109375 0.3125 C 0.0234375 0.113281 0.0625 -0.0195312 0.21875 -0.09375 L 0.28125 0.046875 C 0.238281 0.0664062 0.210938 0.09375 0.203125 0.125 C 0.203125 0.164062 0.207031 0.207031 0.21875 0.25 C 0.226562 0.257812 0.238281 0.273438 0.25 0.296875 C 0.257812 0.316406 0.269531 0.332031 0.28125 0.34375 C 0.289062 0.363281 0.300781 0.375 0.3125 0.375 C 0.332031 0.375 0.347656 0.367188 0.359375 0.359375 C 0.398438 0.347656 0.421875 0.300781 0.421875 0.21875 C 0.398438 0.15625 0.390625 0.101562 0.390625 0.0625 C 0.390625 0.0195312 0.382812 -0.00390625 0.375 -0.015625 C 0.382812 -0.046875 0.394531 -0.078125 0.40625 -0.109375 C 0.425781 -0.140625 0.460938 -0.164062 0.515625 -0.1875 C 0.535156 -0.195312 0.5625 -0.195312 0.59375 -0.1875 C 0.625 -0.1875 0.65625 -0.179688 0.6875 -0.171875 C 0.71875 -0.160156 0.742188 -0.140625 0.765625 -0.109375 C 0.796875 -0.078125 0.816406 -0.0390625 0.828125 0 C 0.847656 0.03125 0.859375 0.0664062 0.859375 0.109375 C 0.859375 0.148438 0.851562 0.1875 0.84375 0.21875 C 0.832031 0.25 0.8125 0.273438 0.78125 0.296875 C 0.757812 0.316406 0.738281 0.332031 0.71875 0.34375 Z M 0.671875 0.21875 "/></g></g></g><g fill="#000000" fill-opacity="1"><g transform="translate(26.870128, 16.140194)"><g><path d="M 0.046875 0.1875 L 0.015625 0.03125 L 0.734375 -0.171875 L 0.765625 -0.015625 Z M 0.046875 0.1875 "/></g></g></g><g fill="#000000" fill-opacity="1"><g transform="translate(27.068882, 16.889872)"><g><path d="M 0.078125 0.40625 L 0.046875 0.25 L 0.734375 -0.140625 L 0.765625 0.03125 L 0.28125 0.28125 L 0.828125 0.34375 L 0.859375 0.5 Z M 0.078125 0.40625 "/></g></g></g><g fill="#000000" fill-opacity="1"><g transform="translate(27.250454, 18.106124)"><g><path d="M 0.015625 0.1875 L 0 0.03125 L 0.75 -0.03125 L 0.765625 0.125 Z M 0.015625 0.1875 "/></g></g></g><g fill="#000000" fill-opacity="1"><g transform="translate(27.2947, 18.881013)"><g><path d="M 0.609375 0.625 L 0.625 0.40625 L 0 0.390625 L 0 0.234375 L 0.625 0.25 L 0.625 0.015625 L 0.75 0.015625 L 0.734375 0.625 Z M 0.609375 0.625 "/></g></g></g><g fill="#000000" fill-opacity="1"><g transform="translate(27.240672, 20.060908)"><g><path d="M 0.21875 0.46875 L -0.0625 0.421875 L -0.03125 0.265625 L 0.25 0.3125 L 0.75 0.109375 L 0.71875 0.296875 L 0.390625 0.40625 L 0.6875 0.59375 L 0.65625 0.78125 Z M 0.21875 0.46875 "/></g></g></g><g clip-path="url(#f6ff393f49)"><path fill="#000000" d="M 17.703125 17.414062 L 20.90625 17.414062 C 21.046875 17.414062 21.164062 17.296875 21.164062 17.148438 L 21.164062 15.203125 C 21.164062 15.054688 21.046875 14.9375 20.90625 14.9375 L 17.703125 14.9375 C 17.5625 14.9375 17.445312 15.054688 17.445312 15.203125 L 17.445312 17.148438 C 17.445312 17.296875 17.5625 17.414062 17.703125 17.414062 Z M 17.960938 15.46875 L 20.648438 15.46875 L 20.648438 16.882812 L 17.960938 16.882812 Z M 16.125 26.035156 L 18.140625 23.792969 C 18.140625 23.792969 18.140625 23.789062 18.144531 23.789062 L 19.390625 22.402344 L 20.789062 20.84375 C 20.789062 20.84375 20.792969 20.84375 20.792969 20.839844 L 22.867188 18.53125 C 22.871094 18.53125 22.871094 18.527344 22.871094 18.527344 C 22.875 18.523438 22.878906 18.519531 22.882812 18.515625 C 22.882812 18.511719 22.886719 18.507812 22.886719 18.503906 C 22.890625 18.503906 22.894531 18.5 22.894531 18.496094 C 22.898438 18.492188 22.898438 18.488281 22.902344 18.484375 C 22.90625 18.480469 22.90625 18.476562 22.910156 18.472656 C 22.910156 18.46875 22.910156 18.464844 22.914062 18.460938 C 22.914062 18.457031 22.917969 18.453125 22.917969 18.449219 C 22.921875 18.445312 22.921875 18.441406 22.921875 18.4375 C 22.925781 18.433594 22.925781 18.429688 22.925781 18.421875 C 22.929688 18.417969 22.929688 18.414062 22.929688 18.410156 C 22.929688 18.40625 22.929688 18.402344 22.933594 18.398438 C 22.933594 18.394531 22.933594 18.390625 22.933594 18.386719 C 22.933594 18.382812 22.933594 18.378906 22.933594 18.371094 C 22.9375 18.367188 22.9375 18.363281 22.9375 18.359375 C 22.9375 18.355469 22.9375 18.355469 22.9375 18.351562 C 22.9375 18.351562 22.9375 18.347656 22.9375 18.347656 C 22.9375 18.34375 22.9375 18.335938 22.9375 18.332031 C 22.933594 18.328125 22.933594 18.324219 22.933594 18.320312 C 22.933594 18.316406 22.933594 18.3125 22.933594 18.308594 C 22.933594 18.304688 22.929688 18.296875 22.929688 18.292969 C 22.929688 18.289062 22.929688 18.285156 22.925781 18.28125 C 22.925781 18.277344 22.925781 18.273438 22.921875 18.269531 C 22.921875 18.265625 22.921875 18.261719 22.917969 18.257812 C 22.917969 18.253906 22.917969 18.25 22.914062 18.246094 C 22.914062 18.242188 22.910156 18.238281 22.910156 18.234375 C 22.90625 18.230469 22.90625 18.226562 22.902344 18.222656 C 22.902344 18.21875 22.898438 18.214844 22.898438 18.210938 C 22.894531 18.207031 22.894531 18.203125 22.890625 18.199219 C 22.886719 18.195312 22.886719 18.195312 22.882812 18.191406 C 22.878906 18.1875 22.878906 18.183594 22.875 18.179688 C 22.871094 18.175781 22.871094 18.171875 22.867188 18.171875 C 22.863281 18.167969 22.859375 18.164062 22.855469 18.160156 C 22.855469 18.160156 22.855469 18.15625 22.855469 18.15625 C 22.851562 18.15625 22.851562 18.152344 22.847656 18.152344 C 22.84375 18.148438 22.839844 18.144531 22.835938 18.144531 C 22.835938 18.140625 22.832031 18.136719 22.828125 18.136719 C 22.824219 18.132812 22.820312 18.128906 22.816406 18.128906 C 22.8125 18.125 22.808594 18.125 22.808594 18.121094 C 22.804688 18.121094 22.800781 18.117188 22.796875 18.117188 C 22.792969 18.113281 22.789062 18.113281 22.785156 18.109375 C 22.78125 18.109375 22.777344 18.105469 22.773438 18.105469 C 22.769531 18.101562 22.765625 18.101562 22.761719 18.101562 C 22.757812 18.097656 22.753906 18.097656 22.75 18.097656 C 22.746094 18.09375 22.742188 18.09375 22.734375 18.09375 C 22.730469 18.09375 22.726562 18.089844 22.722656 18.089844 C 22.71875 18.089844 22.714844 18.089844 22.710938 18.089844 C 22.707031 18.089844 22.703125 18.085938 22.699219 18.085938 C 22.695312 18.085938 22.691406 18.085938 22.683594 18.085938 C 22.683594 18.085938 22.679688 18.085938 22.679688 18.085938 L 15.929688 18.085938 C 15.929688 18.085938 15.929688 18.085938 15.925781 18.085938 C 15.921875 18.085938 15.917969 18.085938 15.914062 18.085938 C 15.910156 18.085938 15.90625 18.085938 15.902344 18.089844 C 15.898438 18.089844 15.890625 18.089844 15.886719 18.089844 C 15.882812 18.089844 15.878906 18.089844 15.875 18.09375 C 15.871094 18.09375 15.867188 18.09375 15.863281 18.097656 C 15.859375 18.097656 15.855469 18.097656 15.851562 18.097656 C 15.847656 18.101562 15.84375 18.101562 15.839844 18.101562 C 15.835938 18.105469 15.832031 18.105469 15.828125 18.109375 C 15.824219 18.109375 15.820312 18.113281 15.816406 18.113281 C 15.8125 18.117188 15.808594 18.117188 15.804688 18.121094 C 15.800781 18.121094 15.800781 18.125 15.796875 18.125 C 15.792969 18.128906 15.789062 18.128906 15.785156 18.132812 C 15.78125 18.136719 15.777344 18.136719 15.777344 18.140625 C 15.773438 18.144531 15.769531 18.144531 15.765625 18.148438 C 15.761719 18.148438 15.761719 18.152344 15.761719 18.152344 C 15.757812 18.152344 15.757812 18.15625 15.753906 18.15625 C 15.753906 18.160156 15.75 18.164062 15.746094 18.167969 C 15.742188 18.171875 15.738281 18.171875 15.738281 18.175781 C 15.734375 18.179688 15.730469 18.183594 15.730469 18.1875 C 15.726562 18.191406 15.722656 18.195312 15.722656 18.199219 C 15.71875 18.199219 15.714844 18.203125 15.714844 18.207031 C 15.710938 18.210938 15.710938 18.214844 15.707031 18.21875 C 15.707031 18.222656 15.703125 18.226562 15.703125 18.230469 C 15.699219 18.234375 15.699219 18.238281 15.695312 18.242188 C 15.695312 18.246094 15.691406 18.25 15.691406 18.253906 C 15.691406 18.257812 15.6875 18.261719 15.6875 18.265625 C 15.683594 18.269531 15.683594 18.273438 15.683594 18.277344 C 15.683594 18.28125 15.679688 18.285156 15.679688 18.289062 C 15.679688 18.292969 15.679688 18.300781 15.675781 18.304688 C 15.675781 18.308594 15.675781 18.3125 15.675781 18.316406 C 15.675781 18.320312 15.675781 18.324219 15.671875 18.328125 C 15.671875 18.332031 15.671875 18.339844 15.671875 18.34375 C 15.671875 18.347656 15.671875 18.347656 15.671875 18.351562 C 15.671875 18.351562 15.671875 18.355469 15.671875 18.355469 C 15.671875 18.359375 15.671875 18.363281 15.671875 18.371094 C 15.675781 18.375 15.675781 18.378906 15.675781 18.382812 C 15.675781 18.386719 15.675781 18.390625 15.675781 18.394531 C 15.675781 18.398438 15.675781 18.402344 15.679688 18.40625 C 15.679688 18.410156 15.679688 18.414062 15.683594 18.421875 C 15.683594 18.425781 15.683594 18.429688 15.683594 18.433594 C 15.6875 18.4375 15.6875 18.441406 15.6875 18.445312 C 15.691406 18.449219 15.691406 18.453125 15.695312 18.457031 C 15.695312 18.460938 15.695312 18.464844 15.699219 18.46875 C 15.699219 18.472656 15.703125 18.476562 15.703125 18.480469 C 15.707031 18.484375 15.707031 18.488281 15.710938 18.488281 C 15.714844 18.496094 15.714844 18.5 15.71875 18.503906 C 15.71875 18.503906 15.722656 18.507812 15.726562 18.511719 C 15.726562 18.515625 15.730469 18.519531 15.734375 18.523438 C 15.734375 18.523438 15.734375 18.523438 15.734375 18.527344 L 18.855469 22.214844 L 17.957031 23.210938 L 16.125 21.042969 C 16.03125 20.933594 15.871094 20.921875 15.761719 21.019531 C 15.652344 21.113281 15.640625 21.28125 15.734375 21.390625 L 17.605469 23.605469 L 16.726562 24.585938 L 16.125 23.875 C 16.03125 23.765625 15.871094 23.753906 15.761719 23.847656 C 15.652344 23.945312 15.640625 24.113281 15.734375 24.222656 L 16.371094 24.976562 L 15.742188 25.679688 C 15.738281 25.683594 15.734375 25.6875 15.730469 25.691406 C 15.230469 26.3125 14.304688 27.226562 13.691406 27.355469 L 14.089844 21.519531 C 14.855469 21.398438 15.449219 20.578125 15.449219 19.589844 C 15.449219 18.554688 15.015625 17.820312 14.351562 17.671875 L 14.359375 17.53125 C 14.367188 17.476562 14.402344 17.101562 14.375 16.652344 C 14.335938 15.980469 14.179688 15.488281 13.90625 15.191406 C 13.699219 14.964844 13.425781 14.851562 13.113281 14.859375 C 13.109375 14.859375 13.105469 14.859375 13.101562 14.859375 C 12.65625 14.859375 12.3125 14.980469 12.082031 15.21875 C 11.816406 15.488281 11.8125 15.808594 11.8125 15.84375 C 11.8125 15.988281 11.929688 16.105469 12.070312 16.105469 C 12.214844 16.105469 12.328125 15.988281 12.328125 15.839844 C 12.328125 15.839844 12.335938 15.707031 12.449219 15.59375 C 12.574219 15.460938 12.800781 15.390625 13.101562 15.390625 C 13.105469 15.390625 13.105469 15.390625 13.105469 15.390625 C 13.109375 15.390625 13.113281 15.390625 13.117188 15.390625 C 13.289062 15.382812 13.417969 15.433594 13.527344 15.550781 C 13.914062 15.976562 13.890625 17.085938 13.847656 17.476562 C 13.847656 17.480469 13.84375 17.484375 13.84375 17.488281 L 13.117188 28.191406 L 12.394531 17.84375 C 12.386719 17.695312 12.261719 17.585938 12.121094 17.597656 C 11.976562 17.609375 11.871094 17.734375 11.882812 17.882812 L 12.207031 22.546875 C 11.074219 22.710938 10.289062 23.824219 10.363281 25.21875 C 10.433594 26.59375 11.386719 27.632812 12.5625 27.660156 L 12.84375 31.710938 C 12.855469 31.851562 12.96875 31.957031 13.101562 31.957031 C 13.109375 31.957031 13.113281 31.957031 13.121094 31.957031 C 13.128906 31.957031 13.132812 31.957031 13.140625 31.957031 C 13.273438 31.957031 13.386719 31.851562 13.394531 31.710938 L 13.65625 27.894531 C 14.683594 27.78125 15.949219 26.25 16.125 26.035156 Z M 20.609375 20.261719 L 19.21875 18.617188 L 22.089844 18.617188 Z M 16.496094 18.617188 L 18.53125 18.617188 L 20.257812 20.65625 L 19.207031 21.824219 Z M 14.933594 19.589844 C 14.933594 20.261719 14.585938 20.820312 14.125 20.96875 L 14.3125 18.210938 C 14.765625 18.367188 14.933594 19.019531 14.933594 19.589844 Z M 10.878906 25.191406 C 10.847656 24.625 10.988281 24.097656 11.273438 23.703125 C 11.519531 23.355469 11.855469 23.140625 12.242188 23.078125 L 12.527344 27.128906 C 11.644531 27.078125 10.933594 26.261719 10.878906 25.191406 Z M 22.9375 28.332031 C 22.9375 28.476562 22.820312 28.59375 22.679688 28.59375 L 15.929688 28.59375 C 15.789062 28.59375 15.671875 28.476562 15.671875 28.332031 C 15.671875 28.320312 15.671875 28.308594 15.675781 28.296875 C 15.664062 28.222656 15.6875 28.144531 15.742188 28.085938 L 22.488281 20.578125 C 22.585938 20.46875 22.75 20.464844 22.855469 20.5625 C 22.957031 20.664062 22.964844 20.832031 22.867188 20.9375 L 16.460938 28.066406 L 18.144531 28.066406 L 22.488281 23.230469 C 22.585938 23.125 22.75 23.117188 22.855469 23.214844 C 22.957031 23.316406 22.964844 23.484375 22.867188 23.589844 L 18.847656 28.066406 L 20.65625 28.066406 L 22.488281 26.027344 C 22.585938 25.917969 22.75 25.914062 22.855469 26.011719 C 22.957031 26.113281 22.964844 26.28125 22.867188 26.386719 L 21.359375 28.066406 L 22.679688 28.066406 C 22.820312 28.066406 22.9375 28.183594 22.9375 28.332031 Z M 20.90625 29.480469 L 17.703125 29.480469 C 17.5625 29.480469 17.445312 29.597656 17.445312 29.746094 L 17.445312 31.691406 C 17.445312 31.839844 17.5625 31.957031 17.703125 31.957031 L 20.90625 31.957031 C 21.046875 31.957031 21.164062 31.839844 21.164062 31.691406 L 21.164062 29.746094 C 21.164062 29.597656 21.046875 29.480469 20.90625 29.480469 Z M 20.648438 31.425781 L 17.960938 31.425781 L 17.960938 30.011719 L 20.648438 30.011719 Z M 10.882812 17.023438 C 10.835938 16.886719 10.90625 16.734375 11.042969 16.6875 C 11.085938 16.667969 12.011719 16.339844 12.832031 16.554688 L 12.832031 16.457031 C 12.832031 16.3125 12.949219 16.191406 13.089844 16.191406 C 13.234375 16.191406 13.347656 16.3125 13.347656 16.457031 L 13.347656 17.414062 C 13.347656 17.5625 13.234375 17.679688 13.089844 17.679688 C 12.949219 17.679688 12.832031 17.5625 12.832031 17.414062 L 12.832031 17.109375 C 12.507812 16.988281 12.125 17.003906 11.847656 17.039062 C 11.484375 17.089844 11.214844 17.1875 11.214844 17.1875 C 11.1875 17.195312 11.15625 17.203125 11.128906 17.203125 C 11.023438 17.203125 10.921875 17.132812 10.882812 17.023438 Z M 10.882812 17.023438 " fill-opacity="1" fill-rule="nonzero"/></g><g fill="#000000" fill-opacity="1"><g transform="translate(6.681141, 34.357734)"><g><path d="M 0.6875 -0.640625 C 0.675781 -0.660156 0.664062 -0.675781 0.65625 -0.6875 C 0.644531 -0.707031 0.628906 -0.722656 0.609375 -0.734375 C 0.597656 -0.753906 0.578125 -0.769531 0.546875 -0.78125 C 0.523438 -0.789062 0.5 -0.796875 0.46875 -0.796875 C 0.4375 -0.796875 0.40625 -0.785156 0.375 -0.765625 C 0.34375 -0.753906 0.3125 -0.734375 0.28125 -0.703125 C 0.257812 -0.671875 0.242188 -0.632812 0.234375 -0.59375 C 0.222656 -0.550781 0.21875 -0.503906 0.21875 -0.453125 C 0.21875 -0.398438 0.222656 -0.351562 0.234375 -0.3125 C 0.242188 -0.28125 0.257812 -0.25 0.28125 -0.21875 C 0.3125 -0.1875 0.34375 -0.160156 0.375 -0.140625 C 0.40625 -0.128906 0.4375 -0.125 0.46875 -0.125 C 0.5 -0.125 0.53125 -0.128906 0.5625 -0.140625 C 0.59375 -0.148438 0.617188 -0.164062 0.640625 -0.1875 C 0.660156 -0.207031 0.675781 -0.226562 0.6875 -0.25 C 0.695312 -0.28125 0.703125 -0.3125 0.703125 -0.34375 L 0.5 -0.34375 L 0.5 -0.5 L 0.875 -0.5 L 0.875 0.03125 C 0.875 0.0820312 0.882812 0.113281 0.90625 0.125 C 0.925781 0.144531 0.945312 0.15625 0.96875 0.15625 C 1 0.15625 1.023438 0.144531 1.046875 0.125 C 1.066406 0.101562 1.078125 0.0664062 1.078125 0.015625 L 1.234375 0.015625 C 1.234375 0.0664062 1.226562 0.109375 1.21875 0.140625 C 1.207031 0.179688 1.1875 0.210938 1.15625 0.234375 C 1.132812 0.265625 1.109375 0.285156 1.078125 0.296875 C 1.046875 0.316406 1.007812 0.328125 0.96875 0.328125 C 0.925781 0.328125 0.890625 0.316406 0.859375 0.296875 C 0.828125 0.285156 0.796875 0.265625 0.765625 0.234375 C 0.742188 0.210938 0.726562 0.1875 0.71875 0.15625 C 0.707031 0.125 0.703125 0.0859375 0.703125 0.046875 L 0.703125 -0.0625 C 0.671875 -0.03125 0.632812 -0.0078125 0.59375 0 C 0.550781 0.0195312 0.5 0.03125 0.4375 0.03125 C 0.375 0.03125 0.316406 0.0195312 0.265625 0 C 0.210938 -0.03125 0.164062 -0.0664062 0.125 -0.109375 C 0.09375 -0.148438 0.0664062 -0.203125 0.046875 -0.265625 C 0.0234375 -0.328125 0.015625 -0.394531 0.015625 -0.46875 C 0.015625 -0.53125 0.0234375 -0.59375 0.046875 -0.65625 C 0.0664062 -0.71875 0.09375 -0.769531 0.125 -0.8125 C 0.164062 -0.851562 0.210938 -0.882812 0.265625 -0.90625 C 0.328125 -0.9375 0.394531 -0.953125 0.46875 -0.953125 C 0.53125 -0.953125 0.582031 -0.941406 0.625 -0.921875 C 0.675781 -0.910156 0.71875 -0.890625 0.75 -0.859375 C 0.789062 -0.835938 0.820312 -0.804688 0.84375 -0.765625 C 0.863281 -0.722656 0.875 -0.679688 0.875 -0.640625 Z M 0.6875 -0.640625 "/></g></g></g><g fill="#000000" fill-opacity="1"><g transform="translate(8.239265, 34.357734)"><g><path d="M 0.21875 -0.765625 L 0.21875 -0.515625 L 0.453125 -0.515625 C 0.492188 -0.515625 0.523438 -0.523438 0.546875 -0.546875 C 0.578125 -0.578125 0.59375 -0.609375 0.59375 -0.640625 C 0.59375 -0.671875 0.582031 -0.695312 0.5625 -0.71875 C 0.539062 -0.75 0.507812 -0.765625 0.46875 -0.765625 Z M 0.765625 0 L 0.5625 0 L 0.5625 -0.234375 C 0.5625 -0.273438 0.550781 -0.304688 0.53125 -0.328125 C 0.507812 -0.347656 0.472656 -0.359375 0.421875 -0.359375 L 0.21875 -0.359375 L 0.21875 0 L 0.03125 0 L 0.03125 -0.921875 L 0.5 -0.921875 C 0.539062 -0.921875 0.578125 -0.910156 0.609375 -0.890625 C 0.648438 -0.878906 0.679688 -0.863281 0.703125 -0.84375 C 0.734375 -0.820312 0.753906 -0.796875 0.765625 -0.765625 C 0.773438 -0.734375 0.78125 -0.695312 0.78125 -0.65625 C 0.78125 -0.601562 0.769531 -0.554688 0.75 -0.515625 C 0.726562 -0.484375 0.691406 -0.457031 0.640625 -0.4375 C 0.679688 -0.425781 0.710938 -0.40625 0.734375 -0.375 C 0.753906 -0.351562 0.765625 -0.316406 0.765625 -0.265625 Z M 0.765625 0 "/></g></g></g><g fill="#000000" fill-opacity="1"><g transform="translate(9.678343, 34.357734)"><g><path d="M 0.21875 -0.453125 C 0.21875 -0.335938 0.238281 -0.253906 0.28125 -0.203125 C 0.320312 -0.160156 0.382812 -0.140625 0.46875 -0.140625 C 0.5 -0.140625 0.53125 -0.144531 0.5625 -0.15625 C 0.59375 -0.164062 0.617188 -0.179688 0.640625 -0.203125 C 0.660156 -0.234375 0.675781 -0.269531 0.6875 -0.3125 C 0.707031 -0.351562 0.71875 -0.398438 0.71875 -0.453125 C 0.71875 -0.554688 0.691406 -0.632812 0.640625 -0.6875 C 0.597656 -0.75 0.539062 -0.78125 0.46875 -0.78125 C 0.382812 -0.78125 0.320312 -0.75 0.28125 -0.6875 C 0.238281 -0.632812 0.21875 -0.554688 0.21875 -0.453125 Z M 0.46875 -0.953125 C 0.601562 -0.953125 0.707031 -0.90625 0.78125 -0.8125 C 0.863281 -0.726562 0.90625 -0.609375 0.90625 -0.453125 C 0.90625 -0.285156 0.867188 -0.160156 0.796875 -0.078125 C 0.722656 -0.00390625 0.613281 0.03125 0.46875 0.03125 C 0.320312 0.03125 0.207031 -0.0078125 0.125 -0.09375 C 0.0507812 -0.175781 0.015625 -0.296875 0.015625 -0.453125 C 0.015625 -0.523438 0.0234375 -0.59375 0.046875 -0.65625 C 0.0664062 -0.71875 0.09375 -0.769531 0.125 -0.8125 C 0.164062 -0.863281 0.210938 -0.898438 0.265625 -0.921875 C 0.328125 -0.941406 0.394531 -0.953125 0.46875 -0.953125 Z M 0.46875 -0.953125 "/></g></g></g><g fill="#000000" fill-opacity="1"><g transform="translate(11.247015, 34.357734)"><g><path d="M 0.921875 0 L 0.734375 0 L 0.59375 -0.59375 L 0.453125 0 L 0.265625 0 L 0 -0.921875 L 0.203125 -0.921875 L 0.359375 -0.328125 L 0.484375 -0.921875 L 0.6875 -0.921875 L 0.828125 -0.328125 L 0.984375 -0.921875 L 1.171875 -0.921875 Z M 0.921875 0 "/></g></g></g><g fill="#000000" fill-opacity="1"><g transform="translate(13.074872, 34.357734)"><g><path d="M 0.78125 0 L 0.59375 0 L 0.21875 -0.625 L 0.21875 0 L 0.03125 0 L 0.03125 -0.921875 L 0.234375 -0.921875 L 0.609375 -0.3125 L 0.609375 -0.921875 L 0.78125 -0.921875 Z M 0.78125 0 "/></g></g></g><g fill="#000000" fill-opacity="1"><g transform="translate(23.846539, 34.357734)"><g><path d="M 0.6875 -0.765625 L 0.21875 -0.765625 L 0.21875 -0.546875 L 0.625 -0.546875 L 0.625 -0.390625 L 0.21875 -0.390625 L 0.21875 0 L 0.03125 0 L 0.03125 -0.921875 L 0.6875 -0.921875 Z M 0.6875 -0.765625 "/></g></g></g><g fill="#000000" fill-opacity="1"><g transform="translate(25.18315, 34.357734)"><g><path d="M 0.4375 -0.71875 L 0.328125 -0.34375 L 0.5625 -0.34375 Z M 0.875 0 L 0.671875 0 L 0.609375 -0.1875 L 0.265625 -0.1875 L 0.203125 0 L 0 0 L 0.328125 -0.921875 L 0.5625 -0.921875 Z M 0.875 0 "/></g></g></g><g fill="#000000" fill-opacity="1"><g transform="translate(26.712643, 34.357734)"><g><path d="M 0.21875 -0.40625 L 0.21875 -0.15625 L 0.46875 -0.15625 C 0.507812 -0.15625 0.539062 -0.164062 0.5625 -0.1875 C 0.59375 -0.21875 0.609375 -0.253906 0.609375 -0.296875 C 0.609375 -0.328125 0.59375 -0.351562 0.5625 -0.375 C 0.53125 -0.394531 0.5 -0.40625 0.46875 -0.40625 Z M 0.21875 -0.765625 L 0.21875 -0.5625 L 0.453125 -0.5625 C 0.492188 -0.5625 0.523438 -0.566406 0.546875 -0.578125 C 0.566406 -0.597656 0.578125 -0.625 0.578125 -0.65625 C 0.578125 -0.695312 0.566406 -0.722656 0.546875 -0.734375 C 0.523438 -0.753906 0.488281 -0.765625 0.4375 -0.765625 Z M 0.484375 -0.921875 C 0.566406 -0.921875 0.632812 -0.894531 0.6875 -0.84375 C 0.738281 -0.800781 0.765625 -0.742188 0.765625 -0.671875 C 0.765625 -0.578125 0.726562 -0.519531 0.65625 -0.5 C 0.695312 -0.476562 0.726562 -0.445312 0.75 -0.40625 C 0.78125 -0.375 0.796875 -0.332031 0.796875 -0.28125 C 0.796875 -0.1875 0.765625 -0.113281 0.703125 -0.0625 C 0.648438 -0.0195312 0.566406 0 0.453125 0 L 0.03125 0 L 0.03125 -0.921875 Z M 0.484375 -0.921875 "/></g></g></g><g fill="#000000" fill-opacity="1"><g transform="translate(35.286193, 26.257966)"><g><path d="M 0 -10.546875 L 6.328125 -10.546875 L 6.328125 -8.4375 L 2.109375 -8.4375 L 2.109375 -6.328125 L 5.28125 -6.328125 L 5.28125 -4.21875 L 2.109375 -4.21875 L 2.109375 0 L 0 0 Z M 0 -10.546875 "/></g></g></g><g fill="#000000" fill-opacity="1"><g transform="translate(42.56197, 26.257966)"><g><path d="M 0 0 L 0 -10.546875 L 2.109375 -10.546875 L 2.109375 0 Z M 0 0 "/></g></g></g><g fill="#000000" fill-opacity="1"><g transform="translate(45.787652, 26.257966)"><g><path d="M 0 -10.546875 L 6.328125 -4.78125 L 6.328125 -10.546875 L 8.4375 -10.546875 L 8.4375 0 L 2.109375 -5.78125 L 2.109375 0 L 0 0 Z M 0 -10.546875 "/></g></g></g><g fill="#000000" fill-opacity="1"><g transform="translate(55.379638, 26.257966)"><g><path d="M 0 -10.546875 L 6.328125 -10.546875 L 6.328125 -8.4375 L 2.109375 -8.4375 L 2.109375 -6.328125 L 5.28125 -6.328125 L 5.28125 -4.21875 L 2.109375 -4.21875 L 2.109375 -2.109375 L 6.328125 -2.109375 L 6.328125 0 L 0 0 Z M 0 -10.546875 "/></g></g></g><g fill="#000000" fill-opacity="1"><g transform="translate(62.655415, 26.257966)"><g/></g></g><g fill="#000000" fill-opacity="1"><g transform="translate(65.926898, 26.257966)"><g><path d="M 2.640625 -10.546875 L 7.390625 -10.546875 L 7.390625 -8.4375 L 4.75 -8.4375 L 4.75 0 L 2.640625 0 L 2.640625 -8.4375 L 0 -8.4375 L 0 -10.546875 Z M 2.640625 -10.546875 "/></g></g></g><g fill="#000000" fill-opacity="1"><g transform="translate(74.36078, 26.257966)"><g><path d="M 0 -10.546875 L 2.109375 -10.546875 L 2.109375 -6.328125 L 5.28125 -6.328125 L 5.28125 -10.546875 L 7.390625 -10.546875 L 7.390625 0 L 5.28125 0 L 5.28125 -4.21875 L 2.109375 -4.21875 L 2.109375 0 L 0 0 Z M 0 -10.546875 "/></g></g></g><g fill="#000000" fill-opacity="1"><g transform="translate(82.709603, 26.257966)"><g><path d="M 0 0 L 0 -10.546875 L 3.6875 -10.546875 C 4.707031 -10.546875 5.578125 -10.1875 6.296875 -9.46875 C 7.023438 -8.738281 7.390625 -7.867188 7.390625 -6.859375 C 7.390625 -6.078125 7.164062 -5.375 6.71875 -4.75 C 6.269531 -4.113281 5.695312 -3.664062 5 -3.40625 L 7.390625 0 L 4.8125 0 L 2.109375 -3.859375 L 2.109375 0 Z M 2.109375 -5.28125 L 3.6875 -5.28125 C 4.125 -5.28125 4.5 -5.429688 4.8125 -5.734375 C 5.125 -6.046875 5.28125 -6.421875 5.28125 -6.859375 C 5.28125 -7.296875 5.125 -7.671875 4.8125 -7.984375 C 4.5 -8.285156 4.125 -8.4375 3.6875 -8.4375 L 2.109375 -8.4375 Z M 2.109375 -5.28125 "/></g></g></g><g fill="#000000" fill-opacity="1"><g transform="translate(91.058426, 26.257966)"><g><path d="M 0 -10.546875 L 6.328125 -10.546875 L 6.328125 -8.4375 L 2.109375 -8.4375 L 2.109375 -6.328125 L 5.28125 -6.328125 L 5.28125 -4.21875 L 2.109375 -4.21875 L 2.109375 -2.109375 L 6.328125 -2.109375 L 6.328125 0 L 0 0 Z M 0 -10.546875 "/></g></g></g><g fill="#000000" fill-opacity="1"><g transform="translate(98.334203, 26.257966)"><g><path d="M 3.765625 -3.6875 L 5.421875 -3.6875 L 4.59375 -5.53125 Z M 2.8125 -1.578125 L 2.78125 -1.5 L 2.09375 0 L -0.15625 0 L 4.359375 -10.0625 L 4.59375 -10.546875 L 4.8125 -10.0625 L 9.34375 0 L 7.078125 0 L 6.40625 -1.515625 L 6.375 -1.578125 Z M 2.8125 -1.578125 "/></g></g></g><g fill="#000000" fill-opacity="1"><g transform="translate(108.089763, 26.257966)"><g><path d="M 2.109375 -10.546875 C 3.554688 -10.546875 4.800781 -10.03125 5.84375 -9 C 6.875 -7.96875 7.390625 -6.726562 7.390625 -5.28125 C 7.390625 -3.820312 6.875 -2.578125 5.84375 -1.546875 C 4.800781 -0.515625 3.554688 0 2.109375 0 L 0 0 L 0 -10.546875 Z M 2.109375 -2.109375 C 2.984375 -2.109375 3.726562 -2.421875 4.34375 -3.046875 C 4.96875 -3.660156 5.28125 -4.40625 5.28125 -5.28125 C 5.28125 -6.144531 4.96875 -6.890625 4.34375 -7.515625 C 3.726562 -8.128906 2.984375 -8.4375 2.109375 -8.4375 Z M 2.109375 -2.109375 "/></g></g></g><g fill="#000000" fill-opacity="1"><g transform="translate(116.189954, 26.257966)"><g/></g></g><g fill="#000000" fill-opacity="1"><g transform="translate(119.461437, 26.257966)"><g><path d="M 5.28125 -10.546875 C 6.726562 -10.546875 7.96875 -10.03125 9 -9 C 10.03125 -7.96875 10.546875 -6.726562 10.546875 -5.28125 C 10.546875 -3.820312 10.03125 -2.578125 9 -1.546875 C 7.96875 -0.515625 6.726562 0 5.28125 0 C 3.820312 0 2.578125 -0.515625 1.546875 -1.546875 C 0.515625 -2.578125 0 -3.820312 0 -5.28125 C 0 -6.726562 0.515625 -7.96875 1.546875 -9 C 2.578125 -10.03125 3.820312 -10.546875 5.28125 -10.546875 Z M 5.28125 -8.4375 C 4.40625 -8.4375 3.660156 -8.128906 3.046875 -7.515625 C 2.421875 -6.890625 2.109375 -6.144531 2.109375 -5.28125 C 2.109375 -4.40625 2.421875 -3.660156 3.046875 -3.046875 C 3.660156 -2.421875 4.40625 -2.109375 5.28125 -2.109375 C 6.144531 -2.109375 6.890625 -2.421875 7.515625 -3.046875 C 8.128906 -3.660156 8.4375 -4.40625 8.4375 -5.28125 C 8.4375 -6.144531 8.128906 -6.890625 7.515625 -7.515625 C 6.890625 -8.128906 6.144531 -8.4375 5.28125 -8.4375 Z M 5.28125 -8.4375 "/></g></g></g><g fill="#000000" fill-opacity="1"><g transform="translate(130.623735, 26.257966)"><g><path d="M 9.34375 -10.546875 L 4.59375 0 L 4.359375 -0.5 L -0.15625 -10.546875 L 2.078125 -10.546875 L 4.578125 -5 L 7.078125 -10.546875 Z M 9.34375 -10.546875 "/></g></g></g><g fill="#000000" fill-opacity="1"><g transform="translate(140.379295, 26.257966)"><g><path d="M 0 -10.546875 L 6.328125 -10.546875 L 6.328125 -8.4375 L 2.109375 -8.4375 L 2.109375 -6.328125 L 5.28125 -6.328125 L 5.28125 -4.21875 L 2.109375 -4.21875 L 2.109375 -2.109375 L 6.328125 -2.109375 L 6.328125 0 L 0 0 Z M 0 -10.546875 "/></g></g></g><g fill="#000000" fill-opacity="1"><g transform="translate(147.655072, 26.257966)"><g><path d="M 0 0 L 0 -10.546875 L 3.6875 -10.546875 C 4.707031 -10.546875 5.578125 -10.1875 6.296875 -9.46875 C 7.023438 -8.738281 7.390625 -7.867188 7.390625 -6.859375 C 7.390625 -6.078125 7.164062 -5.375 6.71875 -4.75 C 6.269531 -4.113281 5.695312 -3.664062 5 -3.40625 L 7.390625 0 L 4.8125 0 L 2.109375 -3.859375 L 2.109375 0 Z M 2.109375 -5.28125 L 3.6875 -5.28125 C 4.125 -5.28125 4.5 -5.429688 4.8125 -5.734375 C 5.125 -6.046875 5.28125 -6.421875 5.28125 -6.859375 C 5.28125 -7.296875 5.125 -7.671875 4.8125 -7.984375 C 4.5 -8.285156 4.125 -8.4375 3.6875 -8.4375 L 2.109375 -8.4375 Z M 2.109375 -5.28125 "/></g></g></g><g fill="#000000" fill-opacity="1"><g transform="translate(156.003895, 26.257966)"><g><path d="M 2.96875 -4.296875 C 2.894531 -4.316406 2.703125 -4.382812 2.390625 -4.5 C 2.078125 -4.601562 1.742188 -4.773438 1.390625 -5.015625 C 1.023438 -5.253906 0.703125 -5.566406 0.421875 -5.953125 C 0.140625 -6.335938 0 -6.816406 0 -7.390625 C 0 -8.253906 0.304688 -9 0.921875 -9.625 C 1.546875 -10.238281 2.296875 -10.546875 3.171875 -10.546875 C 4.035156 -10.546875 4.78125 -10.238281 5.40625 -9.625 C 6.019531 -9 6.328125 -8.253906 6.328125 -7.390625 L 4.21875 -7.390625 C 4.21875 -7.679688 4.117188 -7.929688 3.921875 -8.140625 C 3.703125 -8.335938 3.453125 -8.4375 3.171875 -8.4375 C 2.878906 -8.4375 2.628906 -8.335938 2.421875 -8.140625 C 2.210938 -7.929688 2.109375 -7.679688 2.109375 -7.390625 C 2.109375 -7.015625 2.265625 -6.734375 2.578125 -6.546875 C 2.878906 -6.347656 3.109375 -6.222656 3.265625 -6.171875 C 3.335938 -6.148438 3.539062 -6.09375 3.875 -6 C 4.195312 -5.90625 4.539062 -5.742188 4.90625 -5.515625 C 5.269531 -5.296875 5.597656 -5 5.890625 -4.625 C 6.179688 -4.238281 6.328125 -3.753906 6.328125 -3.171875 C 6.328125 -2.296875 6.019531 -1.546875 5.40625 -0.921875 C 4.78125 -0.304688 4.035156 0 3.171875 0 C 2.296875 0 1.546875 -0.304688 0.921875 -0.921875 C 0.304688 -1.546875 0 -2.296875 0 -3.171875 L 2.109375 -3.171875 C 2.109375 -2.878906 2.210938 -2.628906 2.421875 -2.421875 C 2.628906 -2.210938 2.878906 -2.109375 3.171875 -2.109375 C 3.453125 -2.109375 3.703125 -2.210938 3.921875 -2.421875 C 4.117188 -2.628906 4.21875 -2.878906 4.21875 -3.171875 C 4.21875 -3.617188 4.039062 -3.90625 3.6875 -4.03125 C 3.332031 -4.164062 3.09375 -4.253906 2.96875 -4.296875 Z M 2.96875 -4.296875 "/></g></g></g><g fill="#000000" fill-opacity="1"><g transform="translate(163.194614, 26.257966)"><g><path d="M 0 -10.546875 L 6.328125 -10.546875 L 6.328125 -8.4375 L 2.109375 -8.4375 L 2.109375 -6.328125 L 5.28125 -6.328125 L 5.28125 -4.21875 L 2.109375 -4.21875 L 2.109375 -2.109375 L 6.328125 -2.109375 L 6.328125 0 L 0 0 Z M 0 -10.546875 "/></g></g></g><g fill="#000000" fill-opacity="1"><g transform="translate(170.470391, 26.257966)"><g><path d="M 3.765625 -3.6875 L 5.421875 -3.6875 L 4.59375 -5.53125 Z M 2.8125 -1.578125 L 2.78125 -1.5 L 2.09375 0 L -0.15625 0 L 4.359375 -10.0625 L 4.59375 -10.546875 L 4.8125 -10.0625 L 9.34375 0 L 7.078125 0 L 6.40625 -1.515625 L 6.375 -1.578125 Z M 2.8125 -1.578125 "/></g></g></g><g fill="#000000" fill-opacity="1"><g transform="translate(180.225951, 26.257966)"><g><path d="M 2.96875 -4.296875 C 2.894531 -4.316406 2.703125 -4.382812 2.390625 -4.5 C 2.078125 -4.601562 1.742188 -4.773438 1.390625 -5.015625 C 1.023438 -5.253906 0.703125 -5.566406 0.421875 -5.953125 C 0.140625 -6.335938 0 -6.816406 0 -7.390625 C 0 -8.253906 0.304688 -9 0.921875 -9.625 C 1.546875 -10.238281 2.296875 -10.546875 3.171875 -10.546875 C 4.035156 -10.546875 4.78125 -10.238281 5.40625 -9.625 C 6.019531 -9 6.328125 -8.253906 6.328125 -7.390625 L 4.21875 -7.390625 C 4.21875 -7.679688 4.117188 -7.929688 3.921875 -8.140625 C 3.703125 -8.335938 3.453125 -8.4375 3.171875 -8.4375 C 2.878906 -8.4375 2.628906 -8.335938 2.421875 -8.140625 C 2.210938 -7.929688 2.109375 -7.679688 2.109375 -7.390625 C 2.109375 -7.015625 2.265625 -6.734375 2.578125 -6.546875 C 2.878906 -6.347656 3.109375 -6.222656 3.265625 -6.171875 C 3.335938 -6.148438 3.539062 -6.09375 3.875 -6 C 4.195312 -5.90625 4.539062 -5.742188 4.90625 -5.515625 C 5.269531 -5.296875 5.597656 -5 5.890625 -4.625 C 6.179688 -4.238281 6.328125 -3.753906 6.328125 -3.171875 C 6.328125 -2.296875 6.019531 -1.546875 5.40625 -0.921875 C 4.78125 -0.304688 4.035156 0 3.171875 0 C 2.296875 0 1.546875 -0.304688 0.921875 -0.921875 C 0.304688 -1.546875 0 -2.296875 0 -3.171875 L 2.109375 -3.171875 C 2.109375 -2.878906 2.210938 -2.628906 2.421875 -2.421875 C 2.628906 -2.210938 2.878906 -2.109375 3.171875 -2.109375 C 3.453125 -2.109375 3.703125 -2.210938 3.921875 -2.421875 C 4.117188 -2.628906 4.21875 -2.878906 4.21875 -3.171875 C 4.21875 -3.617188 4.039062 -3.90625 3.6875 -4.03125 C 3.332031 -4.164062 3.09375 -4.253906 2.96875 -4.296875 Z M 2.96875 -4.296875 "/></g></g></g></svg>