<svg xmlns="http://www.w3.org/2000/svg" xmlns:xlink="http://www.w3.org/1999/xlink" width="320" zoomAndPan="magnify" viewBox="0 0 240 47.25" height="63" preserveAspectRatio="xMidYMid meet" version="1.0"><defs><g/><clipPath id="3e932d4562"><path d="M 9.773438 5 L 38.898438 5 L 38.898438 41.542969 L 9.773438 41.542969 Z M 9.773438 5 " clip-rule="nonzero"/></clipPath><clipPath id="7b0f2e2970"><path d="M 10 5 L 38.898438 5 L 38.898438 41.542969 L 10 41.542969 Z M 10 5 " clip-rule="nonzero"/></clipPath><clipPath id="0f70dc06d7"><path d="M 17 13.554688 L 31.835938 13.554688 L 31.835938 32.972656 L 17 32.972656 Z M 17 13.554688 " clip-rule="nonzero"/></clipPath></defs><g fill="#f8f1e5" fill-opacity="1"><g transform="translate(44.026894, 29.264895)"><g><path d="M 0 -12.046875 L 7.21875 -12.046875 L 7.21875 -9.640625 L 2.40625 -9.640625 L 2.40625 -7.21875 L 6.015625 -7.21875 L 6.015625 -4.8125 L 2.40625 -4.8125 L 2.40625 0 L 0 0 Z M 0 -12.046875 "/></g></g></g><g fill="#f8f1e5" fill-opacity="1"><g transform="translate(53.142031, 29.264895)"><g><path d="M 0 0 L 0 -12.046875 L 2.40625 -12.046875 L 2.40625 0 Z M 0 0 "/></g></g></g><g fill="#f8f1e5" fill-opacity="1"><g transform="translate(57.634418, 29.264895)"><g><path d="M 0 -12.046875 L 7.21875 -5.453125 L 7.21875 -12.046875 L 9.640625 -12.046875 L 9.640625 0 L 2.40625 -6.59375 L 2.40625 0 L 0 0 Z M 0 -12.046875 "/></g></g></g><g fill="#f8f1e5" fill-opacity="1"><g transform="translate(69.39326, 29.264895)"><g><path d="M 0 -12.046875 L 7.21875 -12.046875 L 7.21875 -9.640625 L 2.40625 -9.640625 L 2.40625 -7.21875 L 6.015625 -7.21875 L 6.015625 -4.8125 L 2.40625 -4.8125 L 2.40625 -2.40625 L 7.21875 -2.40625 L 7.21875 0 L 0 0 Z M 0 -12.046875 "/></g></g></g><g fill="#f8f1e5" fill-opacity="1"><g transform="translate(78.508398, 29.264895)"><g/></g></g><g fill="#f8f1e5" fill-opacity="1"><g transform="translate(83.053063, 29.264895)"><g><path d="M 3.015625 -12.046875 L 8.4375 -12.046875 L 8.4375 -9.640625 L 5.421875 -9.640625 L 5.421875 0 L 3.015625 0 L 3.015625 -9.640625 L 0 -9.640625 L 0 -12.046875 Z M 3.015625 -12.046875 "/></g></g></g><g fill="#f8f1e5" fill-opacity="1"><g transform="translate(93.490053, 29.264895)"><g><path d="M 0 -12.046875 L 2.40625 -12.046875 L 2.40625 -7.21875 L 6.015625 -7.21875 L 6.015625 -12.046875 L 8.4375 -12.046875 L 8.4375 0 L 6.015625 0 L 6.015625 -4.8125 L 2.40625 -4.8125 L 2.40625 0 L 0 0 Z M 0 -12.046875 "/></g></g></g><g fill="#f8f1e5" fill-opacity="1"><g transform="translate(103.829959, 29.264895)"><g><path d="M 0 0 L 0 -12.046875 L 4.21875 -12.046875 C 5.375 -12.046875 6.363281 -11.628906 7.1875 -10.796875 C 8.019531 -9.972656 8.4375 -8.984375 8.4375 -7.828125 C 8.4375 -6.929688 8.179688 -6.128906 7.671875 -5.421875 C 7.160156 -4.703125 6.507812 -4.191406 5.71875 -3.890625 L 8.4375 0 L 5.484375 0 L 2.40625 -4.40625 L 2.40625 0 Z M 2.40625 -6.015625 L 4.21875 -6.015625 C 4.707031 -6.015625 5.128906 -6.191406 5.484375 -6.546875 C 5.835938 -6.898438 6.015625 -7.328125 6.015625 -7.828125 C 6.015625 -8.316406 5.835938 -8.742188 5.484375 -9.109375 C 5.128906 -9.460938 4.707031 -9.640625 4.21875 -9.640625 L 2.40625 -9.640625 Z M 2.40625 -6.015625 "/></g></g></g><g fill="#f8f1e5" fill-opacity="1"><g transform="translate(114.169861, 29.264895)"><g><path d="M 0 -12.046875 L 7.21875 -12.046875 L 7.21875 -9.640625 L 2.40625 -9.640625 L 2.40625 -7.21875 L 6.015625 -7.21875 L 6.015625 -4.8125 L 2.40625 -4.8125 L 2.40625 -2.40625 L 7.21875 -2.40625 L 7.21875 0 L 0 0 Z M 0 -12.046875 "/></g></g></g><g fill="#f8f1e5" fill-opacity="1"><g transform="translate(123.284995, 29.264895)"><g><path d="M 4.296875 -4.21875 L 6.1875 -4.21875 L 5.25 -6.3125 Z M 3.21875 -1.8125 L 3.171875 -1.71875 L 2.390625 0 L -0.171875 0 L 4.984375 -11.484375 L 5.234375 -12.046875 L 5.5 -11.46875 L 10.65625 0 L 8.078125 0 L 7.3125 -1.71875 L 7.28125 -1.8125 Z M 3.21875 -1.8125 "/></g></g></g><g fill="#f8f1e5" fill-opacity="1"><g transform="translate(135.230536, 29.264895)"><g><path d="M 2.40625 -12.046875 C 4.0625 -12.046875 5.476562 -11.453125 6.65625 -10.265625 C 7.84375 -9.085938 8.4375 -7.671875 8.4375 -6.015625 C 8.4375 -4.359375 7.84375 -2.941406 6.65625 -1.765625 C 5.476562 -0.585938 4.0625 0 2.40625 0 L 0 0 L 0 -12.046875 Z M 2.40625 -2.40625 C 3.40625 -2.40625 4.253906 -2.757812 4.953125 -3.46875 C 5.660156 -4.175781 6.015625 -5.023438 6.015625 -6.015625 C 6.015625 -7.003906 5.660156 -7.859375 4.953125 -8.578125 C 4.253906 -9.285156 3.40625 -9.640625 2.40625 -9.640625 Z M 2.40625 -2.40625 "/></g></g></g><g fill="#f8f1e5" fill-opacity="1"><g transform="translate(145.28665, 29.264895)"><g/></g></g><g fill="#f8f1e5" fill-opacity="1"><g transform="translate(149.831311, 29.264895)"><g><path d="M 6.015625 -12.046875 C 7.671875 -12.046875 9.085938 -11.453125 10.265625 -10.265625 C 11.453125 -9.085938 12.046875 -7.671875 12.046875 -6.015625 C 12.046875 -4.359375 11.453125 -2.941406 10.265625 -1.765625 C 9.085938 -0.585938 7.671875 0 6.015625 0 C 4.359375 0 2.941406 -0.585938 1.765625 -1.765625 C 0.585938 -2.941406 0 -4.359375 0 -6.015625 C 0 -7.671875 0.585938 -9.085938 1.765625 -10.265625 C 2.941406 -11.453125 4.359375 -12.046875 6.015625 -12.046875 Z M 6.015625 -9.640625 C 5.023438 -9.640625 4.175781 -9.285156 3.46875 -8.578125 C 2.757812 -7.859375 2.40625 -7.003906 2.40625 -6.015625 C 2.40625 -5.023438 2.757812 -4.175781 3.46875 -3.46875 C 4.175781 -2.757812 5.023438 -2.40625 6.015625 -2.40625 C 7.003906 -2.40625 7.859375 -2.757812 8.578125 -3.46875 C 9.285156 -4.175781 9.640625 -5.023438 9.640625 -6.015625 C 9.640625 -7.003906 9.285156 -7.859375 8.578125 -8.578125 C 7.859375 -9.285156 7.003906 -9.640625 6.015625 -9.640625 Z M 6.015625 -9.640625 "/></g></g></g><g fill="#f8f1e5" fill-opacity="1"><g transform="translate(163.382493, 29.264895)"><g><path d="M 10.65625 -12.046875 L 5.234375 0 L 4.984375 -0.5625 L -0.171875 -12.046875 L 2.375 -12.046875 L 5.234375 -5.703125 L 8.078125 -12.046875 Z M 10.65625 -12.046875 "/></g></g></g><g fill="#f8f1e5" fill-opacity="1"><g transform="translate(175.328035, 29.264895)"><g><path d="M 0 -12.046875 L 7.21875 -12.046875 L 7.21875 -9.640625 L 2.40625 -9.640625 L 2.40625 -7.21875 L 6.015625 -7.21875 L 6.015625 -4.8125 L 2.40625 -4.8125 L 2.40625 -2.40625 L 7.21875 -2.40625 L 7.21875 0 L 0 0 Z M 0 -12.046875 "/></g></g></g><g fill="#f8f1e5" fill-opacity="1"><g transform="translate(184.443169, 29.264895)"><g><path d="M 0 0 L 0 -12.046875 L 4.21875 -12.046875 C 5.375 -12.046875 6.363281 -11.628906 7.1875 -10.796875 C 8.019531 -9.972656 8.4375 -8.984375 8.4375 -7.828125 C 8.4375 -6.929688 8.179688 -6.128906 7.671875 -5.421875 C 7.160156 -4.703125 6.507812 -4.191406 5.71875 -3.890625 L 8.4375 0 L 5.484375 0 L 2.40625 -4.40625 L 2.40625 0 Z M 2.40625 -6.015625 L 4.21875 -6.015625 C 4.707031 -6.015625 5.128906 -6.191406 5.484375 -6.546875 C 5.835938 -6.898438 6.015625 -7.328125 6.015625 -7.828125 C 6.015625 -8.316406 5.835938 -8.742188 5.484375 -9.109375 C 5.128906 -9.460938 4.707031 -9.640625 4.21875 -9.640625 L 2.40625 -9.640625 Z M 2.40625 -6.015625 "/></g></g></g><g fill="#f8f1e5" fill-opacity="1"><g transform="translate(194.783079, 29.264895)"><g><path d="M 3.390625 -4.90625 C 3.304688 -4.925781 3.085938 -5 2.734375 -5.125 C 2.367188 -5.25 1.984375 -5.445312 1.578125 -5.71875 C 1.171875 -5.988281 0.804688 -6.347656 0.484375 -6.796875 C 0.160156 -7.234375 0 -7.78125 0 -8.4375 C 0 -9.425781 0.351562 -10.273438 1.0625 -10.984375 C 1.769531 -11.691406 2.617188 -12.046875 3.609375 -12.046875 C 4.597656 -12.046875 5.445312 -11.691406 6.15625 -10.984375 C 6.863281 -10.273438 7.21875 -9.425781 7.21875 -8.4375 L 4.8125 -8.4375 C 4.8125 -8.757812 4.695312 -9.039062 4.46875 -9.28125 C 4.226562 -9.519531 3.941406 -9.640625 3.609375 -9.640625 C 3.273438 -9.640625 2.992188 -9.519531 2.765625 -9.28125 C 2.523438 -9.039062 2.40625 -8.757812 2.40625 -8.4375 C 2.40625 -8.007812 2.582031 -7.6875 2.9375 -7.46875 C 3.28125 -7.238281 3.539062 -7.097656 3.71875 -7.046875 C 3.800781 -7.015625 4.035156 -6.945312 4.421875 -6.84375 C 4.785156 -6.726562 5.179688 -6.546875 5.609375 -6.296875 C 6.015625 -6.046875 6.382812 -5.703125 6.71875 -5.265625 C 7.050781 -4.835938 7.21875 -4.285156 7.21875 -3.609375 C 7.21875 -2.617188 6.863281 -1.769531 6.15625 -1.0625 C 5.445312 -0.351562 4.597656 0 3.609375 0 C 2.617188 0 1.769531 -0.351562 1.0625 -1.0625 C 0.351562 -1.769531 0 -2.617188 0 -3.609375 L 2.40625 -3.609375 C 2.40625 -3.273438 2.523438 -2.992188 2.765625 -2.765625 C 2.992188 -2.523438 3.273438 -2.40625 3.609375 -2.40625 C 3.941406 -2.40625 4.226562 -2.523438 4.46875 -2.765625 C 4.695312 -2.992188 4.8125 -3.273438 4.8125 -3.609375 C 4.8125 -4.117188 4.613281 -4.445312 4.21875 -4.59375 C 3.800781 -4.75 3.523438 -4.851562 3.390625 -4.90625 Z M 3.390625 -4.90625 "/></g></g></g><g fill="#f8f1e5" fill-opacity="1"><g transform="translate(203.801136, 29.264895)"><g><path d="M 0 -12.046875 L 7.21875 -12.046875 L 7.21875 -9.640625 L 2.40625 -9.640625 L 2.40625 -7.21875 L 6.015625 -7.21875 L 6.015625 -4.8125 L 2.40625 -4.8125 L 2.40625 -2.40625 L 7.21875 -2.40625 L 7.21875 0 L 0 0 Z M 0 -12.046875 "/></g></g></g><g fill="#f8f1e5" fill-opacity="1"><g transform="translate(212.916279, 29.264895)"><g><path d="M 4.296875 -4.21875 L 6.1875 -4.21875 L 5.25 -6.3125 Z M 3.21875 -1.8125 L 3.171875 -1.71875 L 2.390625 0 L -0.171875 0 L 4.984375 -11.484375 L 5.234375 -12.046875 L 5.5 -11.46875 L 10.65625 0 L 8.078125 0 L 7.3125 -1.71875 L 7.28125 -1.8125 Z M 3.21875 -1.8125 "/></g></g></g><g fill="#f8f1e5" fill-opacity="1"><g transform="translate(224.861829, 29.264895)"><g><path d="M 3.390625 -4.90625 C 3.304688 -4.925781 3.085938 -5 2.734375 -5.125 C 2.367188 -5.25 1.984375 -5.445312 1.578125 -5.71875 C 1.171875 -5.988281 0.804688 -6.347656 0.484375 -6.796875 C 0.160156 -7.234375 0 -7.78125 0 -8.4375 C 0 -9.425781 0.351562 -10.273438 1.0625 -10.984375 C 1.769531 -11.691406 2.617188 -12.046875 3.609375 -12.046875 C 4.597656 -12.046875 5.445312 -11.691406 6.15625 -10.984375 C 6.863281 -10.273438 7.21875 -9.425781 7.21875 -8.4375 L 4.8125 -8.4375 C 4.8125 -8.757812 4.695312 -9.039062 4.46875 -9.28125 C 4.226562 -9.519531 3.941406 -9.640625 3.609375 -9.640625 C 3.273438 -9.640625 2.992188 -9.519531 2.765625 -9.28125 C 2.523438 -9.039062 2.40625 -8.757812 2.40625 -8.4375 C 2.40625 -8.007812 2.582031 -7.6875 2.9375 -7.46875 C 3.28125 -7.238281 3.539062 -7.097656 3.71875 -7.046875 C 3.800781 -7.015625 4.035156 -6.945312 4.421875 -6.84375 C 4.785156 -6.726562 5.179688 -6.546875 5.609375 -6.296875 C 6.015625 -6.046875 6.382812 -5.703125 6.71875 -5.265625 C 7.050781 -4.835938 7.21875 -4.285156 7.21875 -3.609375 C 7.21875 -2.617188 6.863281 -1.769531 6.15625 -1.0625 C 5.445312 -0.351562 4.597656 0 3.609375 0 C 2.617188 0 1.769531 -0.351562 1.0625 -1.0625 C 0.351562 -1.769531 0 -2.617188 0 -3.609375 L 2.40625 -3.609375 C 2.40625 -3.273438 2.523438 -2.992188 2.765625 -2.765625 C 2.992188 -2.523438 3.273438 -2.40625 3.609375 -2.40625 C 3.941406 -2.40625 4.226562 -2.523438 4.46875 -2.765625 C 4.695312 -2.992188 4.8125 -3.273438 4.8125 -3.609375 C 4.8125 -4.117188 4.613281 -4.445312 4.21875 -4.59375 C 3.800781 -4.75 3.523438 -4.851562 3.390625 -4.90625 Z M 3.390625 -4.90625 "/></g></g></g><g clip-path="url(#3e932d4562)"><path fill="#f8f1e5" d="M 38.320312 41.777344 L 10.320312 41.777344 C 10.195312 41.777344 10.085938 41.734375 9.996094 41.644531 C 9.90625 41.554688 9.859375 41.445312 9.859375 41.316406 L 9.859375 19.570312 C 9.859375 11.617188 16.367188 5.109375 24.320312 5.109375 C 32.273438 5.109375 38.78125 11.617188 38.78125 19.570312 L 38.78125 41.316406 C 38.78125 41.445312 38.738281 41.554688 38.648438 41.644531 C 38.558594 41.734375 38.449219 41.777344 38.320312 41.777344 Z M 38.320312 41.777344 " fill-opacity="1" fill-rule="nonzero"/><path fill="#f8f1e5" d="M 38.320312 41.855469 L 10.320312 41.855469 C 10.171875 41.855469 10.046875 41.804688 9.941406 41.699219 C 9.835938 41.59375 9.785156 41.464844 9.785156 41.316406 L 9.785156 19.570312 C 9.78125 17.609375 10.164062 15.726562 10.929688 13.925781 C 11.675781 12.183594 12.714844 10.640625 14.054688 9.300781 C 15.394531 7.964844 16.933594 6.921875 18.675781 6.179688 C 20.480469 5.414062 22.363281 5.03125 24.320312 5.03125 C 26.28125 5.03125 28.164062 5.414062 29.96875 6.179688 C 31.710938 6.921875 33.25 7.960938 34.589844 9.300781 C 35.929688 10.640625 36.96875 12.183594 37.710938 13.925781 C 38.480469 15.726562 38.863281 17.609375 38.859375 19.570312 L 38.859375 41.316406 C 38.859375 41.464844 38.808594 41.59375 38.703125 41.699219 C 38.597656 41.804688 38.46875 41.855469 38.320312 41.855469 Z M 24.320312 5.183594 C 22.382812 5.183594 20.519531 5.558594 18.738281 6.320312 C 17.011719 7.054688 15.488281 8.085938 14.164062 9.410156 C 12.835938 10.734375 11.804688 12.261719 11.070312 13.984375 C 10.3125 15.769531 9.933594 17.628906 9.9375 19.570312 L 9.9375 41.316406 C 9.9375 41.421875 9.976562 41.515625 10.050781 41.589844 C 10.125 41.664062 10.214844 41.703125 10.320312 41.703125 L 38.320312 41.703125 C 38.429688 41.703125 38.519531 41.664062 38.59375 41.589844 C 38.667969 41.515625 38.707031 41.421875 38.707031 41.316406 L 38.707031 19.570312 C 38.710938 17.628906 38.332031 15.769531 37.570312 13.984375 C 36.835938 12.261719 35.808594 10.734375 34.480469 9.410156 C 33.15625 8.085938 31.632812 7.054688 29.910156 6.320312 C 28.125 5.558594 26.261719 5.183594 24.320312 5.183594 Z M 24.320312 5.183594 " fill-opacity="1" fill-rule="nonzero"/></g><g clip-path="url(#7b0f2e2970)"><path fill="#000000" d="M 37.621094 41.046875 L 11.023438 41.046875 C 10.902344 41.042969 10.796875 41 10.710938 40.917969 C 10.625 40.832031 10.585938 40.726562 10.582031 40.605469 L 10.582031 19.582031 C 10.582031 12.023438 16.765625 5.84375 24.320312 5.84375 C 31.878906 5.84375 38.058594 12.023438 38.058594 19.582031 L 38.058594 40.609375 C 38.058594 40.730469 38.015625 40.832031 37.929688 40.917969 C 37.84375 41 37.742188 41.042969 37.621094 41.046875 Z M 37.621094 41.046875 " fill-opacity="1" fill-rule="nonzero"/><path fill="#f8f1e5" d="M 37.621094 41.121094 L 11.023438 41.121094 C 10.878906 41.121094 10.757812 41.070312 10.65625 40.972656 C 10.558594 40.871094 10.507812 40.75 10.507812 40.605469 L 10.507812 19.582031 C 10.503906 17.71875 10.867188 15.929688 11.597656 14.214844 C 12.304688 12.558594 13.292969 11.097656 14.566406 9.824219 C 15.835938 8.550781 17.300781 7.5625 18.957031 6.855469 C 20.671875 6.128906 22.460938 5.765625 24.320312 5.765625 C 26.183594 5.765625 27.972656 6.128906 29.6875 6.855469 C 31.34375 7.5625 32.804688 8.550781 34.078125 9.824219 C 35.351562 11.097656 36.339844 12.558594 37.046875 14.214844 C 37.777344 15.929688 38.140625 17.71875 38.136719 19.582031 L 38.136719 40.609375 C 38.136719 40.75 38.085938 40.871094 37.984375 40.972656 C 37.882812 41.070312 37.761719 41.121094 37.621094 41.121094 Z M 24.320312 5.917969 C 22.476562 5.914062 20.710938 6.273438 19.015625 6.996094 C 17.378906 7.695312 15.929688 8.671875 14.671875 9.933594 C 13.414062 11.191406 12.4375 12.640625 11.738281 14.277344 C 11.015625 15.972656 10.660156 17.742188 10.664062 19.582031 L 10.664062 40.609375 C 10.664062 40.710938 10.699219 40.796875 10.769531 40.867188 C 10.839844 40.9375 10.921875 40.972656 11.023438 40.972656 L 37.621094 40.972656 C 37.722656 40.972656 37.804688 40.9375 37.878906 40.867188 C 37.949219 40.796875 37.984375 40.710938 37.984375 40.609375 L 37.984375 19.582031 C 37.988281 17.738281 37.628906 15.96875 36.90625 14.273438 C 36.207031 12.636719 35.230469 11.191406 33.96875 9.929688 C 32.710938 8.671875 31.265625 7.695312 29.625 6.996094 C 27.933594 6.277344 26.164062 5.917969 24.320312 5.917969 Z M 24.320312 5.917969 " fill-opacity="1" fill-rule="nonzero"/></g><g fill="#f8f1e5" fill-opacity="1"><g transform="translate(13.095909, 23.099873)"><g><path d="M -0.109375 -0.859375 L -0.09375 -0.6875 L -0.609375 -0.484375 L -0.046875 -0.40625 L -0.03125 -0.25 L -0.859375 0.109375 L -0.890625 -0.078125 L -0.34375 -0.296875 L -0.921875 -0.34375 L -0.9375 -0.53125 L -0.390625 -0.734375 L -0.96875 -0.796875 L -1 -0.96875 Z M -0.109375 -0.859375 "/></g></g></g><g fill="#f8f1e5" fill-opacity="1"><g transform="translate(12.934453, 21.373667)"><g><path d="M 0.015625 -0.71875 L 0 -0.546875 L -0.390625 -0.546875 L -0.390625 -0.203125 L 0 -0.203125 L 0 -0.03125 L -0.859375 -0.046875 L -0.859375 -0.21875 L -0.53125 -0.203125 L -0.53125 -0.546875 L -0.859375 -0.5625 L -0.84375 -0.734375 Z M 0.015625 -0.71875 "/></g></g></g><g fill="#f8f1e5" fill-opacity="1"><g transform="translate(12.99128, 19.982849)"><g><path d="M -0.625 -0.75 L -0.671875 -0.296875 L -0.484375 -0.265625 L -0.4375 -0.6875 L -0.296875 -0.671875 L -0.34375 -0.25 L -0.125 -0.21875 L -0.0625 -0.6875 L 0.09375 -0.671875 L 0 -0.03125 L -0.859375 -0.140625 L -0.78125 -0.765625 Z M -0.625 -0.75 "/></g></g></g><g fill="#f8f1e5" fill-opacity="1"><g transform="translate(13.199692, 18.67778)"><g><path d="M -0.640625 -0.375 L -0.421875 -0.328125 L -0.359375 -0.53125 C -0.347656 -0.570312 -0.347656 -0.609375 -0.359375 -0.640625 C -0.378906 -0.671875 -0.40625 -0.6875 -0.4375 -0.6875 C -0.46875 -0.695312 -0.492188 -0.691406 -0.515625 -0.671875 C -0.546875 -0.648438 -0.566406 -0.625 -0.578125 -0.59375 Z M 0.171875 -0.6875 L 0.125 -0.515625 L -0.09375 -0.5625 C -0.125 -0.570312 -0.148438 -0.566406 -0.171875 -0.546875 C -0.191406 -0.535156 -0.207031 -0.503906 -0.21875 -0.453125 L -0.265625 -0.28125 L 0.046875 -0.203125 L 0 -0.03125 L -0.828125 -0.25 L -0.71875 -0.671875 C -0.707031 -0.703125 -0.6875 -0.734375 -0.65625 -0.765625 C -0.632812 -0.796875 -0.613281 -0.816406 -0.59375 -0.828125 C -0.570312 -0.847656 -0.539062 -0.859375 -0.5 -0.859375 C -0.46875 -0.867188 -0.4375 -0.875 -0.40625 -0.875 C -0.351562 -0.851562 -0.316406 -0.828125 -0.296875 -0.796875 C -0.273438 -0.765625 -0.257812 -0.722656 -0.25 -0.671875 C -0.226562 -0.710938 -0.203125 -0.738281 -0.171875 -0.75 C -0.140625 -0.757812 -0.101562 -0.757812 -0.0625 -0.75 Z M 0.171875 -0.6875 "/></g></g></g><g fill="#f8f1e5" fill-opacity="1"><g transform="translate(13.579284, 17.349816)"><g><path d="M -0.421875 -0.859375 L -0.578125 -0.4375 L -0.40625 -0.375 L -0.265625 -0.765625 L -0.125 -0.71875 L -0.265625 -0.328125 L -0.0625 -0.25 L 0.09375 -0.6875 L 0.234375 -0.625 L 0.015625 -0.03125 L -0.78125 -0.34375 L -0.5625 -0.921875 Z M -0.421875 -0.859375 "/></g></g></g><g fill="#f8f1e5" fill-opacity="1"><g transform="translate(14.095287, 16.127761)"><g/></g></g><g fill="#f8f1e5" fill-opacity="1"><g transform="translate(14.549669, 15.276035)"><g><path d="M -0.515625 -0.84375 C -0.441406 -0.957031 -0.347656 -1.019531 -0.234375 -1.03125 C -0.128906 -1.039062 -0.0195312 -1.007812 0.09375 -0.9375 C 0.144531 -0.90625 0.1875 -0.867188 0.21875 -0.828125 C 0.25 -0.796875 0.273438 -0.757812 0.296875 -0.71875 C 0.316406 -0.675781 0.328125 -0.628906 0.328125 -0.578125 C 0.328125 -0.523438 0.3125 -0.476562 0.28125 -0.4375 C 0.320312 -0.40625 0.359375 -0.390625 0.390625 -0.390625 C 0.421875 -0.390625 0.441406 -0.40625 0.453125 -0.4375 C 0.460938 -0.445312 0.460938 -0.46875 0.453125 -0.5 C 0.453125 -0.53125 0.4375 -0.554688 0.40625 -0.578125 L 0.484375 -0.703125 C 0.515625 -0.679688 0.539062 -0.65625 0.5625 -0.625 C 0.582031 -0.59375 0.597656 -0.5625 0.609375 -0.53125 C 0.617188 -0.5 0.617188 -0.46875 0.609375 -0.4375 C 0.609375 -0.40625 0.597656 -0.375 0.578125 -0.34375 C 0.554688 -0.3125 0.53125 -0.285156 0.5 -0.265625 C 0.476562 -0.242188 0.453125 -0.226562 0.421875 -0.21875 C 0.390625 -0.21875 0.359375 -0.222656 0.328125 -0.234375 C 0.296875 -0.242188 0.269531 -0.253906 0.25 -0.265625 L 0.21875 -0.28125 C 0.144531 -0.195312 0.0625 -0.148438 -0.03125 -0.140625 C -0.125 -0.140625 -0.226562 -0.175781 -0.34375 -0.25 C -0.394531 -0.289062 -0.441406 -0.332031 -0.484375 -0.375 C -0.523438 -0.425781 -0.550781 -0.472656 -0.5625 -0.515625 C -0.582031 -0.554688 -0.585938 -0.609375 -0.578125 -0.671875 C -0.578125 -0.734375 -0.554688 -0.789062 -0.515625 -0.84375 Z M -0.25 -0.40625 C -0.15625 -0.34375 -0.078125 -0.3125 -0.015625 -0.3125 C 0.0351562 -0.320312 0.0820312 -0.359375 0.125 -0.421875 C 0.144531 -0.453125 0.160156 -0.476562 0.171875 -0.5 C 0.179688 -0.53125 0.175781 -0.5625 0.15625 -0.59375 C 0.144531 -0.632812 0.128906 -0.664062 0.109375 -0.6875 C 0.0859375 -0.71875 0.0507812 -0.75 0 -0.78125 C -0.0703125 -0.832031 -0.140625 -0.851562 -0.203125 -0.84375 C -0.273438 -0.84375 -0.332031 -0.8125 -0.375 -0.75 C -0.414062 -0.6875 -0.421875 -0.625 -0.390625 -0.5625 C -0.367188 -0.507812 -0.320312 -0.457031 -0.25 -0.40625 Z M -0.25 -0.40625 "/></g></g></g><g fill="#f8f1e5" fill-opacity="1"><g transform="translate(15.403838, 14.045153)"><g><path d="M 0.25 -0.734375 C 0.320312 -0.671875 0.359375 -0.597656 0.359375 -0.515625 C 0.359375 -0.429688 0.320312 -0.347656 0.25 -0.265625 C 0.1875 -0.191406 0.113281 -0.144531 0.03125 -0.125 C -0.0390625 -0.113281 -0.117188 -0.144531 -0.203125 -0.21875 L -0.640625 -0.59375 L -0.515625 -0.734375 L -0.078125 -0.359375 C -0.046875 -0.328125 -0.0078125 -0.304688 0.03125 -0.296875 C 0.0703125 -0.296875 0.109375 -0.316406 0.140625 -0.359375 C 0.210938 -0.441406 0.207031 -0.519531 0.125 -0.59375 L -0.3125 -0.96875 L -0.1875 -1.109375 Z M 0.25 -0.734375 "/></g></g></g><g fill="#f8f1e5" fill-opacity="1"><g transform="translate(16.33155, 13.011175)"><g><path d="M -0.140625 -0.765625 L 0 -0.4375 L 0.15625 -0.578125 Z M 0.59375 -0.546875 L 0.453125 -0.421875 L 0.3125 -0.5 L 0.078125 -0.296875 L 0.140625 -0.125 L 0 0 L -0.34375 -0.859375 L -0.203125 -0.984375 Z M 0.59375 -0.546875 "/></g></g></g><g fill="#f8f1e5" fill-opacity="1"><g transform="translate(17.440355, 12.055558)"><g><path d="M 0.078125 -0.25 L 0.421875 -0.484375 L 0.515625 -0.359375 L 0.03125 -0.015625 L -0.46875 -0.71875 L -0.328125 -0.828125 Z M 0.078125 -0.25 "/></g></g></g><g fill="#f8f1e5" fill-opacity="1"><g transform="translate(18.510702, 11.33953)"><g><path d="M 0.171875 -0.109375 L 0.03125 -0.015625 L -0.40625 -0.765625 L -0.265625 -0.859375 Z M 0.171875 -0.109375 "/></g></g></g><g fill="#f8f1e5" fill-opacity="1"><g transform="translate(19.287306, 10.912631)"><g><path d="M 0.34375 -0.9375 L 0.09375 -0.828125 L 0.390625 -0.1875 L 0.234375 -0.109375 L -0.0625 -0.75 L -0.296875 -0.640625 L -0.359375 -0.78125 L 0.28125 -1.078125 Z M 0.34375 -0.9375 "/></g></g></g><g fill="#f8f1e5" fill-opacity="1"><g transform="translate(20.52963, 10.387754)"><g><path d="M 0.375 -0.453125 L 0.46875 -0.140625 L 0.28125 -0.09375 L 0.1875 -0.40625 L -0.265625 -0.8125 L -0.0625 -0.875 L 0.21875 -0.609375 L 0.265625 -0.984375 L 0.46875 -1.046875 Z M 0.375 -0.453125 "/></g></g></g><g fill="#f8f1e5" fill-opacity="1"><g transform="translate(21.892404, 10.004977)"><g/></g></g><g fill="#f8f1e5" fill-opacity="1"><g transform="translate(22.841679, 9.831362)"><g><path d="M 0.859375 -0.078125 L 0.6875 -0.0625 L 0.640625 -0.640625 L 0.53125 -0.046875 L 0.359375 -0.03125 L 0.15625 -0.59375 L 0.203125 -0.015625 L 0.03125 0 L -0.046875 -0.859375 L 0.21875 -0.890625 L 0.421875 -0.28125 L 0.4375 -0.28125 L 0.515625 -0.90625 L 0.78125 -0.9375 Z M 0.859375 -0.078125 "/></g></g></g><g fill="#f8f1e5" fill-opacity="1"><g transform="translate(24.36791, 9.737733)"><g><path d="M 0.671875 -0.6875 L 0.21875 -0.703125 L 0.21875 -0.515625 L 0.640625 -0.5 L 0.640625 -0.359375 L 0.21875 -0.375 L 0.203125 -0.15625 L 0.671875 -0.140625 L 0.671875 0.015625 L 0.03125 0 L 0.0625 -0.859375 L 0.6875 -0.84375 Z M 0.671875 -0.6875 "/></g></g></g><g fill="#f8f1e5" fill-opacity="1"><g transform="translate(25.687662, 9.819096)"><g><path d="M 0.765625 -0.59375 L 0.3125 -0.65625 L 0.28125 -0.484375 L 0.703125 -0.421875 L 0.6875 -0.28125 L 0.265625 -0.34375 L 0.21875 -0.125 L 0.6875 -0.0625 L 0.671875 0.09375 L 0.03125 0 L 0.15625 -0.84375 L 0.78125 -0.75 Z M 0.765625 -0.59375 "/></g></g></g><g fill="#f8f1e5" fill-opacity="1"><g transform="translate(26.98887, 10.052336)"><g><path d="M 0.859375 -0.484375 L 0.609375 -0.5625 L 0.421875 0.109375 L 0.25 0.0625 L 0.4375 -0.609375 L 0.1875 -0.671875 L 0.21875 -0.828125 L 0.890625 -0.640625 Z M 0.859375 -0.484375 "/></g></g></g><g fill="#f8f1e5" fill-opacity="1"><g transform="translate(28.279874, 10.444318)"><g><path d="M 0.71875 -0.375 C 0.71875 -0.414062 0.707031 -0.453125 0.6875 -0.484375 C 0.664062 -0.515625 0.632812 -0.539062 0.59375 -0.5625 C 0.5625 -0.570312 0.523438 -0.570312 0.484375 -0.5625 C 0.441406 -0.550781 0.414062 -0.53125 0.40625 -0.5 C 0.394531 -0.476562 0.394531 -0.457031 0.40625 -0.4375 C 0.425781 -0.414062 0.457031 -0.394531 0.5 -0.375 C 0.519531 -0.351562 0.546875 -0.332031 0.578125 -0.3125 C 0.609375 -0.289062 0.628906 -0.269531 0.640625 -0.25 C 0.660156 -0.238281 0.675781 -0.226562 0.6875 -0.21875 C 0.695312 -0.207031 0.710938 -0.191406 0.734375 -0.171875 C 0.753906 -0.148438 0.765625 -0.117188 0.765625 -0.078125 C 0.773438 -0.046875 0.769531 -0.0078125 0.75 0.03125 C 0.738281 0.0703125 0.71875 0.101562 0.6875 0.125 C 0.65625 0.144531 0.617188 0.160156 0.578125 0.171875 C 0.546875 0.191406 0.507812 0.203125 0.46875 0.203125 C 0.425781 0.203125 0.382812 0.191406 0.34375 0.171875 C 0.113281 0.078125 0.0351562 -0.0625 0.109375 -0.25 L 0.265625 -0.171875 C 0.253906 -0.128906 0.257812 -0.0859375 0.28125 -0.046875 C 0.300781 -0.015625 0.332031 0.0078125 0.375 0.03125 C 0.394531 0.03125 0.414062 0.03125 0.4375 0.03125 C 0.457031 0.0390625 0.476562 0.0390625 0.5 0.03125 C 0.53125 0.03125 0.550781 0.0234375 0.5625 0.015625 C 0.570312 0.015625 0.582031 0.00390625 0.59375 -0.015625 C 0.613281 -0.0664062 0.582031 -0.113281 0.5 -0.15625 C 0.445312 -0.195312 0.398438 -0.234375 0.359375 -0.265625 C 0.328125 -0.296875 0.304688 -0.3125 0.296875 -0.3125 C 0.273438 -0.351562 0.257812 -0.390625 0.25 -0.421875 C 0.238281 -0.460938 0.242188 -0.503906 0.265625 -0.546875 C 0.273438 -0.585938 0.289062 -0.617188 0.3125 -0.640625 C 0.332031 -0.660156 0.359375 -0.679688 0.390625 -0.703125 C 0.421875 -0.722656 0.457031 -0.726562 0.5 -0.71875 C 0.550781 -0.71875 0.597656 -0.707031 0.640625 -0.6875 C 0.679688 -0.664062 0.71875 -0.640625 0.75 -0.609375 C 0.789062 -0.585938 0.816406 -0.554688 0.828125 -0.515625 C 0.847656 -0.484375 0.863281 -0.445312 0.875 -0.40625 C 0.882812 -0.375 0.882812 -0.335938 0.875 -0.296875 Z M 0.71875 -0.375 "/></g></g></g><g fill="#f8f1e5" fill-opacity="1"><g transform="translate(30.371789, 11.472679)"><g><path d="M 0.9375 -0.21875 L 0.5625 -0.46875 L 0.453125 -0.3125 L 0.796875 -0.078125 L 0.71875 0.03125 L 0.375 -0.203125 L 0.265625 -0.015625 L 0.65625 0.25 L 0.5625 0.375 L 0.03125 0.015625 L 0.515625 -0.703125 L 1.03125 -0.359375 Z M 0.9375 -0.21875 "/></g></g></g><g fill="#f8f1e5" fill-opacity="1"><g transform="translate(31.450183, 12.235983)"><g><path d="M 0.65625 -0.015625 L 0.578125 0.5 L 0.421875 0.359375 L 0.484375 0.03125 L 0.171875 0.140625 L 0 0 L 0.5 -0.140625 L 0.578125 -0.640625 L 0.734375 -0.5 L 0.671875 -0.1875 L 0.984375 -0.296875 L 1.125 -0.171875 Z M 0.65625 -0.015625 "/></g></g></g><g fill="#f8f1e5" fill-opacity="1"><g transform="translate(32.497314, 13.186622)"><g><path d="M 0.828125 0.0625 C 0.847656 0.0078125 0.859375 -0.0351562 0.859375 -0.078125 C 0.867188 -0.117188 0.859375 -0.15625 0.828125 -0.1875 C 0.796875 -0.21875 0.765625 -0.238281 0.734375 -0.25 C 0.710938 -0.257812 0.6875 -0.257812 0.65625 -0.25 C 0.625 -0.238281 0.59375 -0.222656 0.5625 -0.203125 C 0.53125 -0.191406 0.492188 -0.164062 0.453125 -0.125 C 0.421875 -0.09375 0.394531 -0.0625 0.375 -0.03125 C 0.351562 -0.0078125 0.335938 0.015625 0.328125 0.046875 C 0.316406 0.078125 0.3125 0.109375 0.3125 0.140625 C 0.320312 0.171875 0.335938 0.195312 0.359375 0.21875 C 0.398438 0.257812 0.441406 0.28125 0.484375 0.28125 C 0.523438 0.28125 0.570312 0.269531 0.625 0.25 L 0.75 0.375 C 0.695312 0.40625 0.644531 0.425781 0.59375 0.4375 C 0.550781 0.445312 0.507812 0.445312 0.46875 0.4375 C 0.4375 0.4375 0.398438 0.425781 0.359375 0.40625 C 0.328125 0.382812 0.296875 0.359375 0.265625 0.328125 C 0.222656 0.285156 0.191406 0.238281 0.171875 0.1875 C 0.148438 0.144531 0.140625 0.0976562 0.140625 0.046875 C 0.148438 -0.00390625 0.171875 -0.0546875 0.203125 -0.109375 C 0.234375 -0.160156 0.273438 -0.210938 0.328125 -0.265625 C 0.378906 -0.316406 0.429688 -0.351562 0.484375 -0.375 C 0.535156 -0.394531 0.582031 -0.40625 0.625 -0.40625 C 0.675781 -0.414062 0.726562 -0.40625 0.78125 -0.375 C 0.84375 -0.351562 0.894531 -0.320312 0.9375 -0.28125 C 0.976562 -0.238281 1.003906 -0.195312 1.015625 -0.15625 C 1.023438 -0.113281 1.03125 -0.0703125 1.03125 -0.03125 C 1.039062 0.0078125 1.035156 0.046875 1.015625 0.078125 C 1.003906 0.117188 0.984375 0.15625 0.953125 0.1875 Z M 0.828125 0.0625 "/></g></g></g><g fill="#f8f1e5" fill-opacity="1"><g transform="translate(33.423646, 14.270005)"><g><path d="M 0.25 0.078125 L 0.484375 0.421875 L 0.359375 0.515625 L 0.015625 0.03125 L 0.71875 -0.46875 L 0.828125 -0.328125 Z M 0.25 0.078125 "/></g></g></g><g fill="#f8f1e5" fill-opacity="1"><g transform="translate(34.138139, 15.334222)"><g><path d="M 0.609375 0.484375 C 0.515625 0.535156 0.425781 0.546875 0.34375 0.515625 C 0.269531 0.484375 0.207031 0.414062 0.15625 0.3125 C 0.113281 0.226562 0.0976562 0.148438 0.109375 0.078125 C 0.117188 0.00390625 0.171875 -0.0546875 0.265625 -0.109375 L 0.765625 -0.375 L 0.859375 -0.21875 L 0.375 0.046875 C 0.320312 0.0664062 0.285156 0.0976562 0.265625 0.140625 C 0.253906 0.179688 0.257812 0.21875 0.28125 0.25 C 0.332031 0.351562 0.410156 0.378906 0.515625 0.328125 L 1 0.0625 L 1.09375 0.21875 Z M 0.609375 0.484375 "/></g></g></g><g fill="#f8f1e5" fill-opacity="1"><g transform="translate(34.770845, 16.572143)"><g><path d="M 0.75 0.265625 C 0.789062 0.234375 0.816406 0.195312 0.828125 0.15625 C 0.835938 0.125 0.832031 0.0859375 0.8125 0.046875 C 0.800781 0.015625 0.773438 -0.0078125 0.734375 -0.03125 C 0.703125 -0.0625 0.671875 -0.0703125 0.640625 -0.0625 C 0.617188 -0.0507812 0.609375 -0.03125 0.609375 0 C 0.609375 0.0195312 0.613281 0.0546875 0.625 0.109375 C 0.625 0.140625 0.625 0.171875 0.625 0.203125 C 0.625 0.234375 0.625 0.257812 0.625 0.28125 C 0.632812 0.3125 0.640625 0.332031 0.640625 0.34375 C 0.640625 0.351562 0.632812 0.375 0.625 0.40625 C 0.632812 0.4375 0.628906 0.460938 0.609375 0.484375 C 0.585938 0.515625 0.550781 0.539062 0.5 0.5625 C 0.457031 0.582031 0.421875 0.585938 0.390625 0.578125 C 0.359375 0.578125 0.320312 0.566406 0.28125 0.546875 C 0.25 0.535156 0.21875 0.515625 0.1875 0.484375 C 0.15625 0.453125 0.128906 0.414062 0.109375 0.375 C 0.015625 0.144531 0.0625 -0.00390625 0.25 -0.078125 L 0.3125 0.078125 C 0.269531 0.0859375 0.242188 0.113281 0.234375 0.15625 C 0.222656 0.195312 0.226562 0.238281 0.25 0.28125 C 0.25 0.300781 0.253906 0.320312 0.265625 0.34375 C 0.285156 0.363281 0.300781 0.378906 0.3125 0.390625 C 0.332031 0.410156 0.347656 0.421875 0.359375 0.421875 C 0.378906 0.421875 0.398438 0.414062 0.421875 0.40625 C 0.472656 0.394531 0.488281 0.34375 0.46875 0.25 C 0.445312 0.175781 0.4375 0.113281 0.4375 0.0625 C 0.4375 0.0195312 0.4375 -0.00390625 0.4375 -0.015625 C 0.4375 -0.046875 0.453125 -0.078125 0.484375 -0.109375 C 0.515625 -0.148438 0.546875 -0.175781 0.578125 -0.1875 C 0.617188 -0.207031 0.65625 -0.21875 0.6875 -0.21875 C 0.71875 -0.21875 0.75 -0.210938 0.78125 -0.203125 C 0.8125 -0.191406 0.835938 -0.164062 0.859375 -0.125 C 0.890625 -0.09375 0.914062 -0.0546875 0.9375 -0.015625 C 0.957031 0.0234375 0.96875 0.0664062 0.96875 0.109375 C 0.976562 0.160156 0.976562 0.203125 0.96875 0.234375 C 0.957031 0.273438 0.9375 0.3125 0.90625 0.34375 C 0.882812 0.375 0.851562 0.398438 0.8125 0.421875 Z M 0.75 0.265625 "/></g></g></g><g fill="#f8f1e5" fill-opacity="1"><g transform="translate(35.237069, 17.857399)"><g><path d="M 0.0625 0.1875 L 0.015625 0.03125 L 0.84375 -0.203125 L 0.890625 -0.046875 Z M 0.0625 0.1875 "/></g></g></g><g fill="#f8f1e5" fill-opacity="1"><g transform="translate(35.464025, 18.713438)"><g><path d="M 0.078125 0.46875 L 0.046875 0.296875 L 0.84375 -0.15625 L 0.875 0.03125 L 0.3125 0.328125 L 0.9375 0.390625 L 0.984375 0.578125 Z M 0.078125 0.46875 "/></g></g></g><g fill="#f8f1e5" fill-opacity="1"><g transform="translate(35.671359, 20.102246)"><g><path d="M 0.015625 0.203125 L 0 0.03125 L 0.859375 -0.03125 L 0.875 0.140625 Z M 0.015625 0.203125 "/></g></g></g><g fill="#f8f1e5" fill-opacity="1"><g transform="translate(35.721879, 20.987069)"><g><path d="M 0.6875 0.71875 L 0.6875 0.453125 L -0.015625 0.4375 L 0 0.265625 L 0.703125 0.28125 L 0.703125 0.015625 L 0.859375 0.015625 L 0.84375 0.71875 Z M 0.6875 0.71875 "/></g></g></g><g fill="#f8f1e5" fill-opacity="1"><g transform="translate(35.660185, 22.334364)"><g><path d="M 0.265625 0.53125 L -0.0625 0.484375 L -0.046875 0.296875 L 0.28125 0.34375 L 0.84375 0.125 L 0.8125 0.34375 L 0.453125 0.453125 L 0.765625 0.6875 L 0.734375 0.890625 Z M 0.265625 0.53125 "/></g></g></g><g clip-path="url(#0f70dc06d7)"><path fill="#f8f1e5" d="M 25.570312 16.480469 L 29.292969 16.480469 C 29.457031 16.480469 29.589844 16.347656 29.589844 16.179688 L 29.589844 13.980469 C 29.589844 13.8125 29.457031 13.679688 29.292969 13.679688 L 25.570312 13.679688 C 25.402344 13.679688 25.269531 13.8125 25.269531 13.980469 L 25.269531 16.179688 C 25.269531 16.347656 25.402344 16.480469 25.570312 16.480469 Z M 25.871094 14.28125 L 28.992188 14.28125 L 28.992188 15.878906 L 25.871094 15.878906 Z M 23.734375 26.230469 L 26.078125 23.695312 C 26.078125 23.691406 26.078125 23.691406 26.078125 23.691406 L 27.527344 22.121094 C 27.53125 22.121094 27.53125 22.121094 27.53125 22.121094 L 29.15625 20.359375 C 29.15625 20.359375 29.160156 20.355469 29.160156 20.355469 L 31.574219 17.746094 C 31.574219 17.742188 31.574219 17.742188 31.578125 17.738281 C 31.582031 17.734375 31.585938 17.730469 31.589844 17.726562 C 31.589844 17.722656 31.59375 17.71875 31.597656 17.714844 C 31.597656 17.710938 31.601562 17.707031 31.605469 17.703125 C 31.609375 17.699219 31.609375 17.695312 31.613281 17.691406 C 31.613281 17.6875 31.617188 17.679688 31.621094 17.675781 C 31.621094 17.671875 31.625 17.667969 31.625 17.664062 C 31.628906 17.660156 31.628906 17.65625 31.632812 17.648438 C 31.632812 17.644531 31.636719 17.640625 31.636719 17.636719 C 31.636719 17.632812 31.640625 17.628906 31.640625 17.621094 C 31.640625 17.617188 31.644531 17.613281 31.644531 17.609375 C 31.644531 17.605469 31.648438 17.597656 31.648438 17.59375 C 31.648438 17.589844 31.648438 17.585938 31.648438 17.578125 C 31.648438 17.574219 31.652344 17.570312 31.652344 17.566406 C 31.652344 17.558594 31.652344 17.554688 31.652344 17.550781 C 31.652344 17.546875 31.652344 17.542969 31.652344 17.542969 C 31.652344 17.539062 31.652344 17.539062 31.652344 17.535156 C 31.652344 17.53125 31.652344 17.523438 31.652344 17.519531 C 31.652344 17.515625 31.652344 17.511719 31.648438 17.503906 C 31.648438 17.5 31.648438 17.496094 31.648438 17.492188 C 31.648438 17.484375 31.644531 17.480469 31.644531 17.476562 C 31.644531 17.472656 31.644531 17.46875 31.640625 17.464844 C 31.640625 17.457031 31.640625 17.453125 31.636719 17.449219 C 31.636719 17.445312 31.632812 17.4375 31.632812 17.433594 C 31.632812 17.429688 31.628906 17.425781 31.628906 17.421875 C 31.625 17.417969 31.621094 17.410156 31.621094 17.40625 C 31.617188 17.402344 31.617188 17.398438 31.613281 17.394531 C 31.613281 17.390625 31.609375 17.386719 31.605469 17.382812 C 31.605469 17.378906 31.601562 17.375 31.597656 17.371094 C 31.597656 17.367188 31.59375 17.363281 31.589844 17.359375 C 31.585938 17.355469 31.582031 17.351562 31.582031 17.347656 C 31.578125 17.34375 31.574219 17.339844 31.570312 17.335938 C 31.566406 17.332031 31.5625 17.328125 31.558594 17.324219 C 31.558594 17.324219 31.558594 17.320312 31.554688 17.320312 C 31.554688 17.320312 31.550781 17.316406 31.550781 17.316406 C 31.546875 17.3125 31.542969 17.308594 31.539062 17.304688 C 31.535156 17.300781 31.53125 17.300781 31.527344 17.296875 C 31.523438 17.292969 31.519531 17.289062 31.511719 17.289062 C 31.507812 17.285156 31.503906 17.28125 31.5 17.28125 C 31.496094 17.277344 31.492188 17.277344 31.488281 17.273438 C 31.484375 17.273438 31.480469 17.269531 31.476562 17.265625 C 31.46875 17.265625 31.464844 17.261719 31.460938 17.261719 C 31.457031 17.261719 31.453125 17.257812 31.449219 17.257812 C 31.441406 17.253906 31.4375 17.253906 31.433594 17.253906 C 31.429688 17.25 31.425781 17.25 31.417969 17.25 C 31.414062 17.246094 31.410156 17.246094 31.40625 17.246094 C 31.398438 17.246094 31.394531 17.246094 31.390625 17.242188 C 31.386719 17.242188 31.382812 17.242188 31.375 17.242188 C 31.371094 17.242188 31.367188 17.242188 31.359375 17.242188 C 31.355469 17.242188 31.355469 17.242188 31.351562 17.242188 L 23.507812 17.242188 C 23.507812 17.242188 23.507812 17.242188 23.503906 17.242188 C 23.5 17.242188 23.492188 17.242188 23.488281 17.242188 C 23.484375 17.242188 23.480469 17.242188 23.476562 17.242188 C 23.46875 17.242188 23.464844 17.246094 23.457031 17.246094 C 23.453125 17.246094 23.449219 17.246094 23.445312 17.246094 C 23.441406 17.25 23.4375 17.25 23.429688 17.25 C 23.425781 17.253906 23.421875 17.253906 23.417969 17.253906 C 23.414062 17.257812 23.40625 17.257812 23.402344 17.261719 C 23.398438 17.261719 23.394531 17.261719 23.390625 17.265625 C 23.386719 17.265625 23.382812 17.269531 23.378906 17.273438 C 23.371094 17.273438 23.367188 17.277344 23.363281 17.277344 C 23.359375 17.28125 23.355469 17.28125 23.351562 17.285156 C 23.347656 17.289062 23.34375 17.289062 23.339844 17.292969 C 23.335938 17.296875 23.332031 17.300781 23.328125 17.300781 C 23.324219 17.304688 23.320312 17.308594 23.316406 17.3125 C 23.3125 17.3125 23.3125 17.3125 23.3125 17.316406 C 23.308594 17.316406 23.308594 17.320312 23.304688 17.320312 C 23.300781 17.324219 23.296875 17.328125 23.292969 17.332031 C 23.289062 17.335938 23.285156 17.339844 23.285156 17.34375 C 23.28125 17.347656 23.277344 17.351562 23.273438 17.355469 C 23.269531 17.359375 23.269531 17.363281 23.265625 17.367188 C 23.261719 17.371094 23.257812 17.375 23.257812 17.378906 C 23.253906 17.382812 23.25 17.386719 23.25 17.390625 C 23.246094 17.394531 23.246094 17.398438 23.242188 17.402344 C 23.238281 17.40625 23.238281 17.414062 23.234375 17.417969 C 23.234375 17.421875 23.230469 17.425781 23.230469 17.429688 C 23.226562 17.433594 23.226562 17.4375 23.226562 17.441406 C 23.222656 17.449219 23.222656 17.453125 23.21875 17.457031 C 23.21875 17.460938 23.21875 17.464844 23.21875 17.472656 C 23.214844 17.476562 23.214844 17.480469 23.214844 17.488281 C 23.214844 17.492188 23.210938 17.496094 23.210938 17.5 C 23.210938 17.503906 23.210938 17.511719 23.210938 17.515625 C 23.210938 17.519531 23.210938 17.527344 23.210938 17.53125 C 23.210938 17.535156 23.207031 17.539062 23.207031 17.542969 C 23.207031 17.550781 23.210938 17.554688 23.210938 17.5625 C 23.210938 17.566406 23.210938 17.570312 23.210938 17.574219 C 23.210938 17.578125 23.210938 17.585938 23.214844 17.589844 C 23.214844 17.59375 23.214844 17.597656 23.214844 17.605469 C 23.214844 17.609375 23.21875 17.613281 23.21875 17.617188 C 23.21875 17.621094 23.222656 17.628906 23.222656 17.632812 C 23.222656 17.636719 23.226562 17.640625 23.226562 17.644531 C 23.230469 17.652344 23.230469 17.65625 23.234375 17.660156 C 23.234375 17.664062 23.238281 17.667969 23.238281 17.671875 C 23.242188 17.675781 23.242188 17.679688 23.246094 17.6875 C 23.25 17.691406 23.25 17.695312 23.253906 17.699219 C 23.253906 17.703125 23.257812 17.707031 23.261719 17.710938 C 23.265625 17.714844 23.265625 17.71875 23.269531 17.722656 C 23.273438 17.726562 23.277344 17.730469 23.28125 17.734375 C 23.28125 17.734375 23.28125 17.738281 23.28125 17.738281 L 26.90625 21.910156 L 25.867188 23.039062 L 23.734375 20.585938 C 23.625 20.460938 23.4375 20.449219 23.3125 20.554688 C 23.1875 20.664062 23.171875 20.855469 23.28125 20.980469 L 25.457031 23.480469 L 24.433594 24.589844 L 23.734375 23.789062 C 23.625 23.660156 23.4375 23.648438 23.3125 23.757812 C 23.1875 23.867188 23.171875 24.054688 23.28125 24.179688 L 24.023438 25.03125 L 23.289062 25.828125 C 23.285156 25.832031 23.28125 25.835938 23.277344 25.839844 C 22.695312 26.546875 21.617188 27.574219 20.90625 27.722656 L 21.367188 21.125 C 22.257812 20.984375 22.949219 20.058594 22.949219 18.941406 C 22.949219 17.769531 22.445312 16.9375 21.671875 16.773438 L 21.683594 16.613281 C 21.691406 16.550781 21.730469 16.125 21.703125 15.617188 C 21.65625 14.859375 21.472656 14.304688 21.152344 13.964844 C 20.914062 13.710938 20.597656 13.582031 20.234375 13.59375 C 20.230469 13.59375 20.226562 13.589844 20.222656 13.589844 C 19.703125 13.589844 19.300781 13.726562 19.035156 13.996094 C 18.726562 14.304688 18.71875 14.664062 18.722656 14.703125 C 18.722656 14.871094 18.855469 15 19.019531 15 C 19.019531 15 19.023438 15 19.023438 15 C 19.1875 15 19.320312 14.867188 19.320312 14.703125 C 19.320312 14.699219 19.332031 14.550781 19.460938 14.421875 C 19.609375 14.273438 19.871094 14.191406 20.222656 14.191406 C 20.222656 14.191406 20.222656 14.191406 20.226562 14.191406 C 20.230469 14.191406 20.234375 14.191406 20.238281 14.191406 C 20.4375 14.183594 20.589844 14.242188 20.714844 14.375 C 21.167969 14.855469 21.136719 16.109375 21.085938 16.554688 C 21.085938 16.558594 21.085938 16.5625 21.085938 16.566406 L 20.238281 28.671875 L 19.398438 16.964844 C 19.386719 16.800781 19.246094 16.675781 19.078125 16.6875 C 18.914062 16.699219 18.789062 16.84375 18.800781 17.007812 L 19.179688 22.285156 C 17.863281 22.472656 16.953125 23.730469 17.035156 25.308594 C 17.117188 26.863281 18.226562 28.039062 19.59375 28.066406 L 19.921875 32.648438 C 19.933594 32.808594 20.066406 32.929688 20.222656 32.929688 C 20.226562 32.929688 20.234375 32.929688 20.242188 32.929688 C 20.25 32.929688 20.257812 32.929688 20.265625 32.929688 C 20.421875 32.929688 20.550781 32.808594 20.5625 32.648438 L 20.863281 28.332031 C 22.058594 28.207031 23.53125 26.472656 23.734375 26.230469 Z M 28.945312 19.703125 L 27.328125 17.839844 L 30.667969 17.839844 Z M 24.167969 17.839844 L 26.535156 17.839844 L 28.535156 20.148438 L 27.316406 21.464844 Z M 22.347656 18.941406 C 22.347656 19.699219 21.949219 20.335938 21.410156 20.5 L 21.628906 17.382812 C 22.15625 17.558594 22.347656 18.296875 22.347656 18.941406 Z M 17.636719 25.273438 C 17.601562 24.636719 17.765625 24.039062 18.09375 23.59375 C 18.382812 23.199219 18.769531 22.957031 19.222656 22.886719 L 19.550781 27.464844 C 18.523438 27.410156 17.699219 26.488281 17.636719 25.273438 Z M 31.652344 28.824219 C 31.652344 28.992188 31.519531 29.125 31.351562 29.125 L 23.507812 29.125 C 23.34375 29.125 23.207031 28.992188 23.207031 28.824219 C 23.207031 28.8125 23.210938 28.800781 23.210938 28.789062 C 23.199219 28.703125 23.226562 28.617188 23.289062 28.550781 L 31.132812 20.058594 C 31.242188 19.9375 31.433594 19.929688 31.554688 20.042969 C 31.675781 20.15625 31.683594 20.34375 31.574219 20.464844 L 24.125 28.527344 L 26.082031 28.527344 L 31.132812 23.058594 C 31.242188 22.9375 31.433594 22.929688 31.554688 23.042969 C 31.675781 23.15625 31.683594 23.34375 31.574219 23.46875 L 26.898438 28.527344 L 29.003906 28.527344 L 31.132812 26.222656 C 31.242188 26.097656 31.433594 26.09375 31.554688 26.203125 C 31.675781 26.316406 31.683594 26.507812 31.574219 26.628906 L 29.820312 28.527344 L 31.351562 28.527344 C 31.519531 28.527344 31.652344 28.660156 31.652344 28.824219 Z M 29.292969 30.125 L 25.570312 30.125 C 25.402344 30.125 25.269531 30.261719 25.269531 30.425781 L 25.269531 32.628906 C 25.269531 32.792969 25.402344 32.929688 25.570312 32.929688 L 29.292969 32.929688 C 29.457031 32.929688 29.589844 32.792969 29.589844 32.628906 L 29.589844 30.425781 C 29.589844 30.261719 29.457031 30.125 29.292969 30.125 Z M 28.992188 32.328125 L 25.871094 32.328125 L 25.871094 30.726562 L 28.992188 30.726562 Z M 17.644531 16.039062 C 17.589844 15.882812 17.671875 15.710938 17.828125 15.65625 C 17.878906 15.640625 18.953125 15.265625 19.90625 15.507812 L 19.90625 15.398438 C 19.90625 15.234375 20.042969 15.101562 20.207031 15.101562 C 20.371094 15.101562 20.507812 15.234375 20.507812 15.398438 L 20.507812 15.933594 C 20.507812 15.9375 20.507812 15.9375 20.507812 15.9375 L 20.507812 16.480469 C 20.507812 16.644531 20.371094 16.78125 20.207031 16.78125 C 20.042969 16.78125 19.90625 16.644531 19.90625 16.480469 L 19.90625 16.136719 C 19.53125 16 19.085938 16.015625 18.761719 16.058594 C 18.339844 16.113281 18.027344 16.222656 18.027344 16.222656 C 17.992188 16.234375 17.960938 16.242188 17.925781 16.242188 C 17.800781 16.242188 17.6875 16.164062 17.644531 16.039062 Z M 17.644531 16.039062 " fill-opacity="1" fill-rule="nonzero"/></g><g fill="#f8f1e5" fill-opacity="1"><g transform="translate(12.347901, 40.067665)"><g><path d="M 0.640625 -0.609375 C 0.640625 -0.628906 0.632812 -0.644531 0.625 -0.65625 C 0.613281 -0.675781 0.597656 -0.691406 0.578125 -0.703125 C 0.566406 -0.722656 0.546875 -0.734375 0.515625 -0.734375 C 0.492188 -0.742188 0.472656 -0.75 0.453125 -0.75 C 0.410156 -0.75 0.375 -0.738281 0.34375 -0.71875 C 0.320312 -0.707031 0.296875 -0.6875 0.265625 -0.65625 C 0.242188 -0.632812 0.226562 -0.601562 0.21875 -0.5625 C 0.207031 -0.519531 0.203125 -0.476562 0.203125 -0.4375 C 0.203125 -0.382812 0.207031 -0.335938 0.21875 -0.296875 C 0.226562 -0.265625 0.242188 -0.234375 0.265625 -0.203125 C 0.296875 -0.179688 0.320312 -0.160156 0.34375 -0.140625 C 0.375 -0.128906 0.410156 -0.125 0.453125 -0.125 C 0.484375 -0.125 0.507812 -0.128906 0.53125 -0.140625 C 0.5625 -0.148438 0.582031 -0.160156 0.59375 -0.171875 C 0.613281 -0.191406 0.628906 -0.210938 0.640625 -0.234375 C 0.648438 -0.265625 0.65625 -0.296875 0.65625 -0.328125 L 0.46875 -0.328125 L 0.46875 -0.46875 L 0.828125 -0.46875 L 0.828125 0.03125 C 0.828125 0.0820312 0.835938 0.113281 0.859375 0.125 C 0.878906 0.144531 0.898438 0.15625 0.921875 0.15625 C 0.953125 0.15625 0.972656 0.144531 0.984375 0.125 C 1.003906 0.101562 1.015625 0.0664062 1.015625 0.015625 L 1.171875 0.015625 C 1.171875 0.0664062 1.164062 0.109375 1.15625 0.140625 C 1.144531 0.179688 1.125 0.210938 1.09375 0.234375 C 1.070312 0.253906 1.046875 0.269531 1.015625 0.28125 C 0.984375 0.300781 0.953125 0.3125 0.921875 0.3125 C 0.878906 0.3125 0.84375 0.300781 0.8125 0.28125 C 0.78125 0.269531 0.753906 0.253906 0.734375 0.234375 C 0.710938 0.210938 0.691406 0.1875 0.671875 0.15625 C 0.660156 0.125 0.65625 0.0859375 0.65625 0.046875 L 0.65625 -0.0625 C 0.632812 -0.03125 0.601562 -0.0078125 0.5625 0 C 0.519531 0.0195312 0.472656 0.03125 0.421875 0.03125 C 0.359375 0.03125 0.300781 0.0195312 0.25 0 C 0.207031 -0.03125 0.164062 -0.0664062 0.125 -0.109375 C 0.09375 -0.148438 0.0664062 -0.195312 0.046875 -0.25 C 0.0234375 -0.3125 0.015625 -0.375 0.015625 -0.4375 C 0.015625 -0.5 0.0234375 -0.554688 0.046875 -0.609375 C 0.0664062 -0.671875 0.09375 -0.722656 0.125 -0.765625 C 0.164062 -0.804688 0.210938 -0.835938 0.265625 -0.859375 C 0.316406 -0.890625 0.378906 -0.90625 0.453125 -0.90625 C 0.503906 -0.90625 0.550781 -0.894531 0.59375 -0.875 C 0.632812 -0.863281 0.671875 -0.84375 0.703125 -0.8125 C 0.742188 -0.789062 0.773438 -0.757812 0.796875 -0.71875 C 0.816406 -0.6875 0.828125 -0.648438 0.828125 -0.609375 Z M 0.640625 -0.609375 "/></g></g></g><g fill="#f8f1e5" fill-opacity="1"><g transform="translate(13.817748, 40.067665)"><g><path d="M 0.203125 -0.71875 L 0.203125 -0.484375 L 0.4375 -0.484375 C 0.476562 -0.484375 0.507812 -0.492188 0.53125 -0.515625 C 0.550781 -0.546875 0.5625 -0.578125 0.5625 -0.609375 C 0.5625 -0.640625 0.550781 -0.664062 0.53125 -0.6875 C 0.507812 -0.707031 0.476562 -0.71875 0.4375 -0.71875 Z M 0.71875 0 L 0.546875 0 L 0.546875 -0.21875 C 0.546875 -0.257812 0.53125 -0.289062 0.5 -0.3125 C 0.476562 -0.332031 0.445312 -0.34375 0.40625 -0.34375 L 0.203125 -0.34375 L 0.203125 0 L 0.03125 0 L 0.03125 -0.875 L 0.46875 -0.875 C 0.507812 -0.875 0.546875 -0.867188 0.578125 -0.859375 C 0.617188 -0.847656 0.648438 -0.828125 0.671875 -0.796875 C 0.691406 -0.773438 0.707031 -0.75 0.71875 -0.71875 C 0.738281 -0.6875 0.75 -0.65625 0.75 -0.625 C 0.75 -0.570312 0.734375 -0.523438 0.703125 -0.484375 C 0.679688 -0.453125 0.648438 -0.429688 0.609375 -0.421875 C 0.648438 -0.410156 0.675781 -0.390625 0.6875 -0.359375 C 0.707031 -0.335938 0.71875 -0.300781 0.71875 -0.25 Z M 0.71875 0 "/></g></g></g><g fill="#f8f1e5" fill-opacity="1"><g transform="translate(15.175295, 40.067665)"><g><path d="M 0.203125 -0.421875 C 0.203125 -0.316406 0.222656 -0.238281 0.265625 -0.1875 C 0.304688 -0.144531 0.363281 -0.125 0.4375 -0.125 C 0.46875 -0.125 0.5 -0.128906 0.53125 -0.140625 C 0.5625 -0.148438 0.585938 -0.164062 0.609375 -0.1875 C 0.628906 -0.21875 0.644531 -0.25 0.65625 -0.28125 C 0.664062 -0.320312 0.671875 -0.367188 0.671875 -0.421875 C 0.671875 -0.523438 0.648438 -0.601562 0.609375 -0.65625 C 0.566406 -0.707031 0.507812 -0.734375 0.4375 -0.734375 C 0.363281 -0.734375 0.304688 -0.707031 0.265625 -0.65625 C 0.222656 -0.601562 0.203125 -0.523438 0.203125 -0.421875 Z M 0.4375 -0.90625 C 0.570312 -0.90625 0.675781 -0.863281 0.75 -0.78125 C 0.820312 -0.695312 0.859375 -0.578125 0.859375 -0.421875 C 0.859375 -0.273438 0.820312 -0.160156 0.75 -0.078125 C 0.675781 -0.00390625 0.570312 0.03125 0.4375 0.03125 C 0.300781 0.03125 0.195312 -0.00390625 0.125 -0.078125 C 0.0507812 -0.160156 0.015625 -0.273438 0.015625 -0.421875 C 0.015625 -0.503906 0.0234375 -0.570312 0.046875 -0.625 C 0.0664062 -0.6875 0.09375 -0.738281 0.125 -0.78125 C 0.164062 -0.820312 0.210938 -0.851562 0.265625 -0.875 C 0.316406 -0.894531 0.375 -0.90625 0.4375 -0.90625 Z M 0.4375 -0.90625 "/></g></g></g><g fill="#f8f1e5" fill-opacity="1"><g transform="translate(16.655093, 40.067665)"><g><path d="M 0.875 0 L 0.703125 0 L 0.5625 -0.5625 L 0.421875 0 L 0.25 0 L 0 -0.875 L 0.203125 -0.875 L 0.34375 -0.3125 L 0.46875 -0.875 L 0.65625 -0.875 L 0.796875 -0.3125 L 0.9375 -0.875 L 1.125 -0.875 Z M 0.875 0 "/></g></g></g><g fill="#f8f1e5" fill-opacity="1"><g transform="translate(18.379391, 40.067665)"><g><path d="M 0.75 0 L 0.5625 0 L 0.203125 -0.59375 L 0.203125 0 L 0.03125 0 L 0.03125 -0.875 L 0.21875 -0.875 L 0.578125 -0.296875 L 0.578125 -0.875 L 0.75 -0.875 Z M 0.75 0 "/></g></g></g><g fill="#f8f1e5" fill-opacity="1"><g transform="translate(32.524282, 40.037772)"><g><path d="M 0.625 -0.703125 L 0.203125 -0.703125 L 0.203125 -0.5 L 0.578125 -0.5 L 0.578125 -0.359375 L 0.203125 -0.359375 L 0.203125 0 L 0.03125 0 L 0.03125 -0.84375 L 0.625 -0.84375 Z M 0.625 -0.703125 "/></g></g></g><g fill="#f8f1e5" fill-opacity="1"><g transform="translate(33.749009, 40.037772)"><g><path d="M 0.40625 -0.65625 L 0.296875 -0.3125 L 0.515625 -0.3125 Z M 0.8125 0 L 0.609375 0 L 0.5625 -0.171875 L 0.25 -0.171875 L 0.1875 0 L 0 0 L 0.3125 -0.84375 L 0.515625 -0.84375 Z M 0.8125 0 "/></g></g></g><g fill="#f8f1e5" fill-opacity="1"><g transform="translate(35.150472, 40.037772)"><g><path d="M 0.203125 -0.375 L 0.203125 -0.140625 L 0.421875 -0.140625 C 0.460938 -0.140625 0.492188 -0.148438 0.515625 -0.171875 C 0.535156 -0.203125 0.546875 -0.234375 0.546875 -0.265625 C 0.546875 -0.304688 0.53125 -0.332031 0.5 -0.34375 C 0.476562 -0.363281 0.453125 -0.375 0.421875 -0.375 Z M 0.203125 -0.703125 L 0.203125 -0.515625 L 0.40625 -0.515625 C 0.445312 -0.515625 0.476562 -0.519531 0.5 -0.53125 C 0.519531 -0.550781 0.53125 -0.578125 0.53125 -0.609375 C 0.53125 -0.640625 0.519531 -0.660156 0.5 -0.671875 C 0.476562 -0.691406 0.445312 -0.703125 0.40625 -0.703125 Z M 0.453125 -0.84375 C 0.523438 -0.84375 0.582031 -0.820312 0.625 -0.78125 C 0.675781 -0.738281 0.703125 -0.679688 0.703125 -0.609375 C 0.703125 -0.535156 0.664062 -0.484375 0.59375 -0.453125 C 0.632812 -0.441406 0.664062 -0.414062 0.6875 -0.375 C 0.707031 -0.34375 0.71875 -0.300781 0.71875 -0.25 C 0.71875 -0.175781 0.691406 -0.113281 0.640625 -0.0625 C 0.597656 -0.0195312 0.519531 0 0.40625 0 L 0.03125 0 L 0.03125 -0.84375 Z M 0.453125 -0.84375 "/></g></g></g></svg>